G75*
%MOIN*%
%OFA0B0*%
%FSLAX25Y25*%
%IPPOS*%
%LPD*%
%AMOC8*
5,1,8,0,0,1.08239X$1,22.5*
%
%ADD10OC8,0.05600*%
%ADD11OC8,0.07400*%
%ADD12C,0.06000*%
%ADD13C,0.05937*%
%ADD14C,0.05800*%
%ADD15C,0.07600*%
%ADD16C,0.10000*%
%ADD17C,0.07000*%
%ADD18C,0.01000*%
%ADD19C,0.00600*%
%ADD20C,0.04000*%
%ADD21C,0.02578*%
D10*
X0196797Y0129750D03*
X0208057Y0129750D03*
X0208057Y0139750D03*
X0196797Y0139750D03*
X0197427Y0179750D03*
X0207821Y0179750D03*
X0207821Y0189750D03*
X0197427Y0189750D03*
D11*
X0222329Y0189574D03*
X0222329Y0179574D03*
X0222329Y0169574D03*
X0222329Y0159574D03*
X0222329Y0149574D03*
X0222329Y0139574D03*
X0222329Y0129574D03*
X0222329Y0119574D03*
X0222329Y0109574D03*
X0218956Y0065484D03*
X0218956Y0055484D03*
X0218956Y0045799D03*
X0218956Y0035799D03*
X0218956Y0025799D03*
X0218956Y0015799D03*
X0152829Y0109474D03*
X0152829Y0119474D03*
X0152829Y0129474D03*
X0152829Y0139474D03*
X0152829Y0149474D03*
X0152829Y0159474D03*
X0152829Y0169474D03*
X0152829Y0179474D03*
X0152829Y0189474D03*
X0152829Y0199474D03*
X0222329Y0199574D03*
D12*
X0106256Y0192181D03*
X0096256Y0192181D03*
X0096256Y0182181D03*
X0106256Y0182181D03*
X0106256Y0172181D03*
X0096256Y0172181D03*
X0096256Y0162181D03*
X0106256Y0162181D03*
X0106256Y0152181D03*
X0096256Y0152181D03*
X0096256Y0142181D03*
X0106256Y0142181D03*
X0036502Y0142181D03*
X0026502Y0142181D03*
X0026502Y0152181D03*
X0036502Y0152181D03*
X0036502Y0162181D03*
X0026502Y0162181D03*
X0026502Y0172181D03*
X0036502Y0172181D03*
X0036502Y0182181D03*
X0026502Y0182181D03*
X0026502Y0192181D03*
X0036502Y0192181D03*
D13*
X0320537Y0166656D02*
X0320537Y0160719D01*
X0330537Y0160719D02*
X0330537Y0166656D01*
X0330931Y0139293D02*
X0330931Y0133356D01*
X0320931Y0133356D02*
X0320931Y0139293D01*
D14*
X0305656Y0139888D03*
X0305656Y0149888D03*
X0305656Y0159888D03*
X0305656Y0169888D03*
X0305656Y0179888D03*
X0305656Y0189888D03*
X0295656Y0189888D03*
X0295656Y0199888D03*
X0305656Y0199888D03*
X0305656Y0209888D03*
X0295656Y0209888D03*
X0305656Y0219888D03*
X0305656Y0229888D03*
X0295656Y0229888D03*
X0305656Y0239888D03*
X0245656Y0239888D03*
X0245656Y0229888D03*
X0245656Y0219888D03*
X0245656Y0209888D03*
X0245656Y0199888D03*
X0245656Y0189888D03*
X0245656Y0179888D03*
X0245656Y0169888D03*
X0245656Y0159888D03*
X0245656Y0149888D03*
X0245656Y0139888D03*
X0245656Y0129888D03*
X0245656Y0119888D03*
X0245656Y0109888D03*
X0245656Y0099888D03*
X0245656Y0089888D03*
X0245656Y0079888D03*
X0245656Y0069888D03*
X0245656Y0059888D03*
X0245656Y0049888D03*
X0245656Y0039888D03*
X0245656Y0029888D03*
X0245656Y0019888D03*
X0245656Y0009888D03*
X0305656Y0009888D03*
X0305656Y0019888D03*
X0305656Y0029888D03*
X0305656Y0039888D03*
X0305656Y0049888D03*
X0305656Y0059888D03*
X0305656Y0069888D03*
X0305656Y0079888D03*
X0305656Y0089888D03*
X0305656Y0099888D03*
X0305656Y0109888D03*
X0305656Y0119888D03*
X0305656Y0129888D03*
D15*
X0329435Y0086561D03*
X0329435Y0076561D03*
X0329435Y0066561D03*
X0329435Y0056561D03*
X0329435Y0046561D03*
X0329435Y0036561D03*
X0329435Y0026561D03*
D16*
X0274435Y0029061D03*
X0274435Y0084061D03*
D17*
X0268569Y0187722D03*
X0268569Y0197722D03*
X0268569Y0207722D03*
X0268569Y0217722D03*
D18*
X0152829Y0199474D02*
X0146915Y0196142D01*
X0144099Y0196142D01*
X0142304Y0198018D01*
X0142304Y0208316D01*
X0132824Y0214252D01*
X0052933Y0214252D01*
X0047201Y0208442D01*
X0047205Y0182602D01*
X0042978Y0177132D01*
X0033136Y0177132D01*
X0026502Y0172181D01*
X0032348Y0166896D02*
X0046915Y0166896D01*
X0053608Y0176738D01*
X0053608Y0201935D01*
X0058726Y0207447D01*
X0126837Y0207447D01*
X0134430Y0202329D01*
X0134430Y0186569D01*
X0144917Y0175670D01*
X0147703Y0175670D01*
X0152829Y0179474D01*
X0147703Y0173870D02*
X0143402Y0173870D01*
X0132236Y0185411D01*
X0132236Y0201148D01*
X0126049Y0205478D01*
X0059514Y0205478D01*
X0055577Y0201148D01*
X0055577Y0175557D01*
X0048096Y0164927D01*
X0040616Y0164927D01*
X0036502Y0162181D01*
X0032348Y0166896D02*
X0026502Y0162181D01*
X0031561Y0157053D02*
X0026502Y0152181D01*
X0031561Y0157053D02*
X0050260Y0156943D01*
X0060981Y0164552D01*
X0060980Y0195961D01*
X0065773Y0201252D01*
X0123240Y0201267D01*
X0127737Y0196428D01*
X0127737Y0168434D01*
X0140217Y0155197D01*
X0145734Y0155197D01*
X0152829Y0159474D01*
X0146522Y0153004D02*
X0139047Y0153004D01*
X0125937Y0167719D01*
X0125937Y0195631D01*
X0122166Y0199059D01*
X0066640Y0199075D01*
X0063166Y0195310D01*
X0063165Y0163727D01*
X0054988Y0157951D01*
X0050459Y0154691D01*
X0041010Y0154691D01*
X0036502Y0152181D01*
X0036502Y0172181D02*
X0039829Y0175163D01*
X0044159Y0175163D01*
X0049382Y0181898D01*
X0049381Y0207869D01*
X0053608Y0212171D01*
X0131955Y0212171D01*
X0140110Y0207365D01*
X0140110Y0196797D01*
X0143433Y0193948D01*
X0146915Y0193948D01*
X0152829Y0189474D01*
X0147703Y0173870D02*
X0152829Y0169474D01*
X0146522Y0153004D02*
X0152829Y0149474D01*
D19*
X0009149Y0006141D02*
X0006096Y0006141D01*
X0005694Y0006543D02*
X0005694Y0251955D01*
X0006609Y0252655D01*
X0009350Y0252655D01*
X0007495Y0250800D01*
X0006001Y0247194D01*
X0006001Y0243290D01*
X0007495Y0239684D01*
X0010255Y0236924D01*
X0013861Y0235430D01*
X0017765Y0235430D01*
X0021371Y0236924D01*
X0024131Y0239684D01*
X0025625Y0243290D01*
X0025625Y0247194D01*
X0024131Y0250800D01*
X0022276Y0252655D01*
X0343208Y0252655D01*
X0341353Y0250800D01*
X0339859Y0247194D01*
X0339859Y0243290D01*
X0341353Y0239684D01*
X0344113Y0236924D01*
X0347720Y0235430D01*
X0351623Y0235430D01*
X0355229Y0236924D01*
X0357989Y0239684D01*
X0359483Y0243290D01*
X0359483Y0247194D01*
X0357989Y0250800D01*
X0356135Y0252655D01*
X0356826Y0252655D01*
X0361089Y0248392D01*
X0361089Y0008234D01*
X0358548Y0005694D01*
X0355889Y0005694D01*
X0357989Y0007794D01*
X0359483Y0011401D01*
X0359483Y0015304D01*
X0357989Y0018910D01*
X0355229Y0021670D01*
X0351623Y0023164D01*
X0347720Y0023164D01*
X0344113Y0021670D01*
X0341353Y0018910D01*
X0339859Y0015304D01*
X0339859Y0011401D01*
X0341353Y0007794D01*
X0343454Y0005694D01*
X0311644Y0005694D01*
X0311759Y0005809D01*
X0312855Y0008456D01*
X0312855Y0011320D01*
X0311759Y0013966D01*
X0310838Y0014888D01*
X0311759Y0015809D01*
X0312855Y0018456D01*
X0312855Y0021320D01*
X0311759Y0023966D01*
X0310838Y0024888D01*
X0311759Y0025809D01*
X0312855Y0028456D01*
X0312855Y0031320D01*
X0311759Y0033966D01*
X0310838Y0034888D01*
X0311759Y0035809D01*
X0312855Y0038456D01*
X0312855Y0041320D01*
X0311759Y0043966D01*
X0310838Y0044888D01*
X0311759Y0045809D01*
X0312855Y0048456D01*
X0312855Y0051320D01*
X0311759Y0053966D01*
X0310838Y0054888D01*
X0311759Y0055809D01*
X0312855Y0058456D01*
X0312855Y0061320D01*
X0311759Y0063966D01*
X0310838Y0064888D01*
X0311759Y0065809D01*
X0312855Y0068456D01*
X0312855Y0071320D01*
X0311759Y0073966D01*
X0310838Y0074888D01*
X0311759Y0075809D01*
X0312855Y0078456D01*
X0312855Y0081320D01*
X0311759Y0083966D01*
X0310838Y0084888D01*
X0311759Y0085809D01*
X0312855Y0088456D01*
X0312855Y0091320D01*
X0311759Y0093966D01*
X0309734Y0095992D01*
X0308272Y0096597D01*
X0308392Y0096684D01*
X0308859Y0097152D01*
X0309248Y0097687D01*
X0309548Y0098276D01*
X0309752Y0098904D01*
X0309855Y0099557D01*
X0309855Y0099588D01*
X0305956Y0099588D01*
X0305956Y0100188D01*
X0309855Y0100188D01*
X0309855Y0100218D01*
X0309752Y0100871D01*
X0309548Y0101500D01*
X0309248Y0102089D01*
X0308859Y0102624D01*
X0308392Y0103091D01*
X0308272Y0103178D01*
X0309734Y0103784D01*
X0311759Y0105809D01*
X0312855Y0108456D01*
X0312855Y0111320D01*
X0311759Y0113966D01*
X0310838Y0114888D01*
X0311759Y0115809D01*
X0312855Y0118456D01*
X0312855Y0121320D01*
X0311759Y0123966D01*
X0310838Y0124888D01*
X0311759Y0125809D01*
X0312855Y0128456D01*
X0312855Y0131320D01*
X0311759Y0133966D01*
X0310838Y0134888D01*
X0311759Y0135809D01*
X0312855Y0138456D01*
X0312855Y0141320D01*
X0311759Y0143966D01*
X0310838Y0144888D01*
X0311759Y0145809D01*
X0312855Y0148456D01*
X0312855Y0151320D01*
X0311759Y0153966D01*
X0310838Y0154888D01*
X0311759Y0155809D01*
X0312855Y0158456D01*
X0312855Y0161320D01*
X0311759Y0163966D01*
X0310838Y0164888D01*
X0311759Y0165809D01*
X0312855Y0168456D01*
X0312855Y0171320D01*
X0311759Y0173966D01*
X0310838Y0174888D01*
X0311759Y0175809D01*
X0312855Y0178456D01*
X0312855Y0181320D01*
X0311759Y0183966D01*
X0310838Y0184888D01*
X0311759Y0185809D01*
X0312855Y0188456D01*
X0312855Y0191320D01*
X0311759Y0193966D01*
X0310838Y0194888D01*
X0311759Y0195809D01*
X0312855Y0198456D01*
X0312855Y0201320D01*
X0311759Y0203966D01*
X0310838Y0204888D01*
X0311759Y0205809D01*
X0312855Y0208456D01*
X0312855Y0211320D01*
X0311759Y0213966D01*
X0310838Y0214888D01*
X0311759Y0215809D01*
X0312855Y0218456D01*
X0312855Y0221320D01*
X0311759Y0223966D01*
X0310838Y0224888D01*
X0311759Y0225809D01*
X0312855Y0228456D01*
X0312855Y0231320D01*
X0311759Y0233966D01*
X0310838Y0234888D01*
X0311759Y0235809D01*
X0312855Y0238456D01*
X0312855Y0241320D01*
X0311759Y0243966D01*
X0309734Y0245992D01*
X0307088Y0247088D01*
X0304223Y0247088D01*
X0301577Y0245992D01*
X0299552Y0243966D01*
X0298456Y0241320D01*
X0298456Y0238456D01*
X0299423Y0236121D01*
X0297088Y0237088D01*
X0294223Y0237088D01*
X0291577Y0235992D01*
X0289552Y0233966D01*
X0288456Y0231320D01*
X0288456Y0228456D01*
X0289552Y0225809D01*
X0291577Y0223784D01*
X0294223Y0222688D01*
X0297088Y0222688D01*
X0299423Y0223655D01*
X0298456Y0221320D01*
X0298456Y0218456D01*
X0299423Y0216121D01*
X0297088Y0217088D01*
X0294223Y0217088D01*
X0291577Y0215992D01*
X0289552Y0213966D01*
X0288456Y0211320D01*
X0288456Y0208456D01*
X0289552Y0205809D01*
X0290473Y0204888D01*
X0289552Y0203966D01*
X0288456Y0201320D01*
X0288456Y0198456D01*
X0289552Y0195809D01*
X0290473Y0194888D01*
X0289552Y0193966D01*
X0288456Y0191320D01*
X0288456Y0188456D01*
X0289552Y0185809D01*
X0291577Y0183784D01*
X0294223Y0182688D01*
X0297088Y0182688D01*
X0299423Y0183655D01*
X0298456Y0181320D01*
X0298456Y0178456D01*
X0299552Y0175809D01*
X0300473Y0174888D01*
X0299552Y0173966D01*
X0298456Y0171320D01*
X0298456Y0168456D01*
X0299552Y0165809D01*
X0300473Y0164888D01*
X0299552Y0163966D01*
X0298456Y0161320D01*
X0298456Y0158456D01*
X0299552Y0155809D01*
X0300473Y0154888D01*
X0299552Y0153966D01*
X0298456Y0151320D01*
X0298456Y0148456D01*
X0299552Y0145809D01*
X0300473Y0144888D01*
X0299552Y0143966D01*
X0298456Y0141320D01*
X0298456Y0138456D01*
X0299552Y0135809D01*
X0300473Y0134888D01*
X0299552Y0133966D01*
X0298456Y0131320D01*
X0298456Y0128456D01*
X0299552Y0125809D01*
X0300473Y0124888D01*
X0299552Y0123966D01*
X0298456Y0121320D01*
X0298456Y0118456D01*
X0299552Y0115809D01*
X0300473Y0114888D01*
X0299552Y0113966D01*
X0298456Y0111320D01*
X0298456Y0108456D01*
X0299552Y0105809D01*
X0301577Y0103784D01*
X0303039Y0103178D01*
X0302919Y0103091D01*
X0302452Y0102624D01*
X0302063Y0102089D01*
X0301763Y0101500D01*
X0301559Y0100871D01*
X0301456Y0100218D01*
X0301456Y0100188D01*
X0305355Y0100188D01*
X0305355Y0099588D01*
X0301456Y0099588D01*
X0301456Y0099557D01*
X0301559Y0098904D01*
X0301763Y0098276D01*
X0302063Y0097687D01*
X0302452Y0097152D01*
X0302919Y0096684D01*
X0303039Y0096597D01*
X0301577Y0095992D01*
X0299552Y0093966D01*
X0298456Y0091320D01*
X0298456Y0088456D01*
X0299552Y0085809D01*
X0300473Y0084888D01*
X0299552Y0083966D01*
X0298456Y0081320D01*
X0298456Y0078456D01*
X0299552Y0075809D01*
X0300473Y0074888D01*
X0299552Y0073966D01*
X0298456Y0071320D01*
X0298456Y0068456D01*
X0299552Y0065809D01*
X0300473Y0064888D01*
X0299552Y0063966D01*
X0298456Y0061320D01*
X0298456Y0058456D01*
X0299552Y0055809D01*
X0300473Y0054888D01*
X0299552Y0053966D01*
X0298456Y0051320D01*
X0298456Y0048456D01*
X0299552Y0045809D01*
X0300473Y0044888D01*
X0299552Y0043966D01*
X0298456Y0041320D01*
X0298456Y0038456D01*
X0299552Y0035809D01*
X0300473Y0034888D01*
X0299552Y0033966D01*
X0298456Y0031320D01*
X0298456Y0028456D01*
X0299552Y0025809D01*
X0300473Y0024888D01*
X0299552Y0023966D01*
X0298456Y0021320D01*
X0298456Y0018456D01*
X0299552Y0015809D01*
X0300473Y0014888D01*
X0299552Y0013966D01*
X0298456Y0011320D01*
X0298456Y0008456D01*
X0299552Y0005809D01*
X0299667Y0005694D01*
X0251644Y0005694D01*
X0251759Y0005809D01*
X0252855Y0008456D01*
X0252855Y0011320D01*
X0251759Y0013966D01*
X0250838Y0014888D01*
X0251759Y0015809D01*
X0252855Y0018456D01*
X0252855Y0021320D01*
X0251759Y0023966D01*
X0250838Y0024888D01*
X0251759Y0025809D01*
X0252855Y0028456D01*
X0252855Y0031320D01*
X0251759Y0033966D01*
X0250838Y0034888D01*
X0251759Y0035809D01*
X0252855Y0038456D01*
X0252855Y0041320D01*
X0251759Y0043966D01*
X0250838Y0044888D01*
X0251759Y0045809D01*
X0252855Y0048456D01*
X0252855Y0051320D01*
X0251759Y0053966D01*
X0250838Y0054888D01*
X0251759Y0055809D01*
X0252855Y0058456D01*
X0252855Y0061320D01*
X0251759Y0063966D01*
X0250838Y0064888D01*
X0251759Y0065809D01*
X0252855Y0068456D01*
X0252855Y0071320D01*
X0251759Y0073966D01*
X0250838Y0074888D01*
X0251759Y0075809D01*
X0252855Y0078456D01*
X0252855Y0081320D01*
X0251759Y0083966D01*
X0250838Y0084888D01*
X0251759Y0085809D01*
X0252855Y0088456D01*
X0252855Y0091320D01*
X0251759Y0093966D01*
X0250838Y0094888D01*
X0251759Y0095809D01*
X0252855Y0098456D01*
X0252855Y0101320D01*
X0251759Y0103966D01*
X0250838Y0104888D01*
X0251759Y0105809D01*
X0252855Y0108456D01*
X0252855Y0111320D01*
X0251759Y0113966D01*
X0250838Y0114888D01*
X0251759Y0115809D01*
X0252855Y0118456D01*
X0252855Y0121320D01*
X0251759Y0123966D01*
X0250838Y0124888D01*
X0251759Y0125809D01*
X0252855Y0128456D01*
X0252855Y0131320D01*
X0251759Y0133966D01*
X0250838Y0134888D01*
X0251759Y0135809D01*
X0252855Y0138456D01*
X0252855Y0140248D01*
X0262903Y0140248D01*
X0263041Y0140110D01*
X0265095Y0139259D01*
X0267318Y0139259D01*
X0269373Y0140110D01*
X0270945Y0141683D01*
X0271796Y0143737D01*
X0271796Y0145960D01*
X0270945Y0148014D01*
X0269373Y0149587D01*
X0267318Y0150437D01*
X0265095Y0150437D01*
X0263041Y0149587D01*
X0262903Y0149448D01*
X0252855Y0149448D01*
X0252855Y0151320D01*
X0251759Y0153966D01*
X0250838Y0154888D01*
X0251759Y0155809D01*
X0252855Y0158456D01*
X0252855Y0161320D01*
X0251759Y0163966D01*
X0250838Y0164888D01*
X0251759Y0165809D01*
X0252855Y0168456D01*
X0252855Y0171320D01*
X0251759Y0173966D01*
X0250838Y0174888D01*
X0251759Y0175809D01*
X0252855Y0178456D01*
X0252855Y0181320D01*
X0251759Y0183966D01*
X0250838Y0184888D01*
X0251759Y0185809D01*
X0252855Y0188456D01*
X0252855Y0191320D01*
X0251759Y0193966D01*
X0250838Y0194888D01*
X0251759Y0195809D01*
X0252855Y0198456D01*
X0252855Y0201320D01*
X0251759Y0203966D01*
X0250838Y0204888D01*
X0251759Y0205809D01*
X0252855Y0208456D01*
X0252855Y0211320D01*
X0251759Y0213966D01*
X0250838Y0214888D01*
X0251759Y0215809D01*
X0252855Y0218456D01*
X0252855Y0221320D01*
X0251759Y0223966D01*
X0250838Y0224888D01*
X0251759Y0225809D01*
X0252855Y0228456D01*
X0252855Y0231320D01*
X0251759Y0233966D01*
X0249734Y0235992D01*
X0248272Y0236597D01*
X0248392Y0236684D01*
X0248859Y0237152D01*
X0249248Y0237687D01*
X0249548Y0238276D01*
X0249752Y0238904D01*
X0249855Y0239557D01*
X0249855Y0239588D01*
X0245956Y0239588D01*
X0245956Y0240188D01*
X0249855Y0240188D01*
X0249855Y0240218D01*
X0249752Y0240871D01*
X0249548Y0241500D01*
X0249248Y0242089D01*
X0248859Y0242624D01*
X0248392Y0243091D01*
X0247857Y0243480D01*
X0247268Y0243780D01*
X0246639Y0243984D01*
X0245986Y0244088D01*
X0245955Y0244088D01*
X0245955Y0240188D01*
X0245356Y0240188D01*
X0245356Y0244088D01*
X0245325Y0244088D01*
X0244672Y0243984D01*
X0244043Y0243780D01*
X0243454Y0243480D01*
X0242919Y0243091D01*
X0242452Y0242624D01*
X0242063Y0242089D01*
X0241763Y0241500D01*
X0241559Y0240871D01*
X0241456Y0240218D01*
X0241456Y0240188D01*
X0245355Y0240188D01*
X0245355Y0239588D01*
X0241456Y0239588D01*
X0241456Y0239557D01*
X0241559Y0238904D01*
X0241763Y0238276D01*
X0242063Y0237687D01*
X0242452Y0237152D01*
X0242919Y0236684D01*
X0243039Y0236597D01*
X0241577Y0235992D01*
X0239552Y0233966D01*
X0238456Y0231320D01*
X0238456Y0228456D01*
X0239552Y0225809D01*
X0240473Y0224888D01*
X0239552Y0223966D01*
X0238456Y0221320D01*
X0238456Y0218456D01*
X0239552Y0215809D01*
X0240473Y0214888D01*
X0239552Y0213966D01*
X0238456Y0211320D01*
X0238456Y0208456D01*
X0239552Y0205809D01*
X0240473Y0204888D01*
X0239552Y0203966D01*
X0238456Y0201320D01*
X0238456Y0198456D01*
X0239552Y0195809D01*
X0240473Y0194888D01*
X0239552Y0193966D01*
X0238456Y0191320D01*
X0238456Y0188456D01*
X0239552Y0185809D01*
X0240473Y0184888D01*
X0239552Y0183966D01*
X0238456Y0181320D01*
X0238456Y0178456D01*
X0239552Y0175809D01*
X0240473Y0174888D01*
X0239552Y0173966D01*
X0238456Y0171320D01*
X0238456Y0168456D01*
X0239552Y0165809D01*
X0240473Y0164888D01*
X0239552Y0163966D01*
X0238456Y0161320D01*
X0238456Y0158456D01*
X0239552Y0155809D01*
X0240473Y0154888D01*
X0239552Y0153966D01*
X0238456Y0151320D01*
X0238456Y0150439D01*
X0238322Y0150439D01*
X0236268Y0149588D01*
X0234695Y0148016D01*
X0233844Y0145962D01*
X0233844Y0143738D01*
X0234695Y0141684D01*
X0236268Y0140112D01*
X0238322Y0139261D01*
X0238456Y0139261D01*
X0238456Y0138456D01*
X0239552Y0135809D01*
X0240473Y0134888D01*
X0239552Y0133966D01*
X0238456Y0131320D01*
X0238456Y0128456D01*
X0239552Y0125809D01*
X0240473Y0124888D01*
X0239552Y0123966D01*
X0238456Y0121320D01*
X0238456Y0118456D01*
X0239552Y0115809D01*
X0240473Y0114888D01*
X0239552Y0113966D01*
X0238456Y0111320D01*
X0238456Y0108456D01*
X0239552Y0105809D01*
X0240473Y0104888D01*
X0239552Y0103966D01*
X0238456Y0101320D01*
X0238456Y0098456D01*
X0239552Y0095809D01*
X0240473Y0094888D01*
X0239552Y0093966D01*
X0238456Y0091320D01*
X0238456Y0088456D01*
X0239552Y0085809D01*
X0240473Y0084888D01*
X0239552Y0083966D01*
X0238456Y0081320D01*
X0238456Y0078456D01*
X0239552Y0075809D01*
X0240473Y0074888D01*
X0239552Y0073966D01*
X0238456Y0071320D01*
X0238456Y0068456D01*
X0239552Y0065809D01*
X0240473Y0064888D01*
X0239552Y0063966D01*
X0238456Y0061320D01*
X0238456Y0058456D01*
X0239552Y0055809D01*
X0240473Y0054888D01*
X0239552Y0053966D01*
X0238456Y0051320D01*
X0238456Y0048456D01*
X0239552Y0045809D01*
X0240473Y0044888D01*
X0239552Y0043966D01*
X0238456Y0041320D01*
X0238456Y0038456D01*
X0239552Y0035809D01*
X0240473Y0034888D01*
X0239552Y0033966D01*
X0238456Y0031320D01*
X0238456Y0028456D01*
X0239552Y0025809D01*
X0240473Y0024888D01*
X0239552Y0023966D01*
X0238456Y0021320D01*
X0238456Y0018456D01*
X0239552Y0015809D01*
X0240473Y0014888D01*
X0239552Y0013966D01*
X0238456Y0011320D01*
X0238456Y0008456D01*
X0239552Y0005809D01*
X0239667Y0005694D01*
X0022030Y0005694D01*
X0024131Y0007794D01*
X0025625Y0011401D01*
X0025625Y0015304D01*
X0024131Y0018910D01*
X0021371Y0021670D01*
X0017765Y0023164D01*
X0013861Y0023164D01*
X0010255Y0021670D01*
X0007495Y0018910D01*
X0006001Y0015304D01*
X0006001Y0011401D01*
X0007495Y0007794D01*
X0009596Y0005694D01*
X0006543Y0005694D01*
X0005694Y0006543D01*
X0005694Y0006739D02*
X0008550Y0006739D01*
X0007952Y0007338D02*
X0005694Y0007338D01*
X0005694Y0007936D02*
X0007436Y0007936D01*
X0007188Y0008535D02*
X0005694Y0008535D01*
X0005694Y0009133D02*
X0006940Y0009133D01*
X0006693Y0009732D02*
X0005694Y0009732D01*
X0005694Y0010330D02*
X0006445Y0010330D01*
X0006197Y0010929D02*
X0005694Y0010929D01*
X0005694Y0011527D02*
X0006001Y0011527D01*
X0006001Y0012126D02*
X0005694Y0012126D01*
X0005694Y0012724D02*
X0006001Y0012724D01*
X0006001Y0013323D02*
X0005694Y0013323D01*
X0005694Y0013921D02*
X0006001Y0013921D01*
X0006001Y0014520D02*
X0005694Y0014520D01*
X0005694Y0015118D02*
X0006001Y0015118D01*
X0006172Y0015717D02*
X0005694Y0015717D01*
X0005694Y0016315D02*
X0006420Y0016315D01*
X0006668Y0016914D02*
X0005694Y0016914D01*
X0005694Y0017512D02*
X0006916Y0017512D01*
X0007164Y0018111D02*
X0005694Y0018111D01*
X0005694Y0018709D02*
X0007412Y0018709D01*
X0007892Y0019308D02*
X0005694Y0019308D01*
X0005694Y0019906D02*
X0008491Y0019906D01*
X0009089Y0020505D02*
X0005694Y0020505D01*
X0005694Y0021103D02*
X0009688Y0021103D01*
X0010331Y0021702D02*
X0005694Y0021702D01*
X0005694Y0022300D02*
X0011776Y0022300D01*
X0013221Y0022899D02*
X0005694Y0022899D01*
X0005694Y0023497D02*
X0210956Y0023497D01*
X0210956Y0022899D02*
X0018405Y0022899D01*
X0019850Y0022300D02*
X0211141Y0022300D01*
X0210956Y0022486D02*
X0212642Y0020799D01*
X0210956Y0019113D01*
X0210956Y0012486D01*
X0215642Y0007799D01*
X0222269Y0007799D01*
X0226956Y0012486D01*
X0226956Y0019113D01*
X0225269Y0020799D01*
X0226956Y0022486D01*
X0226956Y0029113D01*
X0225269Y0030799D01*
X0226956Y0032486D01*
X0226956Y0039113D01*
X0225269Y0040799D01*
X0226956Y0042486D01*
X0226956Y0049113D01*
X0225427Y0050642D01*
X0226956Y0052171D01*
X0226956Y0058798D01*
X0223148Y0062606D01*
X0223956Y0063413D01*
X0223956Y0065184D01*
X0219256Y0065184D01*
X0219256Y0065784D01*
X0223956Y0065784D01*
X0223956Y0067556D01*
X0221027Y0070484D01*
X0219256Y0070484D01*
X0219256Y0065785D01*
X0218656Y0065785D01*
X0218656Y0070484D01*
X0216885Y0070484D01*
X0213956Y0067556D01*
X0213956Y0065784D01*
X0218656Y0065784D01*
X0218656Y0065184D01*
X0213956Y0065184D01*
X0213956Y0063413D01*
X0214763Y0062606D01*
X0210956Y0058798D01*
X0210956Y0052171D01*
X0212484Y0050642D01*
X0210956Y0049113D01*
X0210956Y0042486D01*
X0212642Y0040799D01*
X0210956Y0039113D01*
X0210956Y0032486D01*
X0212642Y0030799D01*
X0210956Y0029113D01*
X0210956Y0022486D01*
X0211740Y0021702D02*
X0021295Y0021702D01*
X0021938Y0021103D02*
X0212338Y0021103D01*
X0212347Y0020505D02*
X0022537Y0020505D01*
X0023135Y0019906D02*
X0211749Y0019906D01*
X0211150Y0019308D02*
X0023734Y0019308D01*
X0024214Y0018709D02*
X0210956Y0018709D01*
X0210956Y0018111D02*
X0024462Y0018111D01*
X0024710Y0017512D02*
X0210956Y0017512D01*
X0210956Y0016914D02*
X0024958Y0016914D01*
X0025206Y0016315D02*
X0210956Y0016315D01*
X0210956Y0015717D02*
X0025454Y0015717D01*
X0025625Y0015118D02*
X0210956Y0015118D01*
X0210956Y0014520D02*
X0025625Y0014520D01*
X0025625Y0013921D02*
X0210956Y0013921D01*
X0210956Y0013323D02*
X0025625Y0013323D01*
X0025625Y0012724D02*
X0210956Y0012724D01*
X0211316Y0012126D02*
X0025625Y0012126D01*
X0025625Y0011527D02*
X0211914Y0011527D01*
X0212513Y0010929D02*
X0025429Y0010929D01*
X0025181Y0010330D02*
X0213111Y0010330D01*
X0213710Y0009732D02*
X0024933Y0009732D01*
X0024686Y0009133D02*
X0214308Y0009133D01*
X0214907Y0008535D02*
X0024438Y0008535D01*
X0024190Y0007936D02*
X0215505Y0007936D01*
X0222406Y0007936D02*
X0238671Y0007936D01*
X0238456Y0008535D02*
X0223005Y0008535D01*
X0223603Y0009133D02*
X0238456Y0009133D01*
X0238456Y0009732D02*
X0224202Y0009732D01*
X0224800Y0010330D02*
X0238456Y0010330D01*
X0238456Y0010929D02*
X0225399Y0010929D01*
X0225997Y0011527D02*
X0238541Y0011527D01*
X0238789Y0012126D02*
X0226596Y0012126D01*
X0226956Y0012724D02*
X0239037Y0012724D01*
X0239285Y0013323D02*
X0226956Y0013323D01*
X0226956Y0013921D02*
X0239533Y0013921D01*
X0240105Y0014520D02*
X0226956Y0014520D01*
X0226956Y0015118D02*
X0240243Y0015118D01*
X0239644Y0015717D02*
X0226956Y0015717D01*
X0226956Y0016315D02*
X0239342Y0016315D01*
X0239094Y0016914D02*
X0226956Y0016914D01*
X0226956Y0017512D02*
X0238846Y0017512D01*
X0238598Y0018111D02*
X0226956Y0018111D01*
X0226956Y0018709D02*
X0238456Y0018709D01*
X0238456Y0019308D02*
X0226761Y0019308D01*
X0226162Y0019906D02*
X0238456Y0019906D01*
X0238456Y0020505D02*
X0225564Y0020505D01*
X0225573Y0021103D02*
X0238456Y0021103D01*
X0238614Y0021702D02*
X0226172Y0021702D01*
X0226770Y0022300D02*
X0238862Y0022300D01*
X0239110Y0022899D02*
X0226956Y0022899D01*
X0226956Y0023497D02*
X0239357Y0023497D01*
X0239681Y0024096D02*
X0226956Y0024096D01*
X0226956Y0024694D02*
X0240280Y0024694D01*
X0240068Y0025293D02*
X0226956Y0025293D01*
X0226956Y0025891D02*
X0239518Y0025891D01*
X0239270Y0026490D02*
X0226956Y0026490D01*
X0226956Y0027088D02*
X0239022Y0027088D01*
X0238774Y0027687D02*
X0226956Y0027687D01*
X0226956Y0028285D02*
X0238526Y0028285D01*
X0238456Y0028884D02*
X0226956Y0028884D01*
X0226586Y0029482D02*
X0238456Y0029482D01*
X0238456Y0030081D02*
X0225988Y0030081D01*
X0225389Y0030680D02*
X0238456Y0030680D01*
X0238456Y0031278D02*
X0225748Y0031278D01*
X0226346Y0031877D02*
X0238686Y0031877D01*
X0238934Y0032475D02*
X0226945Y0032475D01*
X0226956Y0033074D02*
X0239182Y0033074D01*
X0239430Y0033672D02*
X0226956Y0033672D01*
X0226956Y0034271D02*
X0239856Y0034271D01*
X0240454Y0034869D02*
X0226956Y0034869D01*
X0226956Y0035468D02*
X0239893Y0035468D01*
X0239445Y0036066D02*
X0226956Y0036066D01*
X0226956Y0036665D02*
X0239197Y0036665D01*
X0238949Y0037263D02*
X0226956Y0037263D01*
X0226956Y0037862D02*
X0238702Y0037862D01*
X0238456Y0038460D02*
X0226956Y0038460D01*
X0226956Y0039059D02*
X0238456Y0039059D01*
X0238456Y0039657D02*
X0226412Y0039657D01*
X0225813Y0040256D02*
X0238456Y0040256D01*
X0238456Y0040854D02*
X0225324Y0040854D01*
X0225923Y0041453D02*
X0238510Y0041453D01*
X0238758Y0042051D02*
X0226521Y0042051D01*
X0226956Y0042650D02*
X0239006Y0042650D01*
X0239254Y0043248D02*
X0226956Y0043248D01*
X0226956Y0043847D02*
X0239502Y0043847D01*
X0240031Y0044445D02*
X0226956Y0044445D01*
X0226956Y0045044D02*
X0240317Y0045044D01*
X0239719Y0045642D02*
X0226956Y0045642D01*
X0226956Y0046241D02*
X0239373Y0046241D01*
X0239125Y0046839D02*
X0226956Y0046839D01*
X0226956Y0047438D02*
X0238877Y0047438D01*
X0238629Y0048036D02*
X0226956Y0048036D01*
X0226956Y0048635D02*
X0238456Y0048635D01*
X0238456Y0049233D02*
X0226835Y0049233D01*
X0226237Y0049832D02*
X0238456Y0049832D01*
X0238456Y0050430D02*
X0225638Y0050430D01*
X0225814Y0051029D02*
X0238456Y0051029D01*
X0238583Y0051627D02*
X0226412Y0051627D01*
X0226956Y0052226D02*
X0238831Y0052226D01*
X0239079Y0052824D02*
X0226956Y0052824D01*
X0226956Y0053423D02*
X0239327Y0053423D01*
X0239607Y0054021D02*
X0226956Y0054021D01*
X0226956Y0054620D02*
X0240205Y0054620D01*
X0240142Y0055218D02*
X0226956Y0055218D01*
X0226956Y0055817D02*
X0239548Y0055817D01*
X0239301Y0056415D02*
X0226956Y0056415D01*
X0226956Y0057014D02*
X0239053Y0057014D01*
X0238805Y0057613D02*
X0226956Y0057613D01*
X0226956Y0058211D02*
X0238557Y0058211D01*
X0238456Y0058810D02*
X0226944Y0058810D01*
X0226346Y0059408D02*
X0238456Y0059408D01*
X0238456Y0060007D02*
X0225747Y0060007D01*
X0225149Y0060605D02*
X0238456Y0060605D01*
X0238456Y0061204D02*
X0224550Y0061204D01*
X0223952Y0061802D02*
X0238655Y0061802D01*
X0238903Y0062401D02*
X0223353Y0062401D01*
X0223541Y0062999D02*
X0239151Y0062999D01*
X0239399Y0063598D02*
X0223956Y0063598D01*
X0223956Y0064196D02*
X0239782Y0064196D01*
X0240380Y0064795D02*
X0223956Y0064795D01*
X0223956Y0065992D02*
X0239476Y0065992D01*
X0239228Y0066590D02*
X0223956Y0066590D01*
X0223956Y0067189D02*
X0238980Y0067189D01*
X0238732Y0067787D02*
X0223724Y0067787D01*
X0223125Y0068386D02*
X0238484Y0068386D01*
X0238456Y0068984D02*
X0222527Y0068984D01*
X0221928Y0069583D02*
X0238456Y0069583D01*
X0238456Y0070181D02*
X0221330Y0070181D01*
X0219256Y0070181D02*
X0218656Y0070181D01*
X0218656Y0069583D02*
X0219256Y0069583D01*
X0219256Y0068984D02*
X0218656Y0068984D01*
X0218656Y0068386D02*
X0219256Y0068386D01*
X0219256Y0067787D02*
X0218656Y0067787D01*
X0218656Y0067189D02*
X0219256Y0067189D01*
X0219256Y0066590D02*
X0218656Y0066590D01*
X0218656Y0065992D02*
X0219256Y0065992D01*
X0219256Y0065393D02*
X0239968Y0065393D01*
X0238456Y0070780D02*
X0005694Y0070780D01*
X0005694Y0071378D02*
X0238480Y0071378D01*
X0238728Y0071977D02*
X0005694Y0071977D01*
X0005694Y0072575D02*
X0238975Y0072575D01*
X0239223Y0073174D02*
X0005694Y0073174D01*
X0005694Y0073772D02*
X0239471Y0073772D01*
X0239956Y0074371D02*
X0005694Y0074371D01*
X0005694Y0074969D02*
X0240392Y0074969D01*
X0239793Y0075568D02*
X0005694Y0075568D01*
X0005694Y0076166D02*
X0239404Y0076166D01*
X0239156Y0076765D02*
X0005694Y0076765D01*
X0005694Y0077363D02*
X0238908Y0077363D01*
X0238660Y0077962D02*
X0005694Y0077962D01*
X0005694Y0078560D02*
X0238456Y0078560D01*
X0238456Y0079159D02*
X0005694Y0079159D01*
X0005694Y0079757D02*
X0238456Y0079757D01*
X0238456Y0080356D02*
X0005694Y0080356D01*
X0005694Y0080954D02*
X0238456Y0080954D01*
X0238552Y0081553D02*
X0005694Y0081553D01*
X0005694Y0082151D02*
X0238800Y0082151D01*
X0239048Y0082750D02*
X0005694Y0082750D01*
X0005694Y0083348D02*
X0239296Y0083348D01*
X0239544Y0083947D02*
X0005694Y0083947D01*
X0005694Y0084546D02*
X0240131Y0084546D01*
X0240217Y0085144D02*
X0005694Y0085144D01*
X0005694Y0085743D02*
X0239618Y0085743D01*
X0239331Y0086341D02*
X0005694Y0086341D01*
X0005694Y0086940D02*
X0239083Y0086940D01*
X0238836Y0087538D02*
X0005694Y0087538D01*
X0005694Y0088137D02*
X0050039Y0088137D01*
X0050869Y0087793D02*
X0054773Y0087793D01*
X0058379Y0089286D01*
X0061139Y0092046D01*
X0062633Y0095653D01*
X0062633Y0099556D01*
X0061139Y0103162D01*
X0058379Y0105922D01*
X0054773Y0107416D01*
X0050869Y0107416D01*
X0047263Y0105922D01*
X0044503Y0103162D01*
X0043009Y0099556D01*
X0043009Y0095653D01*
X0044503Y0092046D01*
X0047263Y0089286D01*
X0050869Y0087793D01*
X0048594Y0088735D02*
X0005694Y0088735D01*
X0005694Y0089334D02*
X0047216Y0089334D01*
X0046617Y0089932D02*
X0005694Y0089932D01*
X0005694Y0090531D02*
X0046019Y0090531D01*
X0045420Y0091129D02*
X0005694Y0091129D01*
X0005694Y0091728D02*
X0044822Y0091728D01*
X0044387Y0092326D02*
X0005694Y0092326D01*
X0005694Y0092925D02*
X0044139Y0092925D01*
X0043891Y0093523D02*
X0005694Y0093523D01*
X0005694Y0094122D02*
X0043643Y0094122D01*
X0043395Y0094720D02*
X0005694Y0094720D01*
X0005694Y0095319D02*
X0043147Y0095319D01*
X0043009Y0095917D02*
X0005694Y0095917D01*
X0005694Y0096516D02*
X0043009Y0096516D01*
X0043009Y0097114D02*
X0005694Y0097114D01*
X0005694Y0097713D02*
X0043009Y0097713D01*
X0043009Y0098311D02*
X0005694Y0098311D01*
X0005694Y0098910D02*
X0043009Y0098910D01*
X0043009Y0099508D02*
X0005694Y0099508D01*
X0005694Y0100107D02*
X0043237Y0100107D01*
X0043485Y0100705D02*
X0005694Y0100705D01*
X0005694Y0101304D02*
X0043733Y0101304D01*
X0043981Y0101902D02*
X0005694Y0101902D01*
X0005694Y0102501D02*
X0044229Y0102501D01*
X0044477Y0103099D02*
X0005694Y0103099D01*
X0005694Y0103698D02*
X0045038Y0103698D01*
X0045637Y0104296D02*
X0005694Y0104296D01*
X0005694Y0104895D02*
X0046235Y0104895D01*
X0046834Y0105493D02*
X0005694Y0105493D01*
X0005694Y0106092D02*
X0047672Y0106092D01*
X0049117Y0106690D02*
X0005694Y0106690D01*
X0005694Y0107289D02*
X0050562Y0107289D01*
X0055080Y0107289D02*
X0119690Y0107289D01*
X0120948Y0107810D02*
X0117342Y0106316D01*
X0114582Y0103556D01*
X0113088Y0099950D01*
X0113088Y0096046D01*
X0114582Y0092440D01*
X0117342Y0089680D01*
X0120948Y0088186D01*
X0124851Y0088186D01*
X0128458Y0089680D01*
X0131218Y0092440D01*
X0132711Y0096046D01*
X0132711Y0099950D01*
X0131218Y0103556D01*
X0128458Y0106316D01*
X0124851Y0107810D01*
X0120948Y0107810D01*
X0118245Y0106690D02*
X0056525Y0106690D01*
X0057969Y0106092D02*
X0117118Y0106092D01*
X0116519Y0105493D02*
X0058808Y0105493D01*
X0059406Y0104895D02*
X0115920Y0104895D01*
X0115322Y0104296D02*
X0060005Y0104296D01*
X0060603Y0103698D02*
X0114723Y0103698D01*
X0114392Y0103099D02*
X0061165Y0103099D01*
X0061413Y0102501D02*
X0114145Y0102501D01*
X0113897Y0101902D02*
X0061661Y0101902D01*
X0061909Y0101304D02*
X0113649Y0101304D01*
X0113401Y0100705D02*
X0062157Y0100705D01*
X0062405Y0100107D02*
X0113153Y0100107D01*
X0113088Y0099508D02*
X0062633Y0099508D01*
X0062633Y0098910D02*
X0113088Y0098910D01*
X0113088Y0098311D02*
X0062633Y0098311D01*
X0062633Y0097713D02*
X0113088Y0097713D01*
X0113088Y0097114D02*
X0062633Y0097114D01*
X0062633Y0096516D02*
X0113088Y0096516D01*
X0113141Y0095917D02*
X0062633Y0095917D01*
X0062494Y0095319D02*
X0113389Y0095319D01*
X0113637Y0094720D02*
X0062246Y0094720D01*
X0061999Y0094122D02*
X0113885Y0094122D01*
X0114133Y0093523D02*
X0061751Y0093523D01*
X0061503Y0092925D02*
X0114381Y0092925D01*
X0114695Y0092326D02*
X0061255Y0092326D01*
X0060820Y0091728D02*
X0115294Y0091728D01*
X0115892Y0091129D02*
X0060222Y0091129D01*
X0059623Y0090531D02*
X0116491Y0090531D01*
X0117090Y0089932D02*
X0059025Y0089932D01*
X0058426Y0089334D02*
X0118178Y0089334D01*
X0119623Y0088735D02*
X0057048Y0088735D01*
X0055603Y0088137D02*
X0238588Y0088137D01*
X0238456Y0088735D02*
X0126176Y0088735D01*
X0127621Y0089334D02*
X0238456Y0089334D01*
X0238456Y0089932D02*
X0128710Y0089932D01*
X0129308Y0090531D02*
X0238456Y0090531D01*
X0238456Y0091129D02*
X0129907Y0091129D01*
X0130505Y0091728D02*
X0238624Y0091728D01*
X0238872Y0092326D02*
X0131104Y0092326D01*
X0131418Y0092925D02*
X0239120Y0092925D01*
X0239368Y0093523D02*
X0131666Y0093523D01*
X0131914Y0094122D02*
X0239707Y0094122D01*
X0240306Y0094720D02*
X0132162Y0094720D01*
X0132410Y0095319D02*
X0240042Y0095319D01*
X0239507Y0095917D02*
X0132658Y0095917D01*
X0132711Y0096516D02*
X0239259Y0096516D01*
X0239011Y0097114D02*
X0132711Y0097114D01*
X0132711Y0097713D02*
X0238763Y0097713D01*
X0238515Y0098311D02*
X0132711Y0098311D01*
X0132711Y0098910D02*
X0238456Y0098910D01*
X0238456Y0099508D02*
X0132711Y0099508D01*
X0132646Y0100107D02*
X0238456Y0100107D01*
X0238456Y0100705D02*
X0132398Y0100705D01*
X0132151Y0101304D02*
X0238456Y0101304D01*
X0238697Y0101902D02*
X0225970Y0101902D01*
X0225642Y0101574D02*
X0230329Y0106261D01*
X0230329Y0112888D01*
X0226521Y0116696D01*
X0227329Y0117503D01*
X0227329Y0119274D01*
X0222629Y0119274D01*
X0222629Y0119874D01*
X0227329Y0119874D01*
X0227329Y0121645D01*
X0226521Y0122453D01*
X0230329Y0126261D01*
X0230329Y0132888D01*
X0228642Y0134574D01*
X0230329Y0136261D01*
X0230329Y0142888D01*
X0228642Y0144574D01*
X0230329Y0146261D01*
X0230329Y0152888D01*
X0226521Y0156696D01*
X0227329Y0157503D01*
X0227329Y0159274D01*
X0222629Y0159274D01*
X0222629Y0159874D01*
X0227329Y0159874D01*
X0227329Y0161645D01*
X0226521Y0162453D01*
X0230329Y0166261D01*
X0230329Y0172888D01*
X0228642Y0174574D01*
X0230329Y0176261D01*
X0230329Y0182888D01*
X0228642Y0184574D01*
X0230329Y0186261D01*
X0230329Y0192888D01*
X0226521Y0196696D01*
X0227329Y0197503D01*
X0227329Y0199274D01*
X0222629Y0199274D01*
X0222629Y0199874D01*
X0227329Y0199874D01*
X0227329Y0201645D01*
X0224400Y0204574D01*
X0222629Y0204574D01*
X0222629Y0199874D01*
X0222029Y0199874D01*
X0222029Y0199274D01*
X0217329Y0199274D01*
X0217329Y0197503D01*
X0218136Y0196696D01*
X0214329Y0192888D01*
X0214329Y0186261D01*
X0216015Y0184574D01*
X0214526Y0183086D01*
X0210762Y0186850D01*
X0210719Y0186850D01*
X0211921Y0188052D01*
X0211921Y0189450D01*
X0208121Y0189450D01*
X0208121Y0190050D01*
X0211921Y0190050D01*
X0211921Y0191448D01*
X0209519Y0193850D01*
X0208121Y0193850D01*
X0208121Y0190050D01*
X0207521Y0190050D01*
X0207521Y0193850D01*
X0206123Y0193850D01*
X0203721Y0191448D01*
X0203721Y0190050D01*
X0207521Y0190050D01*
X0207521Y0189450D01*
X0203721Y0189450D01*
X0203721Y0188052D01*
X0204923Y0186850D01*
X0204880Y0186850D01*
X0202624Y0184594D01*
X0200368Y0186850D01*
X0200325Y0186850D01*
X0201527Y0188052D01*
X0201527Y0189450D01*
X0197727Y0189450D01*
X0197727Y0190050D01*
X0197127Y0190050D01*
X0197127Y0189450D01*
X0193327Y0189450D01*
X0193327Y0188052D01*
X0194529Y0186850D01*
X0194486Y0186850D01*
X0190327Y0182691D01*
X0190327Y0176809D01*
X0194486Y0172650D01*
X0200368Y0172650D01*
X0202624Y0174906D01*
X0204880Y0172650D01*
X0210762Y0172650D01*
X0214351Y0176239D01*
X0216015Y0174574D01*
X0214329Y0172888D01*
X0214329Y0166261D01*
X0218136Y0162453D01*
X0217329Y0161645D01*
X0217329Y0159874D01*
X0222029Y0159874D01*
X0222029Y0159274D01*
X0217329Y0159274D01*
X0217329Y0157503D01*
X0218136Y0156696D01*
X0214329Y0152888D01*
X0214329Y0146261D01*
X0216015Y0144574D01*
X0214644Y0143204D01*
X0210998Y0146850D01*
X0205116Y0146850D01*
X0202427Y0144161D01*
X0199738Y0146850D01*
X0193856Y0146850D01*
X0189697Y0142691D01*
X0189697Y0136809D01*
X0193856Y0132650D01*
X0193899Y0132650D01*
X0192697Y0131448D01*
X0192697Y0130050D01*
X0196497Y0130050D01*
X0196497Y0129450D01*
X0192697Y0129450D01*
X0192697Y0128052D01*
X0195099Y0125650D01*
X0196497Y0125650D01*
X0196497Y0129450D01*
X0197097Y0129450D01*
X0197097Y0125650D01*
X0198496Y0125650D01*
X0200897Y0128052D01*
X0200897Y0129450D01*
X0197097Y0129450D01*
X0197097Y0130050D01*
X0200897Y0130050D01*
X0200897Y0131448D01*
X0199695Y0132650D01*
X0199738Y0132650D01*
X0202427Y0135339D01*
X0205116Y0132650D01*
X0205159Y0132650D01*
X0203957Y0131448D01*
X0203957Y0130050D01*
X0207757Y0130050D01*
X0207757Y0129450D01*
X0203957Y0129450D01*
X0203957Y0128052D01*
X0206359Y0125650D01*
X0207757Y0125650D01*
X0207757Y0129450D01*
X0208357Y0129450D01*
X0208357Y0125650D01*
X0209755Y0125650D01*
X0212157Y0128052D01*
X0212157Y0129450D01*
X0208357Y0129450D01*
X0208357Y0130050D01*
X0212157Y0130050D01*
X0212157Y0131448D01*
X0210955Y0132650D01*
X0210998Y0132650D01*
X0214469Y0136121D01*
X0216015Y0134574D01*
X0214329Y0132888D01*
X0214329Y0126261D01*
X0218136Y0122453D01*
X0217329Y0121645D01*
X0217329Y0119874D01*
X0222029Y0119874D01*
X0222029Y0119274D01*
X0217329Y0119274D01*
X0217329Y0117503D01*
X0218136Y0116696D01*
X0214329Y0112888D01*
X0214329Y0106261D01*
X0219015Y0101574D01*
X0225642Y0101574D01*
X0226569Y0102501D02*
X0238945Y0102501D01*
X0239193Y0103099D02*
X0227167Y0103099D01*
X0227766Y0103698D02*
X0239440Y0103698D01*
X0239882Y0104296D02*
X0228364Y0104296D01*
X0228963Y0104895D02*
X0240466Y0104895D01*
X0239868Y0105493D02*
X0229561Y0105493D01*
X0230160Y0106092D02*
X0239435Y0106092D01*
X0239187Y0106690D02*
X0230329Y0106690D01*
X0230329Y0107289D02*
X0238939Y0107289D01*
X0238691Y0107887D02*
X0230329Y0107887D01*
X0230329Y0108486D02*
X0238456Y0108486D01*
X0238456Y0109084D02*
X0230329Y0109084D01*
X0230329Y0109683D02*
X0238456Y0109683D01*
X0238456Y0110282D02*
X0230329Y0110282D01*
X0230329Y0110880D02*
X0238456Y0110880D01*
X0238521Y0111479D02*
X0230329Y0111479D01*
X0230329Y0112077D02*
X0238769Y0112077D01*
X0239017Y0112676D02*
X0230329Y0112676D01*
X0229943Y0113274D02*
X0239265Y0113274D01*
X0239513Y0113873D02*
X0229344Y0113873D01*
X0228746Y0114471D02*
X0240056Y0114471D01*
X0240291Y0115070D02*
X0228147Y0115070D01*
X0227549Y0115668D02*
X0239693Y0115668D01*
X0239362Y0116267D02*
X0226950Y0116267D01*
X0226691Y0116865D02*
X0239114Y0116865D01*
X0238866Y0117464D02*
X0227289Y0117464D01*
X0227329Y0118062D02*
X0238618Y0118062D01*
X0238456Y0118661D02*
X0227329Y0118661D01*
X0227329Y0119259D02*
X0238456Y0119259D01*
X0238456Y0119858D02*
X0222629Y0119858D01*
X0222029Y0119858D02*
X0160829Y0119858D01*
X0160829Y0120456D02*
X0217329Y0120456D01*
X0217329Y0121055D02*
X0160829Y0121055D01*
X0160829Y0121653D02*
X0217337Y0121653D01*
X0217935Y0122252D02*
X0160829Y0122252D01*
X0160829Y0122788D02*
X0159142Y0124474D01*
X0160829Y0126161D01*
X0160829Y0132788D01*
X0159142Y0134474D01*
X0160829Y0136161D01*
X0160829Y0142788D01*
X0159142Y0144474D01*
X0160829Y0146161D01*
X0160829Y0152788D01*
X0159142Y0154474D01*
X0160829Y0156161D01*
X0160829Y0162788D01*
X0159142Y0164474D01*
X0160829Y0166161D01*
X0160829Y0172788D01*
X0159142Y0174474D01*
X0160829Y0176161D01*
X0160829Y0182788D01*
X0159142Y0184474D01*
X0160829Y0186161D01*
X0160829Y0192788D01*
X0159142Y0194474D01*
X0160829Y0196161D01*
X0160829Y0202788D01*
X0156142Y0207474D01*
X0149515Y0207474D01*
X0147104Y0205063D01*
X0147104Y0207915D01*
X0147195Y0208461D01*
X0147104Y0208861D01*
X0147104Y0209271D01*
X0146892Y0209782D01*
X0146768Y0210322D01*
X0146530Y0210656D01*
X0146373Y0211035D01*
X0145981Y0211427D01*
X0145660Y0211878D01*
X0145313Y0212095D01*
X0145023Y0212385D01*
X0144511Y0212597D01*
X0135833Y0218032D01*
X0135543Y0218322D01*
X0135032Y0218533D01*
X0134562Y0218827D01*
X0134158Y0218895D01*
X0133779Y0219052D01*
X0133225Y0219052D01*
X0132679Y0219144D01*
X0132280Y0219052D01*
X0053871Y0219052D01*
X0053856Y0219059D01*
X0052918Y0219052D01*
X0051979Y0219052D01*
X0051963Y0219046D01*
X0051946Y0219046D01*
X0051082Y0218681D01*
X0050214Y0218322D01*
X0050202Y0218310D01*
X0050187Y0218303D01*
X0049528Y0217635D01*
X0048864Y0216971D01*
X0048858Y0216956D01*
X0043796Y0211824D01*
X0043132Y0211160D01*
X0043125Y0211145D01*
X0043114Y0211133D01*
X0042760Y0210263D01*
X0042401Y0209396D01*
X0042401Y0209379D01*
X0042395Y0209364D01*
X0042401Y0208425D01*
X0042403Y0196604D01*
X0040637Y0198370D01*
X0037954Y0199481D01*
X0035050Y0199481D01*
X0032367Y0198370D01*
X0030313Y0196316D01*
X0029767Y0194997D01*
X0029303Y0195461D01*
X0028756Y0195859D01*
X0028153Y0196166D01*
X0027509Y0196375D01*
X0026840Y0196481D01*
X0026802Y0196481D01*
X0026802Y0192481D01*
X0026202Y0192481D01*
X0026202Y0191881D01*
X0022202Y0191881D01*
X0022202Y0191843D01*
X0022308Y0191174D01*
X0022517Y0190530D01*
X0022824Y0189927D01*
X0023222Y0189380D01*
X0023686Y0188916D01*
X0022367Y0188370D01*
X0020313Y0186316D01*
X0019202Y0183633D01*
X0019202Y0180729D01*
X0020313Y0178046D01*
X0021178Y0177181D01*
X0020313Y0176316D01*
X0019202Y0173633D01*
X0019202Y0170729D01*
X0020313Y0168046D01*
X0021178Y0167181D01*
X0020313Y0166316D01*
X0019202Y0163633D01*
X0019202Y0160729D01*
X0020313Y0158046D01*
X0021178Y0157181D01*
X0020313Y0156316D01*
X0019202Y0153633D01*
X0019202Y0150729D01*
X0020313Y0148046D01*
X0021178Y0147181D01*
X0020313Y0146316D01*
X0019202Y0143633D01*
X0019202Y0140729D01*
X0020313Y0138046D01*
X0022367Y0135992D01*
X0025050Y0134881D01*
X0027954Y0134881D01*
X0030637Y0135992D01*
X0031502Y0136857D01*
X0032367Y0135992D01*
X0035050Y0134881D01*
X0037954Y0134881D01*
X0040637Y0135992D01*
X0042691Y0138046D01*
X0043802Y0140729D01*
X0043802Y0143633D01*
X0042691Y0146316D01*
X0041826Y0147181D01*
X0042691Y0148046D01*
X0043455Y0149891D01*
X0050070Y0149891D01*
X0050629Y0149800D01*
X0051016Y0149891D01*
X0051413Y0149891D01*
X0051936Y0150108D01*
X0052487Y0150237D01*
X0052810Y0150470D01*
X0053178Y0150622D01*
X0053578Y0151022D01*
X0057775Y0154043D01*
X0065497Y0159498D01*
X0065884Y0159658D01*
X0066269Y0160043D01*
X0066714Y0160358D01*
X0066938Y0160712D01*
X0067234Y0161008D01*
X0067443Y0161512D01*
X0067734Y0161973D01*
X0067805Y0162385D01*
X0067965Y0162772D01*
X0067965Y0163317D01*
X0068057Y0163854D01*
X0067965Y0164263D01*
X0067966Y0193434D01*
X0068742Y0194275D01*
X0092493Y0194268D01*
X0092271Y0193832D01*
X0092062Y0193188D01*
X0091956Y0192520D01*
X0091956Y0192481D01*
X0095956Y0192481D01*
X0095956Y0191881D01*
X0091956Y0191881D01*
X0091956Y0191843D01*
X0092062Y0191174D01*
X0092271Y0190530D01*
X0092578Y0189927D01*
X0092976Y0189380D01*
X0093440Y0188916D01*
X0092121Y0188370D01*
X0090067Y0186316D01*
X0088956Y0183633D01*
X0088956Y0180729D01*
X0090067Y0178046D01*
X0090932Y0177181D01*
X0090067Y0176316D01*
X0088956Y0173633D01*
X0088956Y0170729D01*
X0090067Y0168046D01*
X0090932Y0167181D01*
X0090067Y0166316D01*
X0088956Y0163633D01*
X0088956Y0160729D01*
X0090067Y0158046D01*
X0090932Y0157181D01*
X0090067Y0156316D01*
X0088956Y0153633D01*
X0088956Y0150729D01*
X0090067Y0148046D01*
X0090932Y0147181D01*
X0090067Y0146316D01*
X0088956Y0143633D01*
X0088956Y0140729D01*
X0090067Y0138046D01*
X0092121Y0135992D01*
X0094804Y0134881D01*
X0097708Y0134881D01*
X0100391Y0135992D01*
X0101256Y0136857D01*
X0102121Y0135992D01*
X0104804Y0134881D01*
X0107708Y0134881D01*
X0110391Y0135992D01*
X0112445Y0138046D01*
X0113556Y0140729D01*
X0113556Y0143633D01*
X0112445Y0146316D01*
X0111580Y0147181D01*
X0112445Y0148046D01*
X0113556Y0150729D01*
X0113556Y0153633D01*
X0112445Y0156316D01*
X0111580Y0157181D01*
X0112445Y0158046D01*
X0113556Y0160729D01*
X0113556Y0163633D01*
X0112445Y0166316D01*
X0111580Y0167181D01*
X0112445Y0168046D01*
X0113556Y0170729D01*
X0113556Y0173633D01*
X0112445Y0176316D01*
X0111580Y0177181D01*
X0112445Y0178046D01*
X0113556Y0180729D01*
X0113556Y0183633D01*
X0112445Y0186316D01*
X0111580Y0187181D01*
X0112445Y0188046D01*
X0113556Y0190729D01*
X0113556Y0193633D01*
X0113295Y0194262D01*
X0120309Y0194260D01*
X0121137Y0193508D01*
X0121137Y0167858D01*
X0121090Y0167043D01*
X0121137Y0166908D01*
X0121137Y0166765D01*
X0121449Y0166010D01*
X0121717Y0165239D01*
X0121813Y0165133D01*
X0121867Y0165000D01*
X0122445Y0164423D01*
X0134923Y0150417D01*
X0134977Y0150285D01*
X0135555Y0149707D01*
X0136098Y0149098D01*
X0136227Y0149035D01*
X0136328Y0148934D01*
X0137082Y0148622D01*
X0137817Y0148267D01*
X0137960Y0148258D01*
X0138092Y0148204D01*
X0138908Y0148204D01*
X0139723Y0148157D01*
X0139858Y0148204D01*
X0144829Y0148204D01*
X0144829Y0146161D01*
X0146515Y0144474D01*
X0144829Y0142788D01*
X0144829Y0136161D01*
X0146515Y0134474D01*
X0144829Y0132788D01*
X0144829Y0126161D01*
X0146515Y0124474D01*
X0144829Y0122788D01*
X0144829Y0116161D01*
X0146515Y0114474D01*
X0144829Y0112788D01*
X0144829Y0106161D01*
X0149515Y0101474D01*
X0156142Y0101474D01*
X0160829Y0106161D01*
X0160829Y0112788D01*
X0159142Y0114474D01*
X0160829Y0116161D01*
X0160829Y0122788D01*
X0160767Y0122850D02*
X0217739Y0122850D01*
X0217141Y0123449D02*
X0160168Y0123449D01*
X0159570Y0124047D02*
X0216542Y0124047D01*
X0215944Y0124646D02*
X0159314Y0124646D01*
X0159912Y0125244D02*
X0215345Y0125244D01*
X0214747Y0125843D02*
X0209948Y0125843D01*
X0210547Y0126441D02*
X0214329Y0126441D01*
X0214329Y0127040D02*
X0211145Y0127040D01*
X0211744Y0127638D02*
X0214329Y0127638D01*
X0214329Y0128237D02*
X0212157Y0128237D01*
X0212157Y0128835D02*
X0214329Y0128835D01*
X0214329Y0129434D02*
X0212157Y0129434D01*
X0212157Y0130631D02*
X0214329Y0130631D01*
X0214329Y0131229D02*
X0212157Y0131229D01*
X0211777Y0131828D02*
X0214329Y0131828D01*
X0214329Y0132426D02*
X0211179Y0132426D01*
X0211373Y0133025D02*
X0214466Y0133025D01*
X0215064Y0133623D02*
X0211971Y0133623D01*
X0212570Y0134222D02*
X0215663Y0134222D01*
X0215769Y0134820D02*
X0213168Y0134820D01*
X0213767Y0135419D02*
X0215170Y0135419D01*
X0214572Y0136017D02*
X0214365Y0136017D01*
X0214329Y0130032D02*
X0208357Y0130032D01*
X0208357Y0129434D02*
X0207757Y0129434D01*
X0207757Y0130032D02*
X0197097Y0130032D01*
X0197097Y0129434D02*
X0196497Y0129434D01*
X0196497Y0130032D02*
X0160829Y0130032D01*
X0160829Y0129434D02*
X0192697Y0129434D01*
X0192697Y0128835D02*
X0160829Y0128835D01*
X0160829Y0128237D02*
X0192697Y0128237D01*
X0193111Y0127638D02*
X0160829Y0127638D01*
X0160829Y0127040D02*
X0193709Y0127040D01*
X0194308Y0126441D02*
X0160829Y0126441D01*
X0160511Y0125843D02*
X0194906Y0125843D01*
X0196497Y0125843D02*
X0197097Y0125843D01*
X0197097Y0126441D02*
X0196497Y0126441D01*
X0196497Y0127040D02*
X0197097Y0127040D01*
X0197097Y0127638D02*
X0196497Y0127638D01*
X0196497Y0128237D02*
X0197097Y0128237D01*
X0197097Y0128835D02*
X0196497Y0128835D01*
X0199287Y0126441D02*
X0205567Y0126441D01*
X0204969Y0127040D02*
X0199885Y0127040D01*
X0200484Y0127638D02*
X0204370Y0127638D01*
X0203957Y0128237D02*
X0200897Y0128237D01*
X0200897Y0128835D02*
X0203957Y0128835D01*
X0203957Y0129434D02*
X0200897Y0129434D01*
X0200897Y0130631D02*
X0203957Y0130631D01*
X0203957Y0131229D02*
X0200897Y0131229D01*
X0200518Y0131828D02*
X0204337Y0131828D01*
X0204935Y0132426D02*
X0199919Y0132426D01*
X0200113Y0133025D02*
X0204741Y0133025D01*
X0204143Y0133623D02*
X0200712Y0133623D01*
X0201310Y0134222D02*
X0203544Y0134222D01*
X0202946Y0134820D02*
X0201909Y0134820D01*
X0193675Y0132426D02*
X0160829Y0132426D01*
X0160829Y0131828D02*
X0193077Y0131828D01*
X0192697Y0131229D02*
X0160829Y0131229D01*
X0160829Y0130631D02*
X0192697Y0130631D01*
X0193481Y0133025D02*
X0160592Y0133025D01*
X0159993Y0133623D02*
X0192883Y0133623D01*
X0192284Y0134222D02*
X0159395Y0134222D01*
X0159488Y0134820D02*
X0191686Y0134820D01*
X0191087Y0135419D02*
X0160087Y0135419D01*
X0160686Y0136017D02*
X0190489Y0136017D01*
X0189890Y0136616D02*
X0160829Y0136616D01*
X0160829Y0137215D02*
X0189697Y0137215D01*
X0189697Y0137813D02*
X0160829Y0137813D01*
X0160829Y0138412D02*
X0189697Y0138412D01*
X0189697Y0139010D02*
X0160829Y0139010D01*
X0160829Y0139609D02*
X0189697Y0139609D01*
X0189697Y0140207D02*
X0160829Y0140207D01*
X0160829Y0140806D02*
X0189697Y0140806D01*
X0189697Y0141404D02*
X0160829Y0141404D01*
X0160829Y0142003D02*
X0189697Y0142003D01*
X0189697Y0142601D02*
X0160829Y0142601D01*
X0160417Y0143200D02*
X0190206Y0143200D01*
X0190804Y0143798D02*
X0159819Y0143798D01*
X0159220Y0144397D02*
X0191403Y0144397D01*
X0192002Y0144995D02*
X0159663Y0144995D01*
X0160262Y0145594D02*
X0192600Y0145594D01*
X0193199Y0146192D02*
X0160829Y0146192D01*
X0160829Y0146791D02*
X0193797Y0146791D01*
X0199797Y0146791D02*
X0205057Y0146791D01*
X0204458Y0146192D02*
X0200396Y0146192D01*
X0200994Y0145594D02*
X0203860Y0145594D01*
X0203261Y0144995D02*
X0201593Y0144995D01*
X0202191Y0144397D02*
X0202663Y0144397D01*
X0211057Y0146791D02*
X0214329Y0146791D01*
X0214329Y0147389D02*
X0160829Y0147389D01*
X0160829Y0147988D02*
X0214329Y0147988D01*
X0214329Y0148586D02*
X0160829Y0148586D01*
X0160829Y0149185D02*
X0214329Y0149185D01*
X0214329Y0149783D02*
X0160829Y0149783D01*
X0160829Y0150382D02*
X0214329Y0150382D01*
X0214329Y0150980D02*
X0160829Y0150980D01*
X0160829Y0151579D02*
X0214329Y0151579D01*
X0214329Y0152177D02*
X0160829Y0152177D01*
X0160829Y0152776D02*
X0214329Y0152776D01*
X0214815Y0153374D02*
X0160243Y0153374D01*
X0159644Y0153973D02*
X0215413Y0153973D01*
X0216012Y0154571D02*
X0159239Y0154571D01*
X0159838Y0155170D02*
X0216611Y0155170D01*
X0217209Y0155768D02*
X0160436Y0155768D01*
X0160829Y0156367D02*
X0217808Y0156367D01*
X0217867Y0156965D02*
X0160829Y0156965D01*
X0160829Y0157564D02*
X0217329Y0157564D01*
X0217329Y0158162D02*
X0160829Y0158162D01*
X0160829Y0158761D02*
X0217329Y0158761D01*
X0217329Y0159958D02*
X0160829Y0159958D01*
X0160829Y0160556D02*
X0217329Y0160556D01*
X0217329Y0161155D02*
X0160829Y0161155D01*
X0160829Y0161753D02*
X0217437Y0161753D01*
X0218035Y0162352D02*
X0160829Y0162352D01*
X0160666Y0162951D02*
X0217639Y0162951D01*
X0217040Y0163549D02*
X0160068Y0163549D01*
X0159469Y0164148D02*
X0216442Y0164148D01*
X0215843Y0164746D02*
X0159414Y0164746D01*
X0160013Y0165345D02*
X0215245Y0165345D01*
X0214646Y0165943D02*
X0160611Y0165943D01*
X0160829Y0166542D02*
X0214329Y0166542D01*
X0214329Y0167140D02*
X0160829Y0167140D01*
X0160829Y0167739D02*
X0214329Y0167739D01*
X0214329Y0168337D02*
X0160829Y0168337D01*
X0160829Y0168936D02*
X0214329Y0168936D01*
X0214329Y0169534D02*
X0160829Y0169534D01*
X0160829Y0170133D02*
X0214329Y0170133D01*
X0214329Y0170731D02*
X0160829Y0170731D01*
X0160829Y0171330D02*
X0214329Y0171330D01*
X0214329Y0171928D02*
X0160829Y0171928D01*
X0160829Y0172527D02*
X0214329Y0172527D01*
X0214566Y0173125D02*
X0211237Y0173125D01*
X0211835Y0173724D02*
X0215164Y0173724D01*
X0215763Y0174322D02*
X0212434Y0174322D01*
X0213032Y0174921D02*
X0215669Y0174921D01*
X0215070Y0175519D02*
X0213631Y0175519D01*
X0214230Y0176118D02*
X0214472Y0176118D01*
X0214312Y0183300D02*
X0214741Y0183300D01*
X0215339Y0183898D02*
X0213713Y0183898D01*
X0213115Y0184497D02*
X0215938Y0184497D01*
X0215494Y0185095D02*
X0212516Y0185095D01*
X0211918Y0185694D02*
X0214896Y0185694D01*
X0214329Y0186292D02*
X0211319Y0186292D01*
X0210760Y0186891D02*
X0214329Y0186891D01*
X0214329Y0187489D02*
X0211359Y0187489D01*
X0211921Y0188088D02*
X0214329Y0188088D01*
X0214329Y0188686D02*
X0211921Y0188686D01*
X0211921Y0189285D02*
X0214329Y0189285D01*
X0214329Y0189884D02*
X0208121Y0189884D01*
X0208121Y0190482D02*
X0207521Y0190482D01*
X0207521Y0189884D02*
X0197727Y0189884D01*
X0197727Y0190050D02*
X0201527Y0190050D01*
X0201527Y0191448D01*
X0199125Y0193850D01*
X0197727Y0193850D01*
X0197727Y0190050D01*
X0197727Y0190482D02*
X0197127Y0190482D01*
X0197127Y0190050D02*
X0197127Y0193850D01*
X0195729Y0193850D01*
X0193327Y0191448D01*
X0193327Y0190050D01*
X0197127Y0190050D01*
X0197127Y0189884D02*
X0160829Y0189884D01*
X0160829Y0190482D02*
X0193327Y0190482D01*
X0193327Y0191081D02*
X0160829Y0191081D01*
X0160829Y0191679D02*
X0193558Y0191679D01*
X0194156Y0192278D02*
X0160829Y0192278D01*
X0160741Y0192876D02*
X0194755Y0192876D01*
X0195353Y0193475D02*
X0160142Y0193475D01*
X0159544Y0194073D02*
X0215514Y0194073D01*
X0216112Y0194672D02*
X0159340Y0194672D01*
X0159938Y0195270D02*
X0216711Y0195270D01*
X0217309Y0195869D02*
X0160537Y0195869D01*
X0160829Y0196467D02*
X0217908Y0196467D01*
X0217766Y0197066D02*
X0160829Y0197066D01*
X0160829Y0197664D02*
X0217329Y0197664D01*
X0217329Y0198263D02*
X0160829Y0198263D01*
X0160829Y0198861D02*
X0217329Y0198861D01*
X0217329Y0199874D02*
X0222029Y0199874D01*
X0222029Y0204574D01*
X0220258Y0204574D01*
X0217329Y0201645D01*
X0217329Y0199874D01*
X0217329Y0200058D02*
X0160829Y0200058D01*
X0160829Y0199460D02*
X0222029Y0199460D01*
X0222029Y0200058D02*
X0222629Y0200058D01*
X0222629Y0199460D02*
X0238456Y0199460D01*
X0238456Y0200058D02*
X0227329Y0200058D01*
X0227329Y0200657D02*
X0238456Y0200657D01*
X0238456Y0201255D02*
X0227329Y0201255D01*
X0227120Y0201854D02*
X0238677Y0201854D01*
X0238925Y0202452D02*
X0226522Y0202452D01*
X0225923Y0203051D02*
X0239172Y0203051D01*
X0239420Y0203649D02*
X0225325Y0203649D01*
X0224726Y0204248D02*
X0239833Y0204248D01*
X0240432Y0204846D02*
X0158771Y0204846D01*
X0159369Y0204248D02*
X0219931Y0204248D01*
X0219333Y0203649D02*
X0159968Y0203649D01*
X0160566Y0203051D02*
X0218734Y0203051D01*
X0218136Y0202452D02*
X0160829Y0202452D01*
X0160829Y0201854D02*
X0217537Y0201854D01*
X0217329Y0201255D02*
X0160829Y0201255D01*
X0160829Y0200657D02*
X0217329Y0200657D01*
X0222029Y0200657D02*
X0222629Y0200657D01*
X0222629Y0201255D02*
X0222029Y0201255D01*
X0222029Y0201854D02*
X0222629Y0201854D01*
X0222629Y0202452D02*
X0222029Y0202452D01*
X0222029Y0203051D02*
X0222629Y0203051D01*
X0222629Y0203649D02*
X0222029Y0203649D01*
X0222029Y0204248D02*
X0222629Y0204248D01*
X0227329Y0198861D02*
X0238456Y0198861D01*
X0238535Y0198263D02*
X0227329Y0198263D01*
X0227329Y0197664D02*
X0238783Y0197664D01*
X0239031Y0197066D02*
X0226891Y0197066D01*
X0226750Y0196467D02*
X0239279Y0196467D01*
X0239527Y0195869D02*
X0227348Y0195869D01*
X0227947Y0195270D02*
X0240091Y0195270D01*
X0240257Y0194672D02*
X0228545Y0194672D01*
X0229144Y0194073D02*
X0239658Y0194073D01*
X0239348Y0193475D02*
X0229742Y0193475D01*
X0230329Y0192876D02*
X0239100Y0192876D01*
X0238852Y0192278D02*
X0230329Y0192278D01*
X0230329Y0191679D02*
X0238604Y0191679D01*
X0238456Y0191081D02*
X0230329Y0191081D01*
X0230329Y0190482D02*
X0238456Y0190482D01*
X0238456Y0189884D02*
X0230329Y0189884D01*
X0230329Y0189285D02*
X0238456Y0189285D01*
X0238456Y0188686D02*
X0230329Y0188686D01*
X0230329Y0188088D02*
X0238608Y0188088D01*
X0238856Y0187489D02*
X0230329Y0187489D01*
X0230329Y0186891D02*
X0239104Y0186891D01*
X0239352Y0186292D02*
X0230329Y0186292D01*
X0229762Y0185694D02*
X0239667Y0185694D01*
X0240266Y0185095D02*
X0229163Y0185095D01*
X0228720Y0184497D02*
X0240082Y0184497D01*
X0239524Y0183898D02*
X0229318Y0183898D01*
X0229917Y0183300D02*
X0239276Y0183300D01*
X0239028Y0182701D02*
X0230329Y0182701D01*
X0230329Y0182103D02*
X0238780Y0182103D01*
X0238532Y0181504D02*
X0230329Y0181504D01*
X0230329Y0180906D02*
X0238456Y0180906D01*
X0238456Y0180307D02*
X0230329Y0180307D01*
X0230329Y0179709D02*
X0238456Y0179709D01*
X0238456Y0179110D02*
X0230329Y0179110D01*
X0230329Y0178512D02*
X0238456Y0178512D01*
X0238680Y0177913D02*
X0230329Y0177913D01*
X0230329Y0177315D02*
X0238928Y0177315D01*
X0239176Y0176716D02*
X0230329Y0176716D01*
X0230186Y0176118D02*
X0239424Y0176118D01*
X0239842Y0175519D02*
X0229587Y0175519D01*
X0228989Y0174921D02*
X0240440Y0174921D01*
X0239908Y0174322D02*
X0228895Y0174322D01*
X0229493Y0173724D02*
X0239451Y0173724D01*
X0239203Y0173125D02*
X0230092Y0173125D01*
X0230329Y0172527D02*
X0238955Y0172527D01*
X0238707Y0171928D02*
X0230329Y0171928D01*
X0230329Y0171330D02*
X0238460Y0171330D01*
X0238456Y0170731D02*
X0230329Y0170731D01*
X0230329Y0170133D02*
X0238456Y0170133D01*
X0238456Y0169534D02*
X0230329Y0169534D01*
X0230329Y0168936D02*
X0238456Y0168936D01*
X0238505Y0168337D02*
X0230329Y0168337D01*
X0230329Y0167739D02*
X0238753Y0167739D01*
X0239000Y0167140D02*
X0230329Y0167140D01*
X0230329Y0166542D02*
X0239248Y0166542D01*
X0239496Y0165943D02*
X0230011Y0165943D01*
X0229413Y0165345D02*
X0240016Y0165345D01*
X0240331Y0164746D02*
X0228814Y0164746D01*
X0228216Y0164148D02*
X0239733Y0164148D01*
X0239379Y0163549D02*
X0227617Y0163549D01*
X0227019Y0162951D02*
X0239131Y0162951D01*
X0238883Y0162352D02*
X0226622Y0162352D01*
X0227221Y0161753D02*
X0238635Y0161753D01*
X0238456Y0161155D02*
X0227329Y0161155D01*
X0227329Y0160556D02*
X0238456Y0160556D01*
X0238456Y0159958D02*
X0227329Y0159958D01*
X0227329Y0158761D02*
X0238456Y0158761D01*
X0238456Y0159359D02*
X0222629Y0159359D01*
X0222029Y0159359D02*
X0160829Y0159359D01*
X0144829Y0147988D02*
X0112386Y0147988D01*
X0112668Y0148586D02*
X0137156Y0148586D01*
X0136020Y0149185D02*
X0112916Y0149185D01*
X0113164Y0149783D02*
X0135479Y0149783D01*
X0134937Y0150382D02*
X0113412Y0150382D01*
X0113556Y0150980D02*
X0134421Y0150980D01*
X0133887Y0151579D02*
X0113556Y0151579D01*
X0113556Y0152177D02*
X0133354Y0152177D01*
X0132821Y0152776D02*
X0113556Y0152776D01*
X0113556Y0153374D02*
X0132288Y0153374D01*
X0131755Y0153973D02*
X0113415Y0153973D01*
X0113167Y0154571D02*
X0131221Y0154571D01*
X0130688Y0155170D02*
X0112919Y0155170D01*
X0112671Y0155768D02*
X0130155Y0155768D01*
X0129622Y0156367D02*
X0112394Y0156367D01*
X0111795Y0156965D02*
X0129089Y0156965D01*
X0128555Y0157564D02*
X0111962Y0157564D01*
X0112493Y0158162D02*
X0128022Y0158162D01*
X0127489Y0158761D02*
X0112741Y0158761D01*
X0112989Y0159359D02*
X0126956Y0159359D01*
X0126423Y0159958D02*
X0113236Y0159958D01*
X0113484Y0160556D02*
X0125889Y0160556D01*
X0125356Y0161155D02*
X0113556Y0161155D01*
X0113556Y0161753D02*
X0124823Y0161753D01*
X0124290Y0162352D02*
X0113556Y0162352D01*
X0113556Y0162951D02*
X0123757Y0162951D01*
X0123223Y0163549D02*
X0113556Y0163549D01*
X0113343Y0164148D02*
X0122690Y0164148D01*
X0122122Y0164746D02*
X0113095Y0164746D01*
X0112847Y0165345D02*
X0121681Y0165345D01*
X0121472Y0165943D02*
X0112599Y0165943D01*
X0112219Y0166542D02*
X0121229Y0166542D01*
X0121095Y0167140D02*
X0111621Y0167140D01*
X0112137Y0167739D02*
X0121130Y0167739D01*
X0121137Y0168337D02*
X0112565Y0168337D01*
X0112813Y0168936D02*
X0121137Y0168936D01*
X0121137Y0169534D02*
X0113061Y0169534D01*
X0113309Y0170133D02*
X0121137Y0170133D01*
X0121137Y0170731D02*
X0113556Y0170731D01*
X0113556Y0171330D02*
X0121137Y0171330D01*
X0121137Y0171928D02*
X0113556Y0171928D01*
X0113556Y0172527D02*
X0121137Y0172527D01*
X0121137Y0173125D02*
X0113556Y0173125D01*
X0113518Y0173724D02*
X0121137Y0173724D01*
X0121137Y0174322D02*
X0113270Y0174322D01*
X0113023Y0174921D02*
X0121137Y0174921D01*
X0121137Y0175519D02*
X0112775Y0175519D01*
X0112527Y0176118D02*
X0121137Y0176118D01*
X0121137Y0176716D02*
X0112044Y0176716D01*
X0111713Y0177315D02*
X0121137Y0177315D01*
X0121137Y0177913D02*
X0112312Y0177913D01*
X0112637Y0178512D02*
X0121137Y0178512D01*
X0121137Y0179110D02*
X0112885Y0179110D01*
X0113133Y0179709D02*
X0121137Y0179709D01*
X0121137Y0180307D02*
X0113381Y0180307D01*
X0113556Y0180906D02*
X0121137Y0180906D01*
X0121137Y0181504D02*
X0113556Y0181504D01*
X0113556Y0182103D02*
X0121137Y0182103D01*
X0121137Y0182701D02*
X0113556Y0182701D01*
X0113556Y0183300D02*
X0121137Y0183300D01*
X0121137Y0183898D02*
X0113446Y0183898D01*
X0113198Y0184497D02*
X0121137Y0184497D01*
X0121137Y0185095D02*
X0112950Y0185095D01*
X0112702Y0185694D02*
X0121137Y0185694D01*
X0121137Y0186292D02*
X0112454Y0186292D01*
X0111870Y0186891D02*
X0121137Y0186891D01*
X0121137Y0187489D02*
X0111888Y0187489D01*
X0112462Y0188088D02*
X0121137Y0188088D01*
X0121137Y0188686D02*
X0112710Y0188686D01*
X0112958Y0189285D02*
X0121137Y0189285D01*
X0121137Y0189884D02*
X0113206Y0189884D01*
X0113454Y0190482D02*
X0121137Y0190482D01*
X0121137Y0191081D02*
X0113556Y0191081D01*
X0113556Y0191679D02*
X0121137Y0191679D01*
X0121137Y0192278D02*
X0113556Y0192278D01*
X0113556Y0192876D02*
X0121137Y0192876D01*
X0121137Y0193475D02*
X0113556Y0193475D01*
X0113374Y0194073D02*
X0120515Y0194073D01*
X0095956Y0192278D02*
X0067966Y0192278D01*
X0067966Y0192876D02*
X0092012Y0192876D01*
X0092155Y0193475D02*
X0068003Y0193475D01*
X0068556Y0194073D02*
X0092394Y0194073D01*
X0091982Y0191679D02*
X0067966Y0191679D01*
X0067966Y0191081D02*
X0092092Y0191081D01*
X0092296Y0190482D02*
X0067966Y0190482D01*
X0067966Y0189884D02*
X0092610Y0189884D01*
X0093071Y0189285D02*
X0067966Y0189285D01*
X0067966Y0188686D02*
X0092886Y0188686D01*
X0091839Y0188088D02*
X0067966Y0188088D01*
X0067966Y0187489D02*
X0091241Y0187489D01*
X0090642Y0186891D02*
X0067966Y0186891D01*
X0067966Y0186292D02*
X0090057Y0186292D01*
X0089810Y0185694D02*
X0067966Y0185694D01*
X0067966Y0185095D02*
X0089562Y0185095D01*
X0089314Y0184497D02*
X0067966Y0184497D01*
X0067966Y0183898D02*
X0089066Y0183898D01*
X0088956Y0183300D02*
X0067966Y0183300D01*
X0067965Y0182701D02*
X0088956Y0182701D01*
X0088956Y0182103D02*
X0067965Y0182103D01*
X0067965Y0181504D02*
X0088956Y0181504D01*
X0088956Y0180906D02*
X0067965Y0180906D01*
X0067965Y0180307D02*
X0089131Y0180307D01*
X0089378Y0179709D02*
X0067965Y0179709D01*
X0067965Y0179110D02*
X0089626Y0179110D01*
X0089874Y0178512D02*
X0067965Y0178512D01*
X0067965Y0177913D02*
X0090200Y0177913D01*
X0090798Y0177315D02*
X0067965Y0177315D01*
X0067965Y0176716D02*
X0090467Y0176716D01*
X0089985Y0176118D02*
X0067965Y0176118D01*
X0067965Y0175519D02*
X0089737Y0175519D01*
X0089489Y0174921D02*
X0067965Y0174921D01*
X0067965Y0174322D02*
X0089241Y0174322D01*
X0088993Y0173724D02*
X0067965Y0173724D01*
X0067965Y0173125D02*
X0088956Y0173125D01*
X0088956Y0172527D02*
X0067965Y0172527D01*
X0067965Y0171928D02*
X0088956Y0171928D01*
X0088956Y0171330D02*
X0067965Y0171330D01*
X0067965Y0170731D02*
X0088956Y0170731D01*
X0089203Y0170133D02*
X0067965Y0170133D01*
X0067965Y0169534D02*
X0089451Y0169534D01*
X0089699Y0168936D02*
X0067965Y0168936D01*
X0067965Y0168337D02*
X0089947Y0168337D01*
X0090375Y0167739D02*
X0067965Y0167739D01*
X0067965Y0167140D02*
X0090891Y0167140D01*
X0090293Y0166542D02*
X0067965Y0166542D01*
X0067965Y0165943D02*
X0089913Y0165943D01*
X0089665Y0165345D02*
X0067965Y0165345D01*
X0067965Y0164746D02*
X0089417Y0164746D01*
X0089169Y0164148D02*
X0067991Y0164148D01*
X0068005Y0163549D02*
X0088956Y0163549D01*
X0088956Y0162951D02*
X0067965Y0162951D01*
X0067799Y0162352D02*
X0088956Y0162352D01*
X0088956Y0161753D02*
X0067595Y0161753D01*
X0067295Y0161155D02*
X0088956Y0161155D01*
X0089027Y0160556D02*
X0066840Y0160556D01*
X0066184Y0159958D02*
X0089275Y0159958D01*
X0089523Y0159359D02*
X0065301Y0159359D01*
X0064454Y0158761D02*
X0089771Y0158761D01*
X0090019Y0158162D02*
X0063607Y0158162D01*
X0062760Y0157564D02*
X0090549Y0157564D01*
X0090716Y0156965D02*
X0061912Y0156965D01*
X0061065Y0156367D02*
X0090118Y0156367D01*
X0089840Y0155768D02*
X0060218Y0155768D01*
X0059371Y0155170D02*
X0089592Y0155170D01*
X0089345Y0154571D02*
X0058524Y0154571D01*
X0057678Y0153973D02*
X0089097Y0153973D01*
X0088956Y0153374D02*
X0056847Y0153374D01*
X0056015Y0152776D02*
X0088956Y0152776D01*
X0088956Y0152177D02*
X0055183Y0152177D01*
X0054352Y0151579D02*
X0088956Y0151579D01*
X0088956Y0150980D02*
X0053536Y0150980D01*
X0052688Y0150382D02*
X0089100Y0150382D01*
X0089348Y0149783D02*
X0043410Y0149783D01*
X0043162Y0149185D02*
X0089596Y0149185D01*
X0089843Y0148586D02*
X0042914Y0148586D01*
X0042632Y0147988D02*
X0090126Y0147988D01*
X0090724Y0147389D02*
X0042034Y0147389D01*
X0042216Y0146791D02*
X0090542Y0146791D01*
X0090016Y0146192D02*
X0042742Y0146192D01*
X0042990Y0145594D02*
X0089768Y0145594D01*
X0089520Y0144995D02*
X0043238Y0144995D01*
X0043486Y0144397D02*
X0089272Y0144397D01*
X0089024Y0143798D02*
X0043734Y0143798D01*
X0043802Y0143200D02*
X0088956Y0143200D01*
X0088956Y0142601D02*
X0043802Y0142601D01*
X0043802Y0142003D02*
X0088956Y0142003D01*
X0088956Y0141404D02*
X0043802Y0141404D01*
X0043802Y0140806D02*
X0088956Y0140806D01*
X0089172Y0140207D02*
X0043586Y0140207D01*
X0043338Y0139609D02*
X0089420Y0139609D01*
X0089668Y0139010D02*
X0043090Y0139010D01*
X0042842Y0138412D02*
X0089916Y0138412D01*
X0090300Y0137813D02*
X0042458Y0137813D01*
X0041859Y0137215D02*
X0090899Y0137215D01*
X0091497Y0136616D02*
X0041261Y0136616D01*
X0040662Y0136017D02*
X0092096Y0136017D01*
X0093505Y0135419D02*
X0039253Y0135419D01*
X0033751Y0135419D02*
X0029253Y0135419D01*
X0030662Y0136017D02*
X0032342Y0136017D01*
X0031743Y0136616D02*
X0031261Y0136616D01*
X0023751Y0135419D02*
X0005694Y0135419D01*
X0005694Y0136017D02*
X0022342Y0136017D01*
X0021743Y0136616D02*
X0005694Y0136616D01*
X0005694Y0137215D02*
X0021145Y0137215D01*
X0020546Y0137813D02*
X0005694Y0137813D01*
X0005694Y0138412D02*
X0020162Y0138412D01*
X0019914Y0139010D02*
X0005694Y0139010D01*
X0005694Y0139609D02*
X0019666Y0139609D01*
X0019418Y0140207D02*
X0005694Y0140207D01*
X0005694Y0140806D02*
X0019202Y0140806D01*
X0019202Y0141404D02*
X0005694Y0141404D01*
X0005694Y0142003D02*
X0019202Y0142003D01*
X0019202Y0142601D02*
X0005694Y0142601D01*
X0005694Y0143200D02*
X0019202Y0143200D01*
X0019270Y0143798D02*
X0005694Y0143798D01*
X0005694Y0144397D02*
X0019518Y0144397D01*
X0019766Y0144995D02*
X0005694Y0144995D01*
X0005694Y0145594D02*
X0020014Y0145594D01*
X0020262Y0146192D02*
X0005694Y0146192D01*
X0005694Y0146791D02*
X0020788Y0146791D01*
X0020970Y0147389D02*
X0005694Y0147389D01*
X0005694Y0147988D02*
X0020372Y0147988D01*
X0020090Y0148586D02*
X0005694Y0148586D01*
X0005694Y0149185D02*
X0019842Y0149185D01*
X0019594Y0149783D02*
X0005694Y0149783D01*
X0005694Y0150382D02*
X0019346Y0150382D01*
X0019202Y0150980D02*
X0005694Y0150980D01*
X0005694Y0151579D02*
X0019202Y0151579D01*
X0019202Y0152177D02*
X0005694Y0152177D01*
X0005694Y0152776D02*
X0019202Y0152776D01*
X0019202Y0153374D02*
X0005694Y0153374D01*
X0005694Y0153973D02*
X0019343Y0153973D01*
X0019591Y0154571D02*
X0005694Y0154571D01*
X0005694Y0155170D02*
X0019838Y0155170D01*
X0020086Y0155768D02*
X0005694Y0155768D01*
X0005694Y0156367D02*
X0020364Y0156367D01*
X0020963Y0156965D02*
X0005694Y0156965D01*
X0005694Y0157564D02*
X0020795Y0157564D01*
X0020265Y0158162D02*
X0005694Y0158162D01*
X0005694Y0158761D02*
X0020017Y0158761D01*
X0019769Y0159359D02*
X0005694Y0159359D01*
X0005694Y0159958D02*
X0019521Y0159958D01*
X0019273Y0160556D02*
X0005694Y0160556D01*
X0005694Y0161155D02*
X0019202Y0161155D01*
X0019202Y0161753D02*
X0005694Y0161753D01*
X0005694Y0162352D02*
X0019202Y0162352D01*
X0019202Y0162951D02*
X0005694Y0162951D01*
X0005694Y0163549D02*
X0019202Y0163549D01*
X0019415Y0164148D02*
X0005694Y0164148D01*
X0005694Y0164746D02*
X0019663Y0164746D01*
X0019911Y0165345D02*
X0005694Y0165345D01*
X0005694Y0165943D02*
X0020159Y0165943D01*
X0020539Y0166542D02*
X0005694Y0166542D01*
X0005694Y0167140D02*
X0021137Y0167140D01*
X0020621Y0167739D02*
X0005694Y0167739D01*
X0005694Y0168337D02*
X0020193Y0168337D01*
X0019945Y0168936D02*
X0005694Y0168936D01*
X0005694Y0169534D02*
X0019697Y0169534D01*
X0019449Y0170133D02*
X0005694Y0170133D01*
X0005694Y0170731D02*
X0019202Y0170731D01*
X0019202Y0171330D02*
X0005694Y0171330D01*
X0005694Y0171928D02*
X0019202Y0171928D01*
X0019202Y0172527D02*
X0005694Y0172527D01*
X0005694Y0173125D02*
X0019202Y0173125D01*
X0019239Y0173724D02*
X0005694Y0173724D01*
X0005694Y0174322D02*
X0019487Y0174322D01*
X0019735Y0174921D02*
X0005694Y0174921D01*
X0005694Y0175519D02*
X0019983Y0175519D01*
X0020231Y0176118D02*
X0005694Y0176118D01*
X0005694Y0176716D02*
X0020713Y0176716D01*
X0021045Y0177315D02*
X0005694Y0177315D01*
X0005694Y0177913D02*
X0020446Y0177913D01*
X0020120Y0178512D02*
X0005694Y0178512D01*
X0005694Y0179110D02*
X0019872Y0179110D01*
X0019625Y0179709D02*
X0005694Y0179709D01*
X0005694Y0180307D02*
X0019377Y0180307D01*
X0019202Y0180906D02*
X0005694Y0180906D01*
X0005694Y0181504D02*
X0019202Y0181504D01*
X0019202Y0182103D02*
X0005694Y0182103D01*
X0005694Y0182701D02*
X0019202Y0182701D01*
X0019202Y0183300D02*
X0005694Y0183300D01*
X0005694Y0183898D02*
X0019312Y0183898D01*
X0019560Y0184497D02*
X0005694Y0184497D01*
X0005694Y0185095D02*
X0019808Y0185095D01*
X0020056Y0185694D02*
X0005694Y0185694D01*
X0005694Y0186292D02*
X0020303Y0186292D01*
X0020888Y0186891D02*
X0005694Y0186891D01*
X0005694Y0187489D02*
X0021487Y0187489D01*
X0022085Y0188088D02*
X0005694Y0188088D01*
X0005694Y0188686D02*
X0023132Y0188686D01*
X0023317Y0189285D02*
X0005694Y0189285D01*
X0005694Y0189884D02*
X0022856Y0189884D01*
X0022542Y0190482D02*
X0005694Y0190482D01*
X0005694Y0191081D02*
X0022338Y0191081D01*
X0022228Y0191679D02*
X0005694Y0191679D01*
X0005694Y0192278D02*
X0026202Y0192278D01*
X0026202Y0192481D02*
X0022202Y0192481D01*
X0022202Y0192520D01*
X0022308Y0193188D01*
X0022517Y0193832D01*
X0022824Y0194435D01*
X0023222Y0194982D01*
X0023701Y0195461D01*
X0024248Y0195859D01*
X0024851Y0196166D01*
X0025495Y0196375D01*
X0026164Y0196481D01*
X0026202Y0196481D01*
X0026202Y0192481D01*
X0026202Y0192876D02*
X0026802Y0192876D01*
X0026802Y0193475D02*
X0026202Y0193475D01*
X0026202Y0194073D02*
X0026802Y0194073D01*
X0026802Y0194672D02*
X0026202Y0194672D01*
X0026202Y0195270D02*
X0026802Y0195270D01*
X0026802Y0195869D02*
X0026202Y0195869D01*
X0026202Y0196467D02*
X0026802Y0196467D01*
X0026928Y0196467D02*
X0030464Y0196467D01*
X0030128Y0195869D02*
X0028736Y0195869D01*
X0029494Y0195270D02*
X0029880Y0195270D01*
X0031063Y0197066D02*
X0005694Y0197066D01*
X0005694Y0197664D02*
X0031661Y0197664D01*
X0032260Y0198263D02*
X0005694Y0198263D01*
X0005694Y0198861D02*
X0033553Y0198861D01*
X0034998Y0199460D02*
X0005694Y0199460D01*
X0005694Y0200058D02*
X0042403Y0200058D01*
X0042403Y0199460D02*
X0038006Y0199460D01*
X0039451Y0198861D02*
X0042403Y0198861D01*
X0042403Y0198263D02*
X0040744Y0198263D01*
X0041343Y0197664D02*
X0042403Y0197664D01*
X0042403Y0197066D02*
X0041941Y0197066D01*
X0042403Y0200657D02*
X0005694Y0200657D01*
X0005694Y0201255D02*
X0042402Y0201255D01*
X0042402Y0201854D02*
X0005694Y0201854D01*
X0005694Y0202452D02*
X0042402Y0202452D01*
X0042402Y0203051D02*
X0005694Y0203051D01*
X0005694Y0203649D02*
X0042402Y0203649D01*
X0042402Y0204248D02*
X0005694Y0204248D01*
X0005694Y0204846D02*
X0042402Y0204846D01*
X0042402Y0205445D02*
X0005694Y0205445D01*
X0005694Y0206043D02*
X0042402Y0206043D01*
X0042402Y0206642D02*
X0005694Y0206642D01*
X0005694Y0207240D02*
X0042402Y0207240D01*
X0042402Y0207839D02*
X0005694Y0207839D01*
X0005694Y0208437D02*
X0042401Y0208437D01*
X0042397Y0209036D02*
X0005694Y0209036D01*
X0005694Y0209634D02*
X0042500Y0209634D01*
X0042748Y0210233D02*
X0005694Y0210233D01*
X0005694Y0210831D02*
X0042991Y0210831D01*
X0043402Y0211430D02*
X0005694Y0211430D01*
X0005694Y0212028D02*
X0043997Y0212028D01*
X0044588Y0212627D02*
X0005694Y0212627D01*
X0005694Y0213225D02*
X0045178Y0213225D01*
X0045768Y0213824D02*
X0005694Y0213824D01*
X0005694Y0214422D02*
X0046359Y0214422D01*
X0046949Y0215021D02*
X0005694Y0215021D01*
X0005694Y0215620D02*
X0047540Y0215620D01*
X0048130Y0216218D02*
X0005694Y0216218D01*
X0005694Y0216817D02*
X0048720Y0216817D01*
X0049308Y0217415D02*
X0005694Y0217415D01*
X0005694Y0218014D02*
X0049901Y0218014D01*
X0050916Y0218612D02*
X0005694Y0218612D01*
X0005694Y0219211D02*
X0238456Y0219211D01*
X0238456Y0219809D02*
X0005694Y0219809D01*
X0005694Y0220408D02*
X0238456Y0220408D01*
X0238456Y0221006D02*
X0005694Y0221006D01*
X0005694Y0221605D02*
X0238573Y0221605D01*
X0238821Y0222203D02*
X0005694Y0222203D01*
X0005694Y0222802D02*
X0239069Y0222802D01*
X0239317Y0223400D02*
X0005694Y0223400D01*
X0005694Y0223999D02*
X0239584Y0223999D01*
X0240183Y0224597D02*
X0005694Y0224597D01*
X0005694Y0225196D02*
X0240165Y0225196D01*
X0239567Y0225794D02*
X0005694Y0225794D01*
X0005694Y0226393D02*
X0239310Y0226393D01*
X0239062Y0226991D02*
X0005694Y0226991D01*
X0005694Y0227590D02*
X0238814Y0227590D01*
X0238566Y0228188D02*
X0005694Y0228188D01*
X0005694Y0228787D02*
X0238456Y0228787D01*
X0238456Y0229385D02*
X0005694Y0229385D01*
X0005694Y0229984D02*
X0238456Y0229984D01*
X0238456Y0230582D02*
X0005694Y0230582D01*
X0005694Y0231181D02*
X0238456Y0231181D01*
X0238646Y0231779D02*
X0005694Y0231779D01*
X0005694Y0232378D02*
X0238894Y0232378D01*
X0239142Y0232976D02*
X0005694Y0232976D01*
X0005694Y0233575D02*
X0239390Y0233575D01*
X0239759Y0234173D02*
X0005694Y0234173D01*
X0005694Y0234772D02*
X0240357Y0234772D01*
X0240956Y0235370D02*
X0005694Y0235370D01*
X0005694Y0235969D02*
X0012561Y0235969D01*
X0011116Y0236567D02*
X0005694Y0236567D01*
X0005694Y0237166D02*
X0010013Y0237166D01*
X0009415Y0237764D02*
X0005694Y0237764D01*
X0005694Y0238363D02*
X0008816Y0238363D01*
X0008218Y0238961D02*
X0005694Y0238961D01*
X0005694Y0239560D02*
X0007619Y0239560D01*
X0007298Y0240158D02*
X0005694Y0240158D01*
X0005694Y0240757D02*
X0007051Y0240757D01*
X0006803Y0241355D02*
X0005694Y0241355D01*
X0005694Y0241954D02*
X0006555Y0241954D01*
X0006307Y0242553D02*
X0005694Y0242553D01*
X0005694Y0243151D02*
X0006059Y0243151D01*
X0006001Y0243750D02*
X0005694Y0243750D01*
X0005694Y0244348D02*
X0006001Y0244348D01*
X0006001Y0244947D02*
X0005694Y0244947D01*
X0005694Y0245545D02*
X0006001Y0245545D01*
X0006001Y0246144D02*
X0005694Y0246144D01*
X0005694Y0246742D02*
X0006001Y0246742D01*
X0006062Y0247341D02*
X0005694Y0247341D01*
X0005694Y0247939D02*
X0006310Y0247939D01*
X0006558Y0248538D02*
X0005694Y0248538D01*
X0005694Y0249136D02*
X0006806Y0249136D01*
X0007054Y0249735D02*
X0005694Y0249735D01*
X0005694Y0250333D02*
X0007302Y0250333D01*
X0007627Y0250932D02*
X0005694Y0250932D01*
X0005694Y0251530D02*
X0008225Y0251530D01*
X0008824Y0252129D02*
X0005921Y0252129D01*
X0022802Y0252129D02*
X0342682Y0252129D01*
X0342083Y0251530D02*
X0023401Y0251530D01*
X0023999Y0250932D02*
X0341485Y0250932D01*
X0341160Y0250333D02*
X0024324Y0250333D01*
X0024572Y0249735D02*
X0340912Y0249735D01*
X0340664Y0249136D02*
X0024820Y0249136D01*
X0025068Y0248538D02*
X0340416Y0248538D01*
X0340168Y0247939D02*
X0025316Y0247939D01*
X0025564Y0247341D02*
X0339920Y0247341D01*
X0339859Y0246742D02*
X0307922Y0246742D01*
X0309367Y0246144D02*
X0339859Y0246144D01*
X0339859Y0245545D02*
X0310181Y0245545D01*
X0310779Y0244947D02*
X0339859Y0244947D01*
X0339859Y0244348D02*
X0311378Y0244348D01*
X0311849Y0243750D02*
X0339859Y0243750D01*
X0339917Y0243151D02*
X0312097Y0243151D01*
X0312345Y0242553D02*
X0340165Y0242553D01*
X0340413Y0241954D02*
X0312593Y0241954D01*
X0312841Y0241355D02*
X0340661Y0241355D01*
X0340909Y0240757D02*
X0312855Y0240757D01*
X0312855Y0240158D02*
X0341157Y0240158D01*
X0341477Y0239560D02*
X0312855Y0239560D01*
X0312855Y0238961D02*
X0342076Y0238961D01*
X0342674Y0238363D02*
X0312817Y0238363D01*
X0312569Y0237764D02*
X0343273Y0237764D01*
X0343871Y0237166D02*
X0312321Y0237166D01*
X0312073Y0236567D02*
X0344974Y0236567D01*
X0346419Y0235969D02*
X0311825Y0235969D01*
X0311320Y0235370D02*
X0361089Y0235370D01*
X0361089Y0234772D02*
X0310954Y0234772D01*
X0311552Y0234173D02*
X0361089Y0234173D01*
X0361089Y0233575D02*
X0311922Y0233575D01*
X0312169Y0232976D02*
X0361089Y0232976D01*
X0361089Y0232378D02*
X0312417Y0232378D01*
X0312665Y0231779D02*
X0361089Y0231779D01*
X0361089Y0231181D02*
X0312855Y0231181D01*
X0312855Y0230582D02*
X0361089Y0230582D01*
X0361089Y0229984D02*
X0312855Y0229984D01*
X0312855Y0229385D02*
X0361089Y0229385D01*
X0361089Y0228787D02*
X0312855Y0228787D01*
X0312745Y0228188D02*
X0361089Y0228188D01*
X0361089Y0227590D02*
X0312497Y0227590D01*
X0312249Y0226991D02*
X0361089Y0226991D01*
X0361089Y0226393D02*
X0312001Y0226393D01*
X0311744Y0225794D02*
X0361089Y0225794D01*
X0361089Y0225196D02*
X0311146Y0225196D01*
X0311128Y0224597D02*
X0361089Y0224597D01*
X0361089Y0223999D02*
X0311727Y0223999D01*
X0311994Y0223400D02*
X0361089Y0223400D01*
X0361089Y0222802D02*
X0312242Y0222802D01*
X0312490Y0222203D02*
X0361089Y0222203D01*
X0361089Y0221605D02*
X0312738Y0221605D01*
X0312855Y0221006D02*
X0361089Y0221006D01*
X0361089Y0220408D02*
X0312855Y0220408D01*
X0312855Y0219809D02*
X0361089Y0219809D01*
X0361089Y0219211D02*
X0312855Y0219211D01*
X0312855Y0218612D02*
X0361089Y0218612D01*
X0361089Y0218014D02*
X0312672Y0218014D01*
X0312424Y0217415D02*
X0361089Y0217415D01*
X0361089Y0216817D02*
X0312177Y0216817D01*
X0311929Y0216218D02*
X0361089Y0216218D01*
X0361089Y0215620D02*
X0311570Y0215620D01*
X0310971Y0215021D02*
X0361089Y0215021D01*
X0361089Y0214422D02*
X0311303Y0214422D01*
X0311818Y0213824D02*
X0361089Y0213824D01*
X0361089Y0213225D02*
X0312066Y0213225D01*
X0312314Y0212627D02*
X0361089Y0212627D01*
X0361089Y0212028D02*
X0312562Y0212028D01*
X0312810Y0211430D02*
X0361089Y0211430D01*
X0361089Y0210831D02*
X0312855Y0210831D01*
X0312855Y0210233D02*
X0361089Y0210233D01*
X0361089Y0209634D02*
X0312855Y0209634D01*
X0312855Y0209036D02*
X0361089Y0209036D01*
X0361089Y0208437D02*
X0312848Y0208437D01*
X0312600Y0207839D02*
X0361089Y0207839D01*
X0361089Y0207240D02*
X0312352Y0207240D01*
X0312104Y0206642D02*
X0361089Y0206642D01*
X0361089Y0206043D02*
X0311856Y0206043D01*
X0311395Y0205445D02*
X0361089Y0205445D01*
X0361089Y0204846D02*
X0310879Y0204846D01*
X0311478Y0204248D02*
X0361089Y0204248D01*
X0361089Y0203649D02*
X0311891Y0203649D01*
X0312139Y0203051D02*
X0361089Y0203051D01*
X0361089Y0202452D02*
X0312386Y0202452D01*
X0312634Y0201854D02*
X0361089Y0201854D01*
X0361089Y0201255D02*
X0312855Y0201255D01*
X0312855Y0200657D02*
X0361089Y0200657D01*
X0361089Y0200058D02*
X0312855Y0200058D01*
X0312855Y0199460D02*
X0361089Y0199460D01*
X0361089Y0198861D02*
X0312855Y0198861D01*
X0312776Y0198263D02*
X0361089Y0198263D01*
X0361089Y0197664D02*
X0312528Y0197664D01*
X0312280Y0197066D02*
X0361089Y0197066D01*
X0361089Y0196467D02*
X0312032Y0196467D01*
X0311784Y0195869D02*
X0361089Y0195869D01*
X0361089Y0195270D02*
X0311220Y0195270D01*
X0311054Y0194672D02*
X0361089Y0194672D01*
X0361089Y0194073D02*
X0311653Y0194073D01*
X0311963Y0193475D02*
X0361089Y0193475D01*
X0361089Y0192876D02*
X0312211Y0192876D01*
X0312459Y0192278D02*
X0361089Y0192278D01*
X0361089Y0191679D02*
X0312707Y0191679D01*
X0312855Y0191081D02*
X0361089Y0191081D01*
X0361089Y0190482D02*
X0312855Y0190482D01*
X0312855Y0189884D02*
X0361089Y0189884D01*
X0361089Y0189285D02*
X0312855Y0189285D01*
X0312855Y0188686D02*
X0361089Y0188686D01*
X0361089Y0188088D02*
X0312703Y0188088D01*
X0312455Y0187489D02*
X0361089Y0187489D01*
X0361089Y0186891D02*
X0312207Y0186891D01*
X0311959Y0186292D02*
X0361089Y0186292D01*
X0361089Y0185694D02*
X0311644Y0185694D01*
X0311045Y0185095D02*
X0361089Y0185095D01*
X0361089Y0184497D02*
X0311229Y0184497D01*
X0311787Y0183898D02*
X0361089Y0183898D01*
X0361089Y0183300D02*
X0312035Y0183300D01*
X0312283Y0182701D02*
X0361089Y0182701D01*
X0361089Y0182103D02*
X0312531Y0182103D01*
X0312779Y0181504D02*
X0361089Y0181504D01*
X0361089Y0180906D02*
X0312855Y0180906D01*
X0312855Y0180307D02*
X0361089Y0180307D01*
X0361089Y0179709D02*
X0312855Y0179709D01*
X0312855Y0179110D02*
X0361089Y0179110D01*
X0361089Y0178512D02*
X0312855Y0178512D01*
X0312631Y0177913D02*
X0361089Y0177913D01*
X0361089Y0177315D02*
X0312383Y0177315D01*
X0312135Y0176716D02*
X0361089Y0176716D01*
X0361089Y0176118D02*
X0311887Y0176118D01*
X0311469Y0175519D02*
X0361089Y0175519D01*
X0361089Y0174921D02*
X0310871Y0174921D01*
X0311403Y0174322D02*
X0361089Y0174322D01*
X0361089Y0173724D02*
X0332467Y0173724D01*
X0331983Y0173924D02*
X0329092Y0173924D01*
X0326420Y0172817D01*
X0325537Y0171935D01*
X0324655Y0172817D01*
X0321983Y0173924D01*
X0319092Y0173924D01*
X0316420Y0172817D01*
X0314375Y0170773D01*
X0313269Y0168101D01*
X0313269Y0159273D01*
X0314375Y0156601D01*
X0316420Y0154557D01*
X0319092Y0153450D01*
X0321983Y0153450D01*
X0324655Y0154557D01*
X0325537Y0155439D01*
X0326420Y0154557D01*
X0329092Y0153450D01*
X0331983Y0153450D01*
X0334655Y0154557D01*
X0336699Y0156601D01*
X0337806Y0159273D01*
X0337806Y0168101D01*
X0336699Y0170773D01*
X0334655Y0172817D01*
X0331983Y0173924D01*
X0333912Y0173125D02*
X0361089Y0173125D01*
X0361089Y0172527D02*
X0334945Y0172527D01*
X0335544Y0171928D02*
X0361089Y0171928D01*
X0361089Y0171330D02*
X0336142Y0171330D01*
X0336717Y0170731D02*
X0361089Y0170731D01*
X0361089Y0170133D02*
X0336964Y0170133D01*
X0337212Y0169534D02*
X0361089Y0169534D01*
X0361089Y0168936D02*
X0337460Y0168936D01*
X0337708Y0168337D02*
X0361089Y0168337D01*
X0361089Y0167739D02*
X0337806Y0167739D01*
X0337806Y0167140D02*
X0361089Y0167140D01*
X0361089Y0166542D02*
X0337806Y0166542D01*
X0337806Y0165943D02*
X0361089Y0165943D01*
X0361089Y0165345D02*
X0337806Y0165345D01*
X0337806Y0164746D02*
X0361089Y0164746D01*
X0361089Y0164148D02*
X0337806Y0164148D01*
X0337806Y0163549D02*
X0361089Y0163549D01*
X0361089Y0162951D02*
X0337806Y0162951D01*
X0337806Y0162352D02*
X0361089Y0162352D01*
X0361089Y0161753D02*
X0337806Y0161753D01*
X0337806Y0161155D02*
X0361089Y0161155D01*
X0361089Y0160556D02*
X0337806Y0160556D01*
X0337806Y0159958D02*
X0361089Y0159958D01*
X0361089Y0159359D02*
X0337806Y0159359D01*
X0337594Y0158761D02*
X0361089Y0158761D01*
X0361089Y0158162D02*
X0337346Y0158162D01*
X0337098Y0157564D02*
X0361089Y0157564D01*
X0361089Y0156965D02*
X0336850Y0156965D01*
X0336465Y0156367D02*
X0361089Y0156367D01*
X0361089Y0155768D02*
X0335866Y0155768D01*
X0335268Y0155170D02*
X0361089Y0155170D01*
X0361089Y0154571D02*
X0334669Y0154571D01*
X0333245Y0153973D02*
X0361089Y0153973D01*
X0361089Y0153374D02*
X0312005Y0153374D01*
X0312252Y0152776D02*
X0361089Y0152776D01*
X0361089Y0152177D02*
X0312500Y0152177D01*
X0312748Y0151579D02*
X0361089Y0151579D01*
X0361089Y0150980D02*
X0312855Y0150980D01*
X0312855Y0150382D02*
X0361089Y0150382D01*
X0361089Y0149783D02*
X0312855Y0149783D01*
X0312855Y0149185D02*
X0361089Y0149185D01*
X0361089Y0148586D02*
X0312855Y0148586D01*
X0312662Y0147988D02*
X0361089Y0147988D01*
X0361089Y0147389D02*
X0312414Y0147389D01*
X0312166Y0146791D02*
X0361089Y0146791D01*
X0361089Y0146192D02*
X0311918Y0146192D01*
X0311544Y0145594D02*
X0361089Y0145594D01*
X0361089Y0144995D02*
X0310945Y0144995D01*
X0311329Y0144397D02*
X0361089Y0144397D01*
X0361089Y0143798D02*
X0311829Y0143798D01*
X0312077Y0143200D02*
X0319196Y0143200D01*
X0319293Y0143249D02*
X0318694Y0142944D01*
X0318150Y0142549D01*
X0317675Y0142074D01*
X0317280Y0141530D01*
X0316975Y0140932D01*
X0316768Y0140293D01*
X0316663Y0139629D01*
X0316663Y0136625D01*
X0320631Y0136625D01*
X0320631Y0143562D01*
X0320595Y0143562D01*
X0319932Y0143457D01*
X0319293Y0143249D01*
X0318222Y0142601D02*
X0312325Y0142601D01*
X0312573Y0142003D02*
X0317623Y0142003D01*
X0317216Y0141404D02*
X0312821Y0141404D01*
X0312855Y0140806D02*
X0316934Y0140806D01*
X0316754Y0140207D02*
X0312855Y0140207D01*
X0312855Y0139609D02*
X0316663Y0139609D01*
X0316663Y0139010D02*
X0312855Y0139010D01*
X0312837Y0138412D02*
X0316663Y0138412D01*
X0316663Y0137813D02*
X0312589Y0137813D01*
X0312341Y0137215D02*
X0316663Y0137215D01*
X0316663Y0136025D02*
X0316663Y0133020D01*
X0316768Y0132357D01*
X0316975Y0131718D01*
X0317280Y0131119D01*
X0317675Y0130576D01*
X0318150Y0130100D01*
X0318694Y0129706D01*
X0319293Y0129401D01*
X0319932Y0129193D01*
X0320595Y0129088D01*
X0320631Y0129088D01*
X0320631Y0136025D01*
X0316663Y0136025D01*
X0316663Y0136017D02*
X0311846Y0136017D01*
X0312094Y0136616D02*
X0320631Y0136616D01*
X0320631Y0136625D02*
X0320631Y0136025D01*
X0321231Y0136025D01*
X0321231Y0136625D01*
X0320631Y0136625D01*
X0320631Y0137215D02*
X0321231Y0137215D01*
X0321231Y0136625D02*
X0321231Y0143562D01*
X0321267Y0143562D01*
X0321931Y0143457D01*
X0322570Y0143249D01*
X0323168Y0142944D01*
X0323712Y0142549D01*
X0324187Y0142074D01*
X0324582Y0141530D01*
X0324887Y0140932D01*
X0325094Y0140293D01*
X0325200Y0139629D01*
X0325200Y0136625D01*
X0321231Y0136625D01*
X0321231Y0136616D02*
X0330631Y0136616D01*
X0330631Y0136625D02*
X0330631Y0136025D01*
X0326663Y0136025D01*
X0326663Y0133020D01*
X0326768Y0132357D01*
X0326975Y0131718D01*
X0327280Y0131119D01*
X0327675Y0130576D01*
X0328150Y0130100D01*
X0328694Y0129706D01*
X0329293Y0129401D01*
X0329932Y0129193D01*
X0330595Y0129088D01*
X0330631Y0129088D01*
X0330631Y0136025D01*
X0331231Y0136025D01*
X0331231Y0136625D01*
X0330631Y0136625D01*
X0330631Y0143562D01*
X0330595Y0143562D01*
X0329932Y0143457D01*
X0329293Y0143249D01*
X0328694Y0142944D01*
X0328150Y0142549D01*
X0327675Y0142074D01*
X0327280Y0141530D01*
X0326975Y0140932D01*
X0326768Y0140293D01*
X0326663Y0139629D01*
X0326663Y0136625D01*
X0330631Y0136625D01*
X0330631Y0137215D02*
X0331231Y0137215D01*
X0331231Y0136625D02*
X0331231Y0143562D01*
X0331267Y0143562D01*
X0331931Y0143457D01*
X0332570Y0143249D01*
X0333168Y0142944D01*
X0333712Y0142549D01*
X0334187Y0142074D01*
X0334582Y0141530D01*
X0334887Y0140932D01*
X0335094Y0140293D01*
X0335200Y0139629D01*
X0335200Y0136625D01*
X0331231Y0136625D01*
X0331231Y0136616D02*
X0361089Y0136616D01*
X0361089Y0136017D02*
X0335200Y0136017D01*
X0335200Y0136025D02*
X0331231Y0136025D01*
X0331231Y0129088D01*
X0331267Y0129088D01*
X0331931Y0129193D01*
X0332570Y0129401D01*
X0333168Y0129706D01*
X0333712Y0130100D01*
X0334187Y0130576D01*
X0334582Y0131119D01*
X0334887Y0131718D01*
X0335094Y0132357D01*
X0335200Y0133020D01*
X0335200Y0136025D01*
X0335200Y0135419D02*
X0361089Y0135419D01*
X0361089Y0134820D02*
X0335200Y0134820D01*
X0335200Y0134222D02*
X0361089Y0134222D01*
X0361089Y0133623D02*
X0335200Y0133623D01*
X0335200Y0133025D02*
X0361089Y0133025D01*
X0361089Y0132426D02*
X0335106Y0132426D01*
X0334923Y0131828D02*
X0361089Y0131828D01*
X0361089Y0131229D02*
X0334638Y0131229D01*
X0334227Y0130631D02*
X0361089Y0130631D01*
X0361089Y0130032D02*
X0333618Y0130032D01*
X0332635Y0129434D02*
X0361089Y0129434D01*
X0361089Y0128835D02*
X0312855Y0128835D01*
X0312855Y0129434D02*
X0319227Y0129434D01*
X0318244Y0130032D02*
X0312855Y0130032D01*
X0312855Y0130631D02*
X0317635Y0130631D01*
X0317224Y0131229D02*
X0312855Y0131229D01*
X0312645Y0131828D02*
X0316940Y0131828D01*
X0316757Y0132426D02*
X0312397Y0132426D01*
X0312149Y0133025D02*
X0316663Y0133025D01*
X0316663Y0133623D02*
X0311901Y0133623D01*
X0311504Y0134222D02*
X0316663Y0134222D01*
X0316663Y0134820D02*
X0310905Y0134820D01*
X0311369Y0135419D02*
X0316663Y0135419D01*
X0320631Y0135419D02*
X0321231Y0135419D01*
X0321231Y0136017D02*
X0320631Y0136017D01*
X0321231Y0136025D02*
X0321231Y0129088D01*
X0321267Y0129088D01*
X0321931Y0129193D01*
X0322570Y0129401D01*
X0323168Y0129706D01*
X0323712Y0130100D01*
X0324187Y0130576D01*
X0324582Y0131119D01*
X0324887Y0131718D01*
X0325094Y0132357D01*
X0325200Y0133020D01*
X0325200Y0136025D01*
X0321231Y0136025D01*
X0321231Y0134820D02*
X0320631Y0134820D01*
X0320631Y0134222D02*
X0321231Y0134222D01*
X0321231Y0133623D02*
X0320631Y0133623D01*
X0320631Y0133025D02*
X0321231Y0133025D01*
X0321231Y0132426D02*
X0320631Y0132426D01*
X0320631Y0131828D02*
X0321231Y0131828D01*
X0321231Y0131229D02*
X0320631Y0131229D01*
X0320631Y0130631D02*
X0321231Y0130631D01*
X0321231Y0130032D02*
X0320631Y0130032D01*
X0320631Y0129434D02*
X0321231Y0129434D01*
X0322635Y0129434D02*
X0329227Y0129434D01*
X0328244Y0130032D02*
X0323618Y0130032D01*
X0324227Y0130631D02*
X0327635Y0130631D01*
X0327224Y0131229D02*
X0324638Y0131229D01*
X0324923Y0131828D02*
X0326940Y0131828D01*
X0326757Y0132426D02*
X0325106Y0132426D01*
X0325200Y0133025D02*
X0326663Y0133025D01*
X0326663Y0133623D02*
X0325200Y0133623D01*
X0325200Y0134222D02*
X0326663Y0134222D01*
X0326663Y0134820D02*
X0325200Y0134820D01*
X0325200Y0135419D02*
X0326663Y0135419D01*
X0326663Y0136017D02*
X0325200Y0136017D01*
X0325200Y0137215D02*
X0326663Y0137215D01*
X0326663Y0137813D02*
X0325200Y0137813D01*
X0325200Y0138412D02*
X0326663Y0138412D01*
X0326663Y0139010D02*
X0325200Y0139010D01*
X0325200Y0139609D02*
X0326663Y0139609D01*
X0326754Y0140207D02*
X0325108Y0140207D01*
X0324928Y0140806D02*
X0326934Y0140806D01*
X0327216Y0141404D02*
X0324646Y0141404D01*
X0324239Y0142003D02*
X0327623Y0142003D01*
X0328222Y0142601D02*
X0323640Y0142601D01*
X0322667Y0143200D02*
X0329196Y0143200D01*
X0330631Y0143200D02*
X0331231Y0143200D01*
X0331231Y0142601D02*
X0330631Y0142601D01*
X0330631Y0142003D02*
X0331231Y0142003D01*
X0331231Y0141404D02*
X0330631Y0141404D01*
X0330631Y0140806D02*
X0331231Y0140806D01*
X0331231Y0140207D02*
X0330631Y0140207D01*
X0330631Y0139609D02*
X0331231Y0139609D01*
X0331231Y0139010D02*
X0330631Y0139010D01*
X0330631Y0138412D02*
X0331231Y0138412D01*
X0331231Y0137813D02*
X0330631Y0137813D01*
X0330631Y0136017D02*
X0331231Y0136017D01*
X0331231Y0135419D02*
X0330631Y0135419D01*
X0330631Y0134820D02*
X0331231Y0134820D01*
X0331231Y0134222D02*
X0330631Y0134222D01*
X0330631Y0133623D02*
X0331231Y0133623D01*
X0331231Y0133025D02*
X0330631Y0133025D01*
X0330631Y0132426D02*
X0331231Y0132426D01*
X0331231Y0131828D02*
X0330631Y0131828D01*
X0330631Y0131229D02*
X0331231Y0131229D01*
X0331231Y0130631D02*
X0330631Y0130631D01*
X0330631Y0130032D02*
X0331231Y0130032D01*
X0331231Y0129434D02*
X0330631Y0129434D01*
X0335200Y0137215D02*
X0361089Y0137215D01*
X0361089Y0137813D02*
X0335200Y0137813D01*
X0335200Y0138412D02*
X0361089Y0138412D01*
X0361089Y0139010D02*
X0335200Y0139010D01*
X0335200Y0139609D02*
X0361089Y0139609D01*
X0361089Y0140207D02*
X0335108Y0140207D01*
X0334928Y0140806D02*
X0361089Y0140806D01*
X0361089Y0141404D02*
X0334646Y0141404D01*
X0334239Y0142003D02*
X0361089Y0142003D01*
X0361089Y0142601D02*
X0333640Y0142601D01*
X0332667Y0143200D02*
X0361089Y0143200D01*
X0361089Y0128237D02*
X0312765Y0128237D01*
X0312517Y0127638D02*
X0361089Y0127638D01*
X0361089Y0127040D02*
X0312269Y0127040D01*
X0312021Y0126441D02*
X0361089Y0126441D01*
X0361089Y0125843D02*
X0311773Y0125843D01*
X0311194Y0125244D02*
X0361089Y0125244D01*
X0361089Y0124646D02*
X0311080Y0124646D01*
X0311678Y0124047D02*
X0361089Y0124047D01*
X0361089Y0123449D02*
X0311974Y0123449D01*
X0312222Y0122850D02*
X0361089Y0122850D01*
X0361089Y0122252D02*
X0312470Y0122252D01*
X0312717Y0121653D02*
X0361089Y0121653D01*
X0361089Y0121055D02*
X0312855Y0121055D01*
X0312855Y0120456D02*
X0361089Y0120456D01*
X0361089Y0119858D02*
X0312855Y0119858D01*
X0312855Y0119259D02*
X0361089Y0119259D01*
X0361089Y0118661D02*
X0312855Y0118661D01*
X0312693Y0118062D02*
X0361089Y0118062D01*
X0361089Y0117464D02*
X0312445Y0117464D01*
X0312197Y0116865D02*
X0361089Y0116865D01*
X0361089Y0116267D02*
X0311949Y0116267D01*
X0311618Y0115668D02*
X0361089Y0115668D01*
X0361089Y0115070D02*
X0311020Y0115070D01*
X0311255Y0114471D02*
X0361089Y0114471D01*
X0361089Y0113873D02*
X0311798Y0113873D01*
X0312046Y0113274D02*
X0361089Y0113274D01*
X0361089Y0112676D02*
X0312294Y0112676D01*
X0312542Y0112077D02*
X0361089Y0112077D01*
X0361089Y0111479D02*
X0312790Y0111479D01*
X0312855Y0110880D02*
X0361089Y0110880D01*
X0361089Y0110282D02*
X0312855Y0110282D01*
X0312855Y0109683D02*
X0361089Y0109683D01*
X0361089Y0109084D02*
X0312855Y0109084D01*
X0312855Y0108486D02*
X0361089Y0108486D01*
X0361089Y0107887D02*
X0312620Y0107887D01*
X0312372Y0107289D02*
X0361089Y0107289D01*
X0361089Y0106690D02*
X0312124Y0106690D01*
X0311876Y0106092D02*
X0361089Y0106092D01*
X0361089Y0105493D02*
X0311443Y0105493D01*
X0310845Y0104895D02*
X0361089Y0104895D01*
X0361089Y0104296D02*
X0310246Y0104296D01*
X0309526Y0103698D02*
X0361089Y0103698D01*
X0361089Y0103099D02*
X0308381Y0103099D01*
X0308948Y0102501D02*
X0361089Y0102501D01*
X0361089Y0101902D02*
X0309343Y0101902D01*
X0309612Y0101304D02*
X0361089Y0101304D01*
X0361089Y0100705D02*
X0309778Y0100705D01*
X0309848Y0099508D02*
X0361089Y0099508D01*
X0361089Y0098910D02*
X0309753Y0098910D01*
X0309559Y0098311D02*
X0361089Y0098311D01*
X0361089Y0097713D02*
X0309261Y0097713D01*
X0308822Y0097114D02*
X0361089Y0097114D01*
X0361089Y0096516D02*
X0308469Y0096516D01*
X0309808Y0095917D02*
X0361089Y0095917D01*
X0361089Y0095319D02*
X0310407Y0095319D01*
X0311005Y0094720D02*
X0361089Y0094720D01*
X0361089Y0094122D02*
X0332348Y0094122D01*
X0331046Y0094661D02*
X0334023Y0093428D01*
X0336302Y0091149D01*
X0337535Y0088172D01*
X0337535Y0084950D01*
X0336302Y0081973D01*
X0335890Y0081561D01*
X0336302Y0081149D01*
X0337535Y0078172D01*
X0337535Y0074950D01*
X0336302Y0071973D01*
X0334023Y0069694D01*
X0333592Y0069516D01*
X0333797Y0069234D01*
X0334161Y0068519D01*
X0334409Y0067755D01*
X0334535Y0066962D01*
X0334535Y0066861D01*
X0329735Y0066861D01*
X0329735Y0066261D01*
X0334535Y0066261D01*
X0334535Y0066160D01*
X0334409Y0065367D01*
X0334161Y0064603D01*
X0333797Y0063888D01*
X0333592Y0063606D01*
X0334023Y0063428D01*
X0336302Y0061149D01*
X0337535Y0058172D01*
X0337535Y0054950D01*
X0336302Y0051973D01*
X0335890Y0051561D01*
X0336302Y0051149D01*
X0337535Y0048172D01*
X0337535Y0044950D01*
X0336302Y0041973D01*
X0335890Y0041561D01*
X0336302Y0041149D01*
X0337535Y0038172D01*
X0337535Y0034950D01*
X0336302Y0031973D01*
X0335890Y0031561D01*
X0336302Y0031149D01*
X0337535Y0028172D01*
X0337535Y0024950D01*
X0336302Y0021973D01*
X0334023Y0019694D01*
X0331046Y0018461D01*
X0327824Y0018461D01*
X0324847Y0019694D01*
X0322568Y0021973D01*
X0321335Y0024950D01*
X0321335Y0028172D01*
X0322568Y0031149D01*
X0322980Y0031561D01*
X0322568Y0031973D01*
X0321335Y0034950D01*
X0321335Y0038172D01*
X0322568Y0041149D01*
X0322980Y0041561D01*
X0322568Y0041973D01*
X0321335Y0044950D01*
X0321335Y0048172D01*
X0322568Y0051149D01*
X0322980Y0051561D01*
X0322568Y0051973D01*
X0321335Y0054950D01*
X0321335Y0058172D01*
X0322568Y0061149D01*
X0324847Y0063428D01*
X0325278Y0063606D01*
X0325073Y0063888D01*
X0324709Y0064603D01*
X0324461Y0065367D01*
X0324335Y0066160D01*
X0324335Y0066261D01*
X0329135Y0066261D01*
X0329135Y0066861D01*
X0324335Y0066861D01*
X0324335Y0066962D01*
X0324461Y0067755D01*
X0324709Y0068519D01*
X0325073Y0069234D01*
X0325278Y0069516D01*
X0324847Y0069694D01*
X0322568Y0071973D01*
X0321335Y0074950D01*
X0321335Y0078172D01*
X0322568Y0081149D01*
X0322980Y0081561D01*
X0322568Y0081973D01*
X0321335Y0084950D01*
X0321335Y0088172D01*
X0322568Y0091149D01*
X0324847Y0093428D01*
X0327824Y0094661D01*
X0331046Y0094661D01*
X0333793Y0093523D02*
X0361089Y0093523D01*
X0361089Y0092925D02*
X0334527Y0092925D01*
X0335125Y0092326D02*
X0361089Y0092326D01*
X0361089Y0091728D02*
X0335724Y0091728D01*
X0336310Y0091129D02*
X0361089Y0091129D01*
X0361089Y0090531D02*
X0336558Y0090531D01*
X0336806Y0089932D02*
X0361089Y0089932D01*
X0361089Y0089334D02*
X0337054Y0089334D01*
X0337302Y0088735D02*
X0361089Y0088735D01*
X0361089Y0088137D02*
X0337535Y0088137D01*
X0337535Y0087538D02*
X0361089Y0087538D01*
X0361089Y0086940D02*
X0337535Y0086940D01*
X0337535Y0086341D02*
X0361089Y0086341D01*
X0361089Y0085743D02*
X0337535Y0085743D01*
X0337535Y0085144D02*
X0361089Y0085144D01*
X0361089Y0084546D02*
X0337368Y0084546D01*
X0337120Y0083947D02*
X0361089Y0083947D01*
X0361089Y0083348D02*
X0336872Y0083348D01*
X0336624Y0082750D02*
X0361089Y0082750D01*
X0361089Y0082151D02*
X0336376Y0082151D01*
X0335898Y0081553D02*
X0361089Y0081553D01*
X0361089Y0080954D02*
X0336383Y0080954D01*
X0336630Y0080356D02*
X0361089Y0080356D01*
X0361089Y0079757D02*
X0336878Y0079757D01*
X0337126Y0079159D02*
X0361089Y0079159D01*
X0361089Y0078560D02*
X0337374Y0078560D01*
X0337535Y0077962D02*
X0361089Y0077962D01*
X0361089Y0077363D02*
X0337535Y0077363D01*
X0337535Y0076765D02*
X0361089Y0076765D01*
X0361089Y0076166D02*
X0337535Y0076166D01*
X0337535Y0075568D02*
X0361089Y0075568D01*
X0361089Y0074969D02*
X0337535Y0074969D01*
X0337295Y0074371D02*
X0361089Y0074371D01*
X0361089Y0073772D02*
X0337047Y0073772D01*
X0336799Y0073174D02*
X0361089Y0073174D01*
X0361089Y0072575D02*
X0336551Y0072575D01*
X0336304Y0071977D02*
X0361089Y0071977D01*
X0361089Y0071378D02*
X0335707Y0071378D01*
X0335109Y0070780D02*
X0361089Y0070780D01*
X0361089Y0070181D02*
X0334510Y0070181D01*
X0333754Y0069583D02*
X0361089Y0069583D01*
X0361089Y0068984D02*
X0333924Y0068984D01*
X0334205Y0068386D02*
X0361089Y0068386D01*
X0361089Y0067787D02*
X0334399Y0067787D01*
X0334499Y0067189D02*
X0361089Y0067189D01*
X0361089Y0066590D02*
X0329735Y0066590D01*
X0329135Y0066590D02*
X0312083Y0066590D01*
X0311835Y0065992D02*
X0324362Y0065992D01*
X0324456Y0065393D02*
X0311343Y0065393D01*
X0310931Y0064795D02*
X0324647Y0064795D01*
X0324916Y0064196D02*
X0311529Y0064196D01*
X0311912Y0063598D02*
X0325257Y0063598D01*
X0324418Y0062999D02*
X0312160Y0062999D01*
X0312408Y0062401D02*
X0323819Y0062401D01*
X0323221Y0061802D02*
X0312656Y0061802D01*
X0312855Y0061204D02*
X0322622Y0061204D01*
X0322343Y0060605D02*
X0312855Y0060605D01*
X0312855Y0060007D02*
X0322095Y0060007D01*
X0321847Y0059408D02*
X0312855Y0059408D01*
X0312855Y0058810D02*
X0321599Y0058810D01*
X0321351Y0058211D02*
X0312754Y0058211D01*
X0312506Y0057613D02*
X0321335Y0057613D01*
X0321335Y0057014D02*
X0312258Y0057014D01*
X0312010Y0056415D02*
X0321335Y0056415D01*
X0321335Y0055817D02*
X0311763Y0055817D01*
X0311169Y0055218D02*
X0321335Y0055218D01*
X0321472Y0054620D02*
X0311106Y0054620D01*
X0311704Y0054021D02*
X0321720Y0054021D01*
X0321967Y0053423D02*
X0311984Y0053423D01*
X0312232Y0052824D02*
X0322215Y0052824D01*
X0322463Y0052226D02*
X0312480Y0052226D01*
X0312728Y0051627D02*
X0322914Y0051627D01*
X0322518Y0051029D02*
X0312855Y0051029D01*
X0312855Y0050430D02*
X0322270Y0050430D01*
X0322022Y0049832D02*
X0312855Y0049832D01*
X0312855Y0049233D02*
X0321775Y0049233D01*
X0321527Y0048635D02*
X0312855Y0048635D01*
X0312682Y0048036D02*
X0321335Y0048036D01*
X0321335Y0047438D02*
X0312434Y0047438D01*
X0312186Y0046839D02*
X0321335Y0046839D01*
X0321335Y0046241D02*
X0311938Y0046241D01*
X0311592Y0045642D02*
X0321335Y0045642D01*
X0321335Y0045044D02*
X0310994Y0045044D01*
X0311280Y0044445D02*
X0321544Y0044445D01*
X0321792Y0043847D02*
X0311809Y0043847D01*
X0312057Y0043248D02*
X0322040Y0043248D01*
X0322288Y0042650D02*
X0312305Y0042650D01*
X0312553Y0042051D02*
X0322536Y0042051D01*
X0322872Y0041453D02*
X0312801Y0041453D01*
X0312855Y0040854D02*
X0322446Y0040854D01*
X0322198Y0040256D02*
X0312855Y0040256D01*
X0312855Y0039657D02*
X0321950Y0039657D01*
X0321702Y0039059D02*
X0312855Y0039059D01*
X0312855Y0038460D02*
X0321454Y0038460D01*
X0321335Y0037862D02*
X0312609Y0037862D01*
X0312362Y0037263D02*
X0321335Y0037263D01*
X0321335Y0036665D02*
X0312114Y0036665D01*
X0311866Y0036066D02*
X0321335Y0036066D01*
X0321335Y0035468D02*
X0311418Y0035468D01*
X0310857Y0034869D02*
X0321368Y0034869D01*
X0321616Y0034271D02*
X0311455Y0034271D01*
X0311881Y0033672D02*
X0321864Y0033672D01*
X0322112Y0033074D02*
X0312129Y0033074D01*
X0312377Y0032475D02*
X0322360Y0032475D01*
X0322664Y0031877D02*
X0312625Y0031877D01*
X0312855Y0031278D02*
X0322697Y0031278D01*
X0322374Y0030680D02*
X0312855Y0030680D01*
X0312855Y0030081D02*
X0322126Y0030081D01*
X0321878Y0029482D02*
X0312855Y0029482D01*
X0312855Y0028884D02*
X0321630Y0028884D01*
X0321382Y0028285D02*
X0312785Y0028285D01*
X0312537Y0027687D02*
X0321335Y0027687D01*
X0321335Y0027088D02*
X0312289Y0027088D01*
X0312041Y0026490D02*
X0321335Y0026490D01*
X0321335Y0025891D02*
X0311793Y0025891D01*
X0311243Y0025293D02*
X0321335Y0025293D01*
X0321441Y0024694D02*
X0311031Y0024694D01*
X0311630Y0024096D02*
X0321689Y0024096D01*
X0321937Y0023497D02*
X0311954Y0023497D01*
X0312202Y0022899D02*
X0322185Y0022899D01*
X0322432Y0022300D02*
X0312449Y0022300D01*
X0312697Y0021702D02*
X0322839Y0021702D01*
X0323438Y0021103D02*
X0312855Y0021103D01*
X0312855Y0020505D02*
X0324036Y0020505D01*
X0324635Y0019906D02*
X0312855Y0019906D01*
X0312855Y0019308D02*
X0325780Y0019308D01*
X0327224Y0018709D02*
X0312855Y0018709D01*
X0312713Y0018111D02*
X0341022Y0018111D01*
X0341270Y0018709D02*
X0331646Y0018709D01*
X0333091Y0019308D02*
X0341751Y0019308D01*
X0342349Y0019906D02*
X0334235Y0019906D01*
X0334834Y0020505D02*
X0342948Y0020505D01*
X0343546Y0021103D02*
X0335432Y0021103D01*
X0336031Y0021702D02*
X0344189Y0021702D01*
X0345634Y0022300D02*
X0336438Y0022300D01*
X0336685Y0022899D02*
X0347079Y0022899D01*
X0352263Y0022899D02*
X0361089Y0022899D01*
X0361089Y0023497D02*
X0336933Y0023497D01*
X0337181Y0024096D02*
X0361089Y0024096D01*
X0361089Y0024694D02*
X0337429Y0024694D01*
X0337535Y0025293D02*
X0361089Y0025293D01*
X0361089Y0025891D02*
X0337535Y0025891D01*
X0337535Y0026490D02*
X0361089Y0026490D01*
X0361089Y0027088D02*
X0337535Y0027088D01*
X0337535Y0027687D02*
X0361089Y0027687D01*
X0361089Y0028285D02*
X0337488Y0028285D01*
X0337240Y0028884D02*
X0361089Y0028884D01*
X0361089Y0029482D02*
X0336992Y0029482D01*
X0336744Y0030081D02*
X0361089Y0030081D01*
X0361089Y0030680D02*
X0336496Y0030680D01*
X0336173Y0031278D02*
X0361089Y0031278D01*
X0361089Y0031877D02*
X0336206Y0031877D01*
X0336510Y0032475D02*
X0361089Y0032475D01*
X0361089Y0033074D02*
X0336758Y0033074D01*
X0337006Y0033672D02*
X0361089Y0033672D01*
X0361089Y0034271D02*
X0337254Y0034271D01*
X0337502Y0034869D02*
X0361089Y0034869D01*
X0361089Y0035468D02*
X0337535Y0035468D01*
X0337535Y0036066D02*
X0361089Y0036066D01*
X0361089Y0036665D02*
X0337535Y0036665D01*
X0337535Y0037263D02*
X0361089Y0037263D01*
X0361089Y0037862D02*
X0337535Y0037862D01*
X0337416Y0038460D02*
X0361089Y0038460D01*
X0361089Y0039059D02*
X0337168Y0039059D01*
X0336920Y0039657D02*
X0361089Y0039657D01*
X0361089Y0040256D02*
X0336672Y0040256D01*
X0336424Y0040854D02*
X0361089Y0040854D01*
X0361089Y0041453D02*
X0335998Y0041453D01*
X0336334Y0042051D02*
X0361089Y0042051D01*
X0361089Y0042650D02*
X0336582Y0042650D01*
X0336830Y0043248D02*
X0361089Y0043248D01*
X0361089Y0043847D02*
X0337078Y0043847D01*
X0337326Y0044445D02*
X0361089Y0044445D01*
X0361089Y0045044D02*
X0337535Y0045044D01*
X0337535Y0045642D02*
X0361089Y0045642D01*
X0361089Y0046241D02*
X0337535Y0046241D01*
X0337535Y0046839D02*
X0361089Y0046839D01*
X0361089Y0047438D02*
X0337535Y0047438D01*
X0337535Y0048036D02*
X0361089Y0048036D01*
X0361089Y0048635D02*
X0337343Y0048635D01*
X0337095Y0049233D02*
X0361089Y0049233D01*
X0361089Y0049832D02*
X0336848Y0049832D01*
X0336600Y0050430D02*
X0361089Y0050430D01*
X0361089Y0051029D02*
X0336352Y0051029D01*
X0335957Y0051627D02*
X0361089Y0051627D01*
X0361089Y0052226D02*
X0336407Y0052226D01*
X0336655Y0052824D02*
X0361089Y0052824D01*
X0361089Y0053423D02*
X0336903Y0053423D01*
X0337150Y0054021D02*
X0361089Y0054021D01*
X0361089Y0054620D02*
X0337398Y0054620D01*
X0337535Y0055218D02*
X0361089Y0055218D01*
X0361089Y0055817D02*
X0337535Y0055817D01*
X0337535Y0056415D02*
X0361089Y0056415D01*
X0361089Y0057014D02*
X0337535Y0057014D01*
X0337535Y0057613D02*
X0361089Y0057613D01*
X0361089Y0058211D02*
X0337519Y0058211D01*
X0337271Y0058810D02*
X0361089Y0058810D01*
X0361089Y0059408D02*
X0337023Y0059408D01*
X0336775Y0060007D02*
X0361089Y0060007D01*
X0361089Y0060605D02*
X0336527Y0060605D01*
X0336248Y0061204D02*
X0361089Y0061204D01*
X0361089Y0061802D02*
X0335649Y0061802D01*
X0335051Y0062401D02*
X0361089Y0062401D01*
X0361089Y0062999D02*
X0334452Y0062999D01*
X0333613Y0063598D02*
X0361089Y0063598D01*
X0361089Y0064196D02*
X0333954Y0064196D01*
X0334224Y0064795D02*
X0361089Y0064795D01*
X0361089Y0065393D02*
X0334414Y0065393D01*
X0334508Y0065992D02*
X0361089Y0065992D01*
X0325116Y0069583D02*
X0312855Y0069583D01*
X0312855Y0070181D02*
X0324360Y0070181D01*
X0323761Y0070780D02*
X0312855Y0070780D01*
X0312831Y0071378D02*
X0323163Y0071378D01*
X0322566Y0071977D02*
X0312583Y0071977D01*
X0312336Y0072575D02*
X0322319Y0072575D01*
X0322071Y0073174D02*
X0312088Y0073174D01*
X0311840Y0073772D02*
X0321823Y0073772D01*
X0321575Y0074371D02*
X0311355Y0074371D01*
X0310919Y0074969D02*
X0321335Y0074969D01*
X0321335Y0075568D02*
X0311518Y0075568D01*
X0311907Y0076166D02*
X0321335Y0076166D01*
X0321335Y0076765D02*
X0312155Y0076765D01*
X0312403Y0077363D02*
X0321335Y0077363D01*
X0321335Y0077962D02*
X0312651Y0077962D01*
X0312855Y0078560D02*
X0321496Y0078560D01*
X0321744Y0079159D02*
X0312855Y0079159D01*
X0312855Y0079757D02*
X0321992Y0079757D01*
X0322240Y0080356D02*
X0312855Y0080356D01*
X0312855Y0080954D02*
X0322487Y0080954D01*
X0322972Y0081553D02*
X0312759Y0081553D01*
X0312511Y0082151D02*
X0322494Y0082151D01*
X0322246Y0082750D02*
X0312263Y0082750D01*
X0312015Y0083348D02*
X0321998Y0083348D01*
X0321750Y0083947D02*
X0311767Y0083947D01*
X0311180Y0084546D02*
X0321502Y0084546D01*
X0321335Y0085144D02*
X0311094Y0085144D01*
X0311693Y0085743D02*
X0321335Y0085743D01*
X0321335Y0086341D02*
X0311980Y0086341D01*
X0312228Y0086940D02*
X0321335Y0086940D01*
X0321335Y0087538D02*
X0312475Y0087538D01*
X0312723Y0088137D02*
X0321335Y0088137D01*
X0321568Y0088735D02*
X0312855Y0088735D01*
X0312855Y0089334D02*
X0321816Y0089334D01*
X0322064Y0089932D02*
X0312855Y0089932D01*
X0312855Y0090531D02*
X0322312Y0090531D01*
X0322560Y0091129D02*
X0312855Y0091129D01*
X0312687Y0091728D02*
X0323147Y0091728D01*
X0323745Y0092326D02*
X0312439Y0092326D01*
X0312191Y0092925D02*
X0324344Y0092925D01*
X0325077Y0093523D02*
X0311943Y0093523D01*
X0311604Y0094122D02*
X0326522Y0094122D01*
X0305956Y0100107D02*
X0361089Y0100107D01*
X0324946Y0068984D02*
X0312855Y0068984D01*
X0312827Y0068386D02*
X0324665Y0068386D01*
X0324471Y0067787D02*
X0312579Y0067787D01*
X0312331Y0067189D02*
X0324371Y0067189D01*
X0300380Y0064795D02*
X0250931Y0064795D01*
X0251343Y0065393D02*
X0299968Y0065393D01*
X0299476Y0065992D02*
X0251835Y0065992D01*
X0252083Y0066590D02*
X0299228Y0066590D01*
X0298980Y0067189D02*
X0252331Y0067189D01*
X0252579Y0067787D02*
X0298732Y0067787D01*
X0298484Y0068386D02*
X0252827Y0068386D01*
X0252855Y0068984D02*
X0298456Y0068984D01*
X0298456Y0069583D02*
X0252855Y0069583D01*
X0252855Y0070181D02*
X0298456Y0070181D01*
X0298456Y0070780D02*
X0252855Y0070780D01*
X0252831Y0071378D02*
X0298480Y0071378D01*
X0298728Y0071977D02*
X0252583Y0071977D01*
X0252336Y0072575D02*
X0298975Y0072575D01*
X0299223Y0073174D02*
X0252088Y0073174D01*
X0251840Y0073772D02*
X0299471Y0073772D01*
X0299956Y0074371D02*
X0251355Y0074371D01*
X0250919Y0074969D02*
X0272082Y0074969D01*
X0272585Y0074761D02*
X0269167Y0076177D01*
X0266551Y0078793D01*
X0265135Y0082211D01*
X0265135Y0085911D01*
X0266551Y0089329D01*
X0269167Y0091945D01*
X0272585Y0093361D01*
X0276285Y0093361D01*
X0279703Y0091945D01*
X0282319Y0089329D01*
X0283735Y0085911D01*
X0283735Y0082211D01*
X0282319Y0078793D01*
X0279703Y0076177D01*
X0276285Y0074761D01*
X0272585Y0074761D01*
X0270637Y0075568D02*
X0251518Y0075568D01*
X0251907Y0076166D02*
X0269192Y0076166D01*
X0268579Y0076765D02*
X0252155Y0076765D01*
X0252403Y0077363D02*
X0267980Y0077363D01*
X0267382Y0077962D02*
X0252651Y0077962D01*
X0252855Y0078560D02*
X0266783Y0078560D01*
X0266399Y0079159D02*
X0252855Y0079159D01*
X0252855Y0079757D02*
X0266151Y0079757D01*
X0265903Y0080356D02*
X0252855Y0080356D01*
X0252855Y0080954D02*
X0265656Y0080954D01*
X0265408Y0081553D02*
X0252759Y0081553D01*
X0252511Y0082151D02*
X0265160Y0082151D01*
X0265135Y0082750D02*
X0252263Y0082750D01*
X0252015Y0083348D02*
X0265135Y0083348D01*
X0265135Y0083947D02*
X0251767Y0083947D01*
X0251180Y0084546D02*
X0265135Y0084546D01*
X0265135Y0085144D02*
X0251094Y0085144D01*
X0251693Y0085743D02*
X0265135Y0085743D01*
X0265313Y0086341D02*
X0251980Y0086341D01*
X0252228Y0086940D02*
X0265561Y0086940D01*
X0265809Y0087538D02*
X0252475Y0087538D01*
X0252723Y0088137D02*
X0266057Y0088137D01*
X0266305Y0088735D02*
X0252855Y0088735D01*
X0252855Y0089334D02*
X0266555Y0089334D01*
X0267154Y0089932D02*
X0252855Y0089932D01*
X0252855Y0090531D02*
X0267752Y0090531D01*
X0268351Y0091129D02*
X0252855Y0091129D01*
X0252687Y0091728D02*
X0268949Y0091728D01*
X0270087Y0092326D02*
X0252439Y0092326D01*
X0252191Y0092925D02*
X0271532Y0092925D01*
X0277338Y0092925D02*
X0299120Y0092925D01*
X0299368Y0093523D02*
X0251943Y0093523D01*
X0251604Y0094122D02*
X0299707Y0094122D01*
X0300306Y0094720D02*
X0251005Y0094720D01*
X0251269Y0095319D02*
X0300904Y0095319D01*
X0301503Y0095917D02*
X0251804Y0095917D01*
X0252052Y0096516D02*
X0302842Y0096516D01*
X0302489Y0097114D02*
X0252300Y0097114D01*
X0252548Y0097713D02*
X0302050Y0097713D01*
X0301752Y0098311D02*
X0252796Y0098311D01*
X0252855Y0098910D02*
X0301558Y0098910D01*
X0301463Y0099508D02*
X0252855Y0099508D01*
X0252855Y0100107D02*
X0305355Y0100107D01*
X0302363Y0102501D02*
X0252366Y0102501D01*
X0252118Y0103099D02*
X0302930Y0103099D01*
X0301785Y0103698D02*
X0251871Y0103698D01*
X0251429Y0104296D02*
X0301065Y0104296D01*
X0300466Y0104895D02*
X0250845Y0104895D01*
X0251443Y0105493D02*
X0299868Y0105493D01*
X0299435Y0106092D02*
X0251876Y0106092D01*
X0252124Y0106690D02*
X0299187Y0106690D01*
X0298939Y0107289D02*
X0252372Y0107289D01*
X0252620Y0107887D02*
X0298691Y0107887D01*
X0298456Y0108486D02*
X0252855Y0108486D01*
X0252855Y0109084D02*
X0298456Y0109084D01*
X0298456Y0109683D02*
X0252855Y0109683D01*
X0252855Y0110282D02*
X0298456Y0110282D01*
X0298456Y0110880D02*
X0252855Y0110880D01*
X0252790Y0111479D02*
X0298521Y0111479D01*
X0298769Y0112077D02*
X0252542Y0112077D01*
X0252294Y0112676D02*
X0299017Y0112676D01*
X0299265Y0113274D02*
X0252046Y0113274D01*
X0251798Y0113873D02*
X0299513Y0113873D01*
X0300056Y0114471D02*
X0251255Y0114471D01*
X0251020Y0115070D02*
X0300291Y0115070D01*
X0299693Y0115668D02*
X0251618Y0115668D01*
X0251949Y0116267D02*
X0299362Y0116267D01*
X0299114Y0116865D02*
X0252197Y0116865D01*
X0252445Y0117464D02*
X0298866Y0117464D01*
X0298618Y0118062D02*
X0252693Y0118062D01*
X0252855Y0118661D02*
X0298456Y0118661D01*
X0298456Y0119259D02*
X0252855Y0119259D01*
X0252855Y0119858D02*
X0298456Y0119858D01*
X0298456Y0120456D02*
X0252855Y0120456D01*
X0252855Y0121055D02*
X0298456Y0121055D01*
X0298594Y0121653D02*
X0252717Y0121653D01*
X0252470Y0122252D02*
X0287169Y0122252D01*
X0287930Y0121937D02*
X0285875Y0122787D01*
X0284303Y0124360D01*
X0283452Y0126414D01*
X0283452Y0128637D01*
X0284303Y0130691D01*
X0284441Y0130830D01*
X0284441Y0147581D01*
X0284240Y0148067D01*
X0284240Y0150291D01*
X0285091Y0152345D01*
X0286663Y0153917D01*
X0288717Y0154768D01*
X0290940Y0154768D01*
X0292995Y0153917D01*
X0294567Y0152345D01*
X0295418Y0150291D01*
X0295418Y0148067D01*
X0294567Y0146013D01*
X0293641Y0145088D01*
X0293641Y0130830D01*
X0293779Y0130691D01*
X0294630Y0128637D01*
X0294630Y0126414D01*
X0293779Y0124360D01*
X0292207Y0122787D01*
X0290153Y0121937D01*
X0287930Y0121937D01*
X0285813Y0122850D02*
X0252222Y0122850D01*
X0251974Y0123449D02*
X0285214Y0123449D01*
X0284616Y0124047D02*
X0251678Y0124047D01*
X0251080Y0124646D02*
X0284185Y0124646D01*
X0283937Y0125244D02*
X0251194Y0125244D01*
X0251773Y0125843D02*
X0283689Y0125843D01*
X0283452Y0126441D02*
X0252021Y0126441D01*
X0252269Y0127040D02*
X0283452Y0127040D01*
X0283452Y0127638D02*
X0252517Y0127638D01*
X0252765Y0128237D02*
X0283452Y0128237D01*
X0283534Y0128835D02*
X0252855Y0128835D01*
X0252855Y0129434D02*
X0283782Y0129434D01*
X0284030Y0130032D02*
X0252855Y0130032D01*
X0252855Y0130631D02*
X0284278Y0130631D01*
X0284441Y0131229D02*
X0252855Y0131229D01*
X0252645Y0131828D02*
X0284441Y0131828D01*
X0284441Y0132426D02*
X0252397Y0132426D01*
X0252149Y0133025D02*
X0284441Y0133025D01*
X0284441Y0133623D02*
X0251901Y0133623D01*
X0251504Y0134222D02*
X0284441Y0134222D01*
X0284441Y0134820D02*
X0250905Y0134820D01*
X0251369Y0135419D02*
X0284441Y0135419D01*
X0284441Y0136017D02*
X0251846Y0136017D01*
X0252094Y0136616D02*
X0284441Y0136616D01*
X0284441Y0137215D02*
X0252341Y0137215D01*
X0252589Y0137813D02*
X0284441Y0137813D01*
X0284441Y0138412D02*
X0252837Y0138412D01*
X0252855Y0139010D02*
X0284441Y0139010D01*
X0284441Y0139609D02*
X0268161Y0139609D01*
X0269469Y0140207D02*
X0284441Y0140207D01*
X0284441Y0140806D02*
X0270068Y0140806D01*
X0270666Y0141404D02*
X0284441Y0141404D01*
X0284441Y0142003D02*
X0271077Y0142003D01*
X0271325Y0142601D02*
X0284441Y0142601D01*
X0284441Y0143200D02*
X0271573Y0143200D01*
X0271796Y0143798D02*
X0284441Y0143798D01*
X0284441Y0144397D02*
X0271796Y0144397D01*
X0271796Y0144995D02*
X0284441Y0144995D01*
X0284441Y0145594D02*
X0271796Y0145594D01*
X0271700Y0146192D02*
X0284441Y0146192D01*
X0284441Y0146791D02*
X0271452Y0146791D01*
X0271204Y0147389D02*
X0284441Y0147389D01*
X0284273Y0147988D02*
X0270956Y0147988D01*
X0270373Y0148586D02*
X0284240Y0148586D01*
X0284240Y0149185D02*
X0269774Y0149185D01*
X0268898Y0149783D02*
X0284240Y0149783D01*
X0284277Y0150382D02*
X0267453Y0150382D01*
X0264961Y0150382D02*
X0252855Y0150382D01*
X0252855Y0150980D02*
X0284525Y0150980D01*
X0284773Y0151579D02*
X0252748Y0151579D01*
X0252500Y0152177D02*
X0285021Y0152177D01*
X0285521Y0152776D02*
X0252252Y0152776D01*
X0252005Y0153374D02*
X0286120Y0153374D01*
X0286797Y0153973D02*
X0251753Y0153973D01*
X0251154Y0154571D02*
X0288242Y0154571D01*
X0291415Y0154571D02*
X0300157Y0154571D01*
X0300191Y0155170D02*
X0251120Y0155170D01*
X0251718Y0155768D02*
X0299593Y0155768D01*
X0299321Y0156367D02*
X0251990Y0156367D01*
X0252238Y0156965D02*
X0299073Y0156965D01*
X0298825Y0157564D02*
X0252486Y0157564D01*
X0252734Y0158162D02*
X0298577Y0158162D01*
X0298456Y0158761D02*
X0252855Y0158761D01*
X0252855Y0159359D02*
X0298456Y0159359D01*
X0298456Y0159958D02*
X0252855Y0159958D01*
X0252855Y0160556D02*
X0298456Y0160556D01*
X0298456Y0161155D02*
X0252855Y0161155D01*
X0252676Y0161753D02*
X0298635Y0161753D01*
X0298883Y0162352D02*
X0252428Y0162352D01*
X0252180Y0162951D02*
X0299131Y0162951D01*
X0299379Y0163549D02*
X0251932Y0163549D01*
X0251578Y0164148D02*
X0299733Y0164148D01*
X0300331Y0164746D02*
X0250980Y0164746D01*
X0251295Y0165345D02*
X0300016Y0165345D01*
X0299496Y0165943D02*
X0251815Y0165943D01*
X0252063Y0166542D02*
X0299248Y0166542D01*
X0299000Y0167140D02*
X0252311Y0167140D01*
X0252558Y0167739D02*
X0298753Y0167739D01*
X0298505Y0168337D02*
X0252806Y0168337D01*
X0252855Y0168936D02*
X0298456Y0168936D01*
X0298456Y0169534D02*
X0252855Y0169534D01*
X0252855Y0170133D02*
X0298456Y0170133D01*
X0298456Y0170731D02*
X0252855Y0170731D01*
X0252851Y0171330D02*
X0298460Y0171330D01*
X0298707Y0171928D02*
X0252604Y0171928D01*
X0252356Y0172527D02*
X0298955Y0172527D01*
X0299203Y0173125D02*
X0252108Y0173125D01*
X0251860Y0173724D02*
X0299451Y0173724D01*
X0299908Y0174322D02*
X0251403Y0174322D01*
X0250871Y0174921D02*
X0300440Y0174921D01*
X0299842Y0175519D02*
X0251469Y0175519D01*
X0251887Y0176118D02*
X0299424Y0176118D01*
X0299176Y0176716D02*
X0252135Y0176716D01*
X0252383Y0177315D02*
X0298928Y0177315D01*
X0298680Y0177913D02*
X0252631Y0177913D01*
X0252855Y0178512D02*
X0298456Y0178512D01*
X0298456Y0179110D02*
X0252855Y0179110D01*
X0252855Y0179709D02*
X0298456Y0179709D01*
X0298456Y0180307D02*
X0252855Y0180307D01*
X0252855Y0180906D02*
X0298456Y0180906D01*
X0298532Y0181504D02*
X0252779Y0181504D01*
X0252531Y0182103D02*
X0298780Y0182103D01*
X0299028Y0182701D02*
X0297120Y0182701D01*
X0298565Y0183300D02*
X0299276Y0183300D01*
X0294191Y0182701D02*
X0252283Y0182701D01*
X0252035Y0183300D02*
X0266676Y0183300D01*
X0266726Y0183274D02*
X0267445Y0183041D01*
X0268191Y0182922D01*
X0268269Y0182922D01*
X0268269Y0187422D01*
X0268869Y0187422D01*
X0268869Y0182922D01*
X0268947Y0182922D01*
X0269693Y0183041D01*
X0270411Y0183274D01*
X0271085Y0183617D01*
X0271696Y0184061D01*
X0272230Y0184595D01*
X0272674Y0185207D01*
X0273017Y0185880D01*
X0273251Y0186598D01*
X0273369Y0187345D01*
X0273369Y0187422D01*
X0268869Y0187422D01*
X0268869Y0188022D01*
X0273369Y0188022D01*
X0273369Y0188100D01*
X0273251Y0188846D01*
X0273017Y0189565D01*
X0272674Y0190238D01*
X0272260Y0190809D01*
X0272987Y0191110D01*
X0275181Y0193304D01*
X0276369Y0196171D01*
X0276369Y0199274D01*
X0275181Y0202141D01*
X0274600Y0202722D01*
X0275181Y0203304D01*
X0276369Y0206171D01*
X0276369Y0209274D01*
X0275181Y0212141D01*
X0272987Y0214335D01*
X0272260Y0214636D01*
X0272674Y0215207D01*
X0273017Y0215880D01*
X0273251Y0216598D01*
X0273369Y0217345D01*
X0273369Y0217422D01*
X0268869Y0217422D01*
X0268869Y0218022D01*
X0273369Y0218022D01*
X0273369Y0218100D01*
X0273251Y0218846D01*
X0273017Y0219565D01*
X0272674Y0220238D01*
X0272230Y0220849D01*
X0271696Y0221384D01*
X0271085Y0221828D01*
X0270411Y0222171D01*
X0269693Y0222404D01*
X0268947Y0222522D01*
X0268869Y0222522D01*
X0268869Y0218022D01*
X0268269Y0218022D01*
X0268269Y0217422D01*
X0263769Y0217422D01*
X0263769Y0217345D01*
X0263887Y0216598D01*
X0264121Y0215880D01*
X0264464Y0215207D01*
X0264878Y0214636D01*
X0264151Y0214335D01*
X0261956Y0212141D01*
X0260769Y0209274D01*
X0260769Y0206171D01*
X0261956Y0203304D01*
X0262538Y0202722D01*
X0261956Y0202141D01*
X0260769Y0199274D01*
X0260769Y0196171D01*
X0261956Y0193304D01*
X0264151Y0191110D01*
X0264878Y0190809D01*
X0264464Y0190238D01*
X0264121Y0189565D01*
X0263887Y0188846D01*
X0263769Y0188100D01*
X0263769Y0188022D01*
X0268269Y0188022D01*
X0268269Y0187422D01*
X0263769Y0187422D01*
X0263769Y0187345D01*
X0263887Y0186598D01*
X0264121Y0185880D01*
X0264464Y0185207D01*
X0264908Y0184595D01*
X0265442Y0184061D01*
X0266053Y0183617D01*
X0266726Y0183274D01*
X0265666Y0183898D02*
X0251787Y0183898D01*
X0251229Y0184497D02*
X0265006Y0184497D01*
X0264544Y0185095D02*
X0251045Y0185095D01*
X0251644Y0185694D02*
X0264215Y0185694D01*
X0263987Y0186292D02*
X0251959Y0186292D01*
X0252207Y0186891D02*
X0263841Y0186891D01*
X0263769Y0188088D02*
X0252703Y0188088D01*
X0252855Y0188686D02*
X0263862Y0188686D01*
X0264030Y0189285D02*
X0252855Y0189285D01*
X0252855Y0189884D02*
X0264283Y0189884D01*
X0264641Y0190482D02*
X0252855Y0190482D01*
X0252855Y0191081D02*
X0264221Y0191081D01*
X0263581Y0191679D02*
X0252707Y0191679D01*
X0252459Y0192278D02*
X0262983Y0192278D01*
X0262384Y0192876D02*
X0252211Y0192876D01*
X0251963Y0193475D02*
X0261886Y0193475D01*
X0261638Y0194073D02*
X0251653Y0194073D01*
X0251054Y0194672D02*
X0261390Y0194672D01*
X0261142Y0195270D02*
X0251220Y0195270D01*
X0251784Y0195869D02*
X0260894Y0195869D01*
X0260769Y0196467D02*
X0252032Y0196467D01*
X0252280Y0197066D02*
X0260769Y0197066D01*
X0260769Y0197664D02*
X0252528Y0197664D01*
X0252776Y0198263D02*
X0260769Y0198263D01*
X0260769Y0198861D02*
X0252855Y0198861D01*
X0252855Y0199460D02*
X0260846Y0199460D01*
X0261094Y0200058D02*
X0252855Y0200058D01*
X0252855Y0200657D02*
X0261342Y0200657D01*
X0261590Y0201255D02*
X0252855Y0201255D01*
X0252634Y0201854D02*
X0261837Y0201854D01*
X0262268Y0202452D02*
X0252386Y0202452D01*
X0252139Y0203051D02*
X0262210Y0203051D01*
X0261813Y0203649D02*
X0251891Y0203649D01*
X0251478Y0204248D02*
X0261565Y0204248D01*
X0261318Y0204846D02*
X0250879Y0204846D01*
X0251395Y0205445D02*
X0261070Y0205445D01*
X0260822Y0206043D02*
X0251856Y0206043D01*
X0252104Y0206642D02*
X0260769Y0206642D01*
X0260769Y0207240D02*
X0252352Y0207240D01*
X0252600Y0207839D02*
X0260769Y0207839D01*
X0260769Y0208437D02*
X0252848Y0208437D01*
X0252855Y0209036D02*
X0260769Y0209036D01*
X0260918Y0209634D02*
X0252855Y0209634D01*
X0252855Y0210233D02*
X0261166Y0210233D01*
X0261414Y0210831D02*
X0252855Y0210831D01*
X0252810Y0211430D02*
X0261662Y0211430D01*
X0261910Y0212028D02*
X0252562Y0212028D01*
X0252314Y0212627D02*
X0262443Y0212627D01*
X0263041Y0213225D02*
X0252066Y0213225D01*
X0251818Y0213824D02*
X0263640Y0213824D01*
X0264362Y0214422D02*
X0251303Y0214422D01*
X0250971Y0215021D02*
X0264598Y0215021D01*
X0264253Y0215620D02*
X0251570Y0215620D01*
X0251929Y0216218D02*
X0264011Y0216218D01*
X0263853Y0216817D02*
X0252177Y0216817D01*
X0252424Y0217415D02*
X0263769Y0217415D01*
X0263769Y0218022D02*
X0268269Y0218022D01*
X0268269Y0222522D01*
X0268191Y0222522D01*
X0267445Y0222404D01*
X0266726Y0222171D01*
X0266053Y0221828D01*
X0265442Y0221384D01*
X0264908Y0220849D01*
X0264464Y0220238D01*
X0264121Y0219565D01*
X0263887Y0218846D01*
X0263769Y0218100D01*
X0263769Y0218022D01*
X0263850Y0218612D02*
X0252855Y0218612D01*
X0252855Y0219211D02*
X0264005Y0219211D01*
X0264245Y0219809D02*
X0252855Y0219809D01*
X0252855Y0220408D02*
X0264587Y0220408D01*
X0265064Y0221006D02*
X0252855Y0221006D01*
X0252738Y0221605D02*
X0265746Y0221605D01*
X0266826Y0222203D02*
X0252490Y0222203D01*
X0252242Y0222802D02*
X0293948Y0222802D01*
X0292504Y0223400D02*
X0251994Y0223400D01*
X0251727Y0223999D02*
X0291362Y0223999D01*
X0290764Y0224597D02*
X0251128Y0224597D01*
X0251146Y0225196D02*
X0290165Y0225196D01*
X0289567Y0225794D02*
X0251744Y0225794D01*
X0252001Y0226393D02*
X0289310Y0226393D01*
X0289062Y0226991D02*
X0252249Y0226991D01*
X0252497Y0227590D02*
X0288814Y0227590D01*
X0288566Y0228188D02*
X0252745Y0228188D01*
X0252855Y0228787D02*
X0288456Y0228787D01*
X0288456Y0229385D02*
X0252855Y0229385D01*
X0252855Y0229984D02*
X0288456Y0229984D01*
X0288456Y0230582D02*
X0252855Y0230582D01*
X0252855Y0231181D02*
X0288456Y0231181D01*
X0288646Y0231779D02*
X0252665Y0231779D01*
X0252417Y0232378D02*
X0288894Y0232378D01*
X0289142Y0232976D02*
X0252169Y0232976D01*
X0251922Y0233575D02*
X0289390Y0233575D01*
X0289759Y0234173D02*
X0251552Y0234173D01*
X0250954Y0234772D02*
X0290357Y0234772D01*
X0290956Y0235370D02*
X0250355Y0235370D01*
X0249757Y0235969D02*
X0291554Y0235969D01*
X0292967Y0236567D02*
X0248344Y0236567D01*
X0248869Y0237166D02*
X0298990Y0237166D01*
X0299238Y0236567D02*
X0298344Y0236567D01*
X0298742Y0237764D02*
X0249287Y0237764D01*
X0249576Y0238363D02*
X0298494Y0238363D01*
X0298456Y0238961D02*
X0249761Y0238961D01*
X0249855Y0239560D02*
X0298456Y0239560D01*
X0298456Y0240158D02*
X0245956Y0240158D01*
X0245955Y0240757D02*
X0245356Y0240757D01*
X0245356Y0241355D02*
X0245955Y0241355D01*
X0245955Y0241954D02*
X0245356Y0241954D01*
X0245356Y0242553D02*
X0245955Y0242553D01*
X0245955Y0243151D02*
X0245356Y0243151D01*
X0245356Y0243750D02*
X0245955Y0243750D01*
X0247328Y0243750D02*
X0299462Y0243750D01*
X0299214Y0243151D02*
X0248310Y0243151D01*
X0248911Y0242553D02*
X0298966Y0242553D01*
X0298718Y0241954D02*
X0249316Y0241954D01*
X0249595Y0241355D02*
X0298470Y0241355D01*
X0298456Y0240757D02*
X0249770Y0240757D01*
X0245355Y0240158D02*
X0024327Y0240158D01*
X0024575Y0240757D02*
X0241541Y0240757D01*
X0241716Y0241355D02*
X0024823Y0241355D01*
X0025071Y0241954D02*
X0241995Y0241954D01*
X0242400Y0242553D02*
X0025319Y0242553D01*
X0025567Y0243151D02*
X0243002Y0243151D01*
X0243983Y0243750D02*
X0025625Y0243750D01*
X0025625Y0244348D02*
X0299933Y0244348D01*
X0300532Y0244947D02*
X0025625Y0244947D01*
X0025625Y0245545D02*
X0301130Y0245545D01*
X0301944Y0246144D02*
X0025625Y0246144D01*
X0025625Y0246742D02*
X0303389Y0246742D01*
X0299317Y0223400D02*
X0298807Y0223400D01*
X0299069Y0222802D02*
X0297363Y0222802D01*
X0298821Y0222203D02*
X0270312Y0222203D01*
X0271392Y0221605D02*
X0298573Y0221605D01*
X0298456Y0221006D02*
X0272073Y0221006D01*
X0272551Y0220408D02*
X0298456Y0220408D01*
X0298456Y0219809D02*
X0272893Y0219809D01*
X0273132Y0219211D02*
X0298456Y0219211D01*
X0298456Y0218612D02*
X0273288Y0218612D01*
X0273369Y0217415D02*
X0298887Y0217415D01*
X0299134Y0216817D02*
X0297743Y0216817D01*
X0298639Y0218014D02*
X0268869Y0218014D01*
X0268869Y0218612D02*
X0268269Y0218612D01*
X0268269Y0218014D02*
X0252672Y0218014D01*
X0240340Y0215021D02*
X0140641Y0215021D01*
X0141596Y0214422D02*
X0240008Y0214422D01*
X0239493Y0213824D02*
X0142552Y0213824D01*
X0143508Y0213225D02*
X0239245Y0213225D01*
X0238997Y0212627D02*
X0144464Y0212627D01*
X0145419Y0212028D02*
X0238749Y0212028D01*
X0238501Y0211430D02*
X0145979Y0211430D01*
X0146457Y0210831D02*
X0238456Y0210831D01*
X0238456Y0210233D02*
X0146788Y0210233D01*
X0146953Y0209634D02*
X0238456Y0209634D01*
X0238456Y0209036D02*
X0147104Y0209036D01*
X0147191Y0208437D02*
X0238463Y0208437D01*
X0238711Y0207839D02*
X0147104Y0207839D01*
X0147104Y0207240D02*
X0149281Y0207240D01*
X0148682Y0206642D02*
X0147104Y0206642D01*
X0147104Y0206043D02*
X0148084Y0206043D01*
X0147485Y0205445D02*
X0147104Y0205445D01*
X0156376Y0207240D02*
X0238959Y0207240D01*
X0239207Y0206642D02*
X0156975Y0206642D01*
X0157574Y0206043D02*
X0239455Y0206043D01*
X0239916Y0205445D02*
X0158172Y0205445D01*
X0139685Y0215620D02*
X0239741Y0215620D01*
X0239382Y0216218D02*
X0138729Y0216218D01*
X0137773Y0216817D02*
X0239134Y0216817D01*
X0238887Y0217415D02*
X0136818Y0217415D01*
X0135862Y0218014D02*
X0238639Y0218014D01*
X0238456Y0218612D02*
X0134906Y0218612D01*
X0160829Y0189285D02*
X0193327Y0189285D01*
X0193327Y0188686D02*
X0160829Y0188686D01*
X0160829Y0188088D02*
X0193327Y0188088D01*
X0193889Y0187489D02*
X0160829Y0187489D01*
X0160829Y0186891D02*
X0194488Y0186891D01*
X0193929Y0186292D02*
X0160829Y0186292D01*
X0160362Y0185694D02*
X0193330Y0185694D01*
X0192732Y0185095D02*
X0159763Y0185095D01*
X0159165Y0184497D02*
X0192133Y0184497D01*
X0191535Y0183898D02*
X0159718Y0183898D01*
X0160317Y0183300D02*
X0190936Y0183300D01*
X0190338Y0182701D02*
X0160829Y0182701D01*
X0160829Y0182103D02*
X0190327Y0182103D01*
X0190327Y0181504D02*
X0160829Y0181504D01*
X0160829Y0180906D02*
X0190327Y0180906D01*
X0190327Y0180307D02*
X0160829Y0180307D01*
X0160829Y0179709D02*
X0190327Y0179709D01*
X0190327Y0179110D02*
X0160829Y0179110D01*
X0160829Y0178512D02*
X0190327Y0178512D01*
X0190327Y0177913D02*
X0160829Y0177913D01*
X0160829Y0177315D02*
X0190327Y0177315D01*
X0190420Y0176716D02*
X0160829Y0176716D01*
X0160786Y0176118D02*
X0191018Y0176118D01*
X0191617Y0175519D02*
X0160187Y0175519D01*
X0159589Y0174921D02*
X0192216Y0174921D01*
X0192814Y0174322D02*
X0159295Y0174322D01*
X0159893Y0173724D02*
X0193413Y0173724D01*
X0194011Y0173125D02*
X0160492Y0173125D01*
X0144829Y0147389D02*
X0111788Y0147389D01*
X0111970Y0146791D02*
X0144829Y0146791D01*
X0144829Y0146192D02*
X0112496Y0146192D01*
X0112744Y0145594D02*
X0145396Y0145594D01*
X0145994Y0144995D02*
X0112992Y0144995D01*
X0113240Y0144397D02*
X0146437Y0144397D01*
X0145839Y0143798D02*
X0113488Y0143798D01*
X0113556Y0143200D02*
X0145240Y0143200D01*
X0144829Y0142601D02*
X0113556Y0142601D01*
X0113556Y0142003D02*
X0144829Y0142003D01*
X0144829Y0141404D02*
X0113556Y0141404D01*
X0113556Y0140806D02*
X0144829Y0140806D01*
X0144829Y0140207D02*
X0113340Y0140207D01*
X0113092Y0139609D02*
X0144829Y0139609D01*
X0144829Y0139010D02*
X0112844Y0139010D01*
X0112596Y0138412D02*
X0144829Y0138412D01*
X0144829Y0137813D02*
X0112212Y0137813D01*
X0111613Y0137215D02*
X0144829Y0137215D01*
X0144829Y0136616D02*
X0111015Y0136616D01*
X0110416Y0136017D02*
X0144972Y0136017D01*
X0145570Y0135419D02*
X0109007Y0135419D01*
X0103505Y0135419D02*
X0099007Y0135419D01*
X0100416Y0136017D02*
X0102096Y0136017D01*
X0101497Y0136616D02*
X0101015Y0136616D01*
X0126109Y0107289D02*
X0144829Y0107289D01*
X0144829Y0107887D02*
X0005694Y0107887D01*
X0005694Y0108486D02*
X0144829Y0108486D01*
X0144829Y0109084D02*
X0005694Y0109084D01*
X0005694Y0109683D02*
X0144829Y0109683D01*
X0144829Y0110282D02*
X0005694Y0110282D01*
X0005694Y0110880D02*
X0144829Y0110880D01*
X0144829Y0111479D02*
X0005694Y0111479D01*
X0005694Y0112077D02*
X0144829Y0112077D01*
X0144829Y0112676D02*
X0005694Y0112676D01*
X0005694Y0113274D02*
X0145315Y0113274D01*
X0145913Y0113873D02*
X0005694Y0113873D01*
X0005694Y0114471D02*
X0146512Y0114471D01*
X0145920Y0115070D02*
X0005694Y0115070D01*
X0005694Y0115668D02*
X0145321Y0115668D01*
X0144829Y0116267D02*
X0005694Y0116267D01*
X0005694Y0116865D02*
X0144829Y0116865D01*
X0144829Y0117464D02*
X0005694Y0117464D01*
X0005694Y0118062D02*
X0144829Y0118062D01*
X0144829Y0118661D02*
X0005694Y0118661D01*
X0005694Y0119259D02*
X0144829Y0119259D01*
X0144829Y0119858D02*
X0005694Y0119858D01*
X0005694Y0120456D02*
X0144829Y0120456D01*
X0144829Y0121055D02*
X0005694Y0121055D01*
X0005694Y0121653D02*
X0144829Y0121653D01*
X0144829Y0122252D02*
X0005694Y0122252D01*
X0005694Y0122850D02*
X0144891Y0122850D01*
X0145489Y0123449D02*
X0005694Y0123449D01*
X0005694Y0124047D02*
X0146088Y0124047D01*
X0146344Y0124646D02*
X0005694Y0124646D01*
X0005694Y0125244D02*
X0145745Y0125244D01*
X0145147Y0125843D02*
X0005694Y0125843D01*
X0005694Y0126441D02*
X0144829Y0126441D01*
X0144829Y0127040D02*
X0005694Y0127040D01*
X0005694Y0127638D02*
X0144829Y0127638D01*
X0144829Y0128237D02*
X0005694Y0128237D01*
X0005694Y0128835D02*
X0144829Y0128835D01*
X0144829Y0129434D02*
X0005694Y0129434D01*
X0005694Y0130032D02*
X0144829Y0130032D01*
X0144829Y0130631D02*
X0005694Y0130631D01*
X0005694Y0131229D02*
X0144829Y0131229D01*
X0144829Y0131828D02*
X0005694Y0131828D01*
X0005694Y0132426D02*
X0144829Y0132426D01*
X0145066Y0133025D02*
X0005694Y0133025D01*
X0005694Y0133623D02*
X0145664Y0133623D01*
X0146263Y0134222D02*
X0005694Y0134222D01*
X0005694Y0134820D02*
X0146169Y0134820D01*
X0160829Y0119259D02*
X0217329Y0119259D01*
X0217329Y0118661D02*
X0160829Y0118661D01*
X0160829Y0118062D02*
X0217329Y0118062D01*
X0217368Y0117464D02*
X0160829Y0117464D01*
X0160829Y0116865D02*
X0217967Y0116865D01*
X0217707Y0116267D02*
X0160829Y0116267D01*
X0160336Y0115668D02*
X0217109Y0115668D01*
X0216510Y0115070D02*
X0159738Y0115070D01*
X0159146Y0114471D02*
X0215912Y0114471D01*
X0215313Y0113873D02*
X0159744Y0113873D01*
X0160343Y0113274D02*
X0214715Y0113274D01*
X0214329Y0112676D02*
X0160829Y0112676D01*
X0160829Y0112077D02*
X0214329Y0112077D01*
X0214329Y0111479D02*
X0160829Y0111479D01*
X0160829Y0110880D02*
X0214329Y0110880D01*
X0214329Y0110282D02*
X0160829Y0110282D01*
X0160829Y0109683D02*
X0214329Y0109683D01*
X0214329Y0109084D02*
X0160829Y0109084D01*
X0160829Y0108486D02*
X0214329Y0108486D01*
X0214329Y0107887D02*
X0160829Y0107887D01*
X0160829Y0107289D02*
X0214329Y0107289D01*
X0214329Y0106690D02*
X0160829Y0106690D01*
X0160760Y0106092D02*
X0214498Y0106092D01*
X0215096Y0105493D02*
X0160161Y0105493D01*
X0159563Y0104895D02*
X0215695Y0104895D01*
X0216293Y0104296D02*
X0158964Y0104296D01*
X0158366Y0103698D02*
X0216892Y0103698D01*
X0217490Y0103099D02*
X0157767Y0103099D01*
X0157169Y0102501D02*
X0218089Y0102501D01*
X0218687Y0101902D02*
X0156570Y0101902D01*
X0149087Y0101902D02*
X0131903Y0101902D01*
X0131655Y0102501D02*
X0148489Y0102501D01*
X0147890Y0103099D02*
X0131407Y0103099D01*
X0131076Y0103698D02*
X0147292Y0103698D01*
X0146693Y0104296D02*
X0130477Y0104296D01*
X0129879Y0104895D02*
X0146095Y0104895D01*
X0145496Y0105493D02*
X0129280Y0105493D01*
X0128682Y0106092D02*
X0144898Y0106092D01*
X0144829Y0106690D02*
X0127554Y0106690D01*
X0198688Y0125843D02*
X0206166Y0125843D01*
X0207757Y0125843D02*
X0208357Y0125843D01*
X0208357Y0126441D02*
X0207757Y0126441D01*
X0207757Y0127040D02*
X0208357Y0127040D01*
X0208357Y0127638D02*
X0207757Y0127638D01*
X0207757Y0128237D02*
X0208357Y0128237D01*
X0208357Y0128835D02*
X0207757Y0128835D01*
X0226918Y0122850D02*
X0239089Y0122850D01*
X0238841Y0122252D02*
X0226722Y0122252D01*
X0227321Y0121653D02*
X0238594Y0121653D01*
X0238456Y0121055D02*
X0227329Y0121055D01*
X0227329Y0120456D02*
X0238456Y0120456D01*
X0239337Y0123449D02*
X0227517Y0123449D01*
X0228115Y0124047D02*
X0239633Y0124047D01*
X0240231Y0124646D02*
X0228714Y0124646D01*
X0229312Y0125244D02*
X0240117Y0125244D01*
X0239538Y0125843D02*
X0229911Y0125843D01*
X0230329Y0126441D02*
X0239290Y0126441D01*
X0239042Y0127040D02*
X0230329Y0127040D01*
X0230329Y0127638D02*
X0238794Y0127638D01*
X0238546Y0128237D02*
X0230329Y0128237D01*
X0230329Y0128835D02*
X0238456Y0128835D01*
X0238456Y0129434D02*
X0230329Y0129434D01*
X0230329Y0130032D02*
X0238456Y0130032D01*
X0238456Y0130631D02*
X0230329Y0130631D01*
X0230329Y0131229D02*
X0238456Y0131229D01*
X0238666Y0131828D02*
X0230329Y0131828D01*
X0230329Y0132426D02*
X0238914Y0132426D01*
X0239162Y0133025D02*
X0230192Y0133025D01*
X0229593Y0133623D02*
X0239410Y0133623D01*
X0239807Y0134222D02*
X0228995Y0134222D01*
X0228888Y0134820D02*
X0240406Y0134820D01*
X0239942Y0135419D02*
X0229487Y0135419D01*
X0230086Y0136017D02*
X0239465Y0136017D01*
X0239217Y0136616D02*
X0230329Y0136616D01*
X0230329Y0137215D02*
X0238970Y0137215D01*
X0238722Y0137813D02*
X0230329Y0137813D01*
X0230329Y0138412D02*
X0238474Y0138412D01*
X0238456Y0139010D02*
X0230329Y0139010D01*
X0230329Y0139609D02*
X0237483Y0139609D01*
X0236172Y0140207D02*
X0230329Y0140207D01*
X0230329Y0140806D02*
X0235574Y0140806D01*
X0234975Y0141404D02*
X0230329Y0141404D01*
X0230329Y0142003D02*
X0234563Y0142003D01*
X0234316Y0142601D02*
X0230329Y0142601D01*
X0230017Y0143200D02*
X0234068Y0143200D01*
X0233844Y0143798D02*
X0229419Y0143798D01*
X0228820Y0144397D02*
X0233844Y0144397D01*
X0233844Y0144995D02*
X0229063Y0144995D01*
X0229662Y0145594D02*
X0233844Y0145594D01*
X0233940Y0146192D02*
X0230260Y0146192D01*
X0230329Y0146791D02*
X0234188Y0146791D01*
X0234436Y0147389D02*
X0230329Y0147389D01*
X0230329Y0147988D02*
X0234684Y0147988D01*
X0235266Y0148586D02*
X0230329Y0148586D01*
X0230329Y0149185D02*
X0235864Y0149185D01*
X0236739Y0149783D02*
X0230329Y0149783D01*
X0230329Y0150382D02*
X0238184Y0150382D01*
X0238456Y0150980D02*
X0230329Y0150980D01*
X0230329Y0151579D02*
X0238563Y0151579D01*
X0238811Y0152177D02*
X0230329Y0152177D01*
X0230329Y0152776D02*
X0239059Y0152776D01*
X0239306Y0153374D02*
X0229843Y0153374D01*
X0229244Y0153973D02*
X0239558Y0153973D01*
X0240157Y0154571D02*
X0228645Y0154571D01*
X0228047Y0155170D02*
X0240191Y0155170D01*
X0239593Y0155768D02*
X0227448Y0155768D01*
X0226850Y0156367D02*
X0239321Y0156367D01*
X0239073Y0156965D02*
X0226791Y0156965D01*
X0227329Y0157564D02*
X0238825Y0157564D01*
X0238577Y0158162D02*
X0227329Y0158162D01*
X0214996Y0145594D02*
X0212254Y0145594D01*
X0211656Y0146192D02*
X0214397Y0146192D01*
X0215594Y0144995D02*
X0212853Y0144995D01*
X0213451Y0144397D02*
X0215837Y0144397D01*
X0215239Y0143798D02*
X0214050Y0143798D01*
X0239433Y0144850D02*
X0243766Y0144848D01*
X0266207Y0144848D01*
X0263516Y0149783D02*
X0252855Y0149783D01*
X0252855Y0140207D02*
X0262944Y0140207D01*
X0264252Y0139609D02*
X0252855Y0139609D01*
X0289041Y0148392D02*
X0289041Y0127526D01*
X0294146Y0125244D02*
X0300117Y0125244D01*
X0300231Y0124646D02*
X0293898Y0124646D01*
X0293467Y0124047D02*
X0299633Y0124047D01*
X0299337Y0123449D02*
X0292869Y0123449D01*
X0292270Y0122850D02*
X0299089Y0122850D01*
X0298841Y0122252D02*
X0290914Y0122252D01*
X0294394Y0125843D02*
X0299538Y0125843D01*
X0299290Y0126441D02*
X0294630Y0126441D01*
X0294630Y0127040D02*
X0299042Y0127040D01*
X0298794Y0127638D02*
X0294630Y0127638D01*
X0294630Y0128237D02*
X0298546Y0128237D01*
X0298456Y0128835D02*
X0294548Y0128835D01*
X0294300Y0129434D02*
X0298456Y0129434D01*
X0298456Y0130032D02*
X0294052Y0130032D01*
X0293805Y0130631D02*
X0298456Y0130631D01*
X0298456Y0131229D02*
X0293641Y0131229D01*
X0293641Y0131828D02*
X0298666Y0131828D01*
X0298914Y0132426D02*
X0293641Y0132426D01*
X0293641Y0133025D02*
X0299162Y0133025D01*
X0299410Y0133623D02*
X0293641Y0133623D01*
X0293641Y0134222D02*
X0299807Y0134222D01*
X0300406Y0134820D02*
X0293641Y0134820D01*
X0293641Y0135419D02*
X0299942Y0135419D01*
X0299465Y0136017D02*
X0293641Y0136017D01*
X0293641Y0136616D02*
X0299217Y0136616D01*
X0298970Y0137215D02*
X0293641Y0137215D01*
X0293641Y0137813D02*
X0298722Y0137813D01*
X0298474Y0138412D02*
X0293641Y0138412D01*
X0293641Y0139010D02*
X0298456Y0139010D01*
X0298456Y0139609D02*
X0293641Y0139609D01*
X0293641Y0140207D02*
X0298456Y0140207D01*
X0298456Y0140806D02*
X0293641Y0140806D01*
X0293641Y0141404D02*
X0298490Y0141404D01*
X0298738Y0142003D02*
X0293641Y0142003D01*
X0293641Y0142601D02*
X0298986Y0142601D01*
X0299234Y0143200D02*
X0293641Y0143200D01*
X0293641Y0143798D02*
X0299482Y0143798D01*
X0299982Y0144397D02*
X0293641Y0144397D01*
X0293641Y0144995D02*
X0300366Y0144995D01*
X0299767Y0145594D02*
X0294147Y0145594D01*
X0294641Y0146192D02*
X0299393Y0146192D01*
X0299145Y0146791D02*
X0294889Y0146791D01*
X0295137Y0147389D02*
X0298897Y0147389D01*
X0298649Y0147988D02*
X0295385Y0147988D01*
X0295418Y0148586D02*
X0298456Y0148586D01*
X0298456Y0149185D02*
X0295418Y0149185D01*
X0295418Y0149783D02*
X0298456Y0149783D01*
X0298456Y0150382D02*
X0295380Y0150382D01*
X0295132Y0150980D02*
X0298456Y0150980D01*
X0298563Y0151579D02*
X0294884Y0151579D01*
X0294636Y0152177D02*
X0298811Y0152177D01*
X0299059Y0152776D02*
X0294136Y0152776D01*
X0293538Y0153374D02*
X0299306Y0153374D01*
X0299558Y0153973D02*
X0292860Y0153973D01*
X0289829Y0149179D02*
X0289041Y0148392D01*
X0311154Y0154571D02*
X0316405Y0154571D01*
X0315807Y0155170D02*
X0311120Y0155170D01*
X0311718Y0155768D02*
X0315208Y0155768D01*
X0314610Y0156367D02*
X0311990Y0156367D01*
X0312238Y0156965D02*
X0314225Y0156965D01*
X0313977Y0157564D02*
X0312486Y0157564D01*
X0312734Y0158162D02*
X0313729Y0158162D01*
X0313481Y0158761D02*
X0312855Y0158761D01*
X0312855Y0159359D02*
X0313269Y0159359D01*
X0313269Y0159958D02*
X0312855Y0159958D01*
X0312855Y0160556D02*
X0313269Y0160556D01*
X0313269Y0161155D02*
X0312855Y0161155D01*
X0312676Y0161753D02*
X0313269Y0161753D01*
X0313269Y0162352D02*
X0312428Y0162352D01*
X0312180Y0162951D02*
X0313269Y0162951D01*
X0313269Y0163549D02*
X0311932Y0163549D01*
X0311578Y0164148D02*
X0313269Y0164148D01*
X0313269Y0164746D02*
X0310980Y0164746D01*
X0311295Y0165345D02*
X0313269Y0165345D01*
X0313269Y0165943D02*
X0311815Y0165943D01*
X0312063Y0166542D02*
X0313269Y0166542D01*
X0313269Y0167140D02*
X0312311Y0167140D01*
X0312558Y0167739D02*
X0313269Y0167739D01*
X0313367Y0168337D02*
X0312806Y0168337D01*
X0312855Y0168936D02*
X0313614Y0168936D01*
X0313862Y0169534D02*
X0312855Y0169534D01*
X0312855Y0170133D02*
X0314110Y0170133D01*
X0314358Y0170731D02*
X0312855Y0170731D01*
X0312851Y0171330D02*
X0314932Y0171330D01*
X0315531Y0171928D02*
X0312604Y0171928D01*
X0312356Y0172527D02*
X0316129Y0172527D01*
X0317163Y0173125D02*
X0312108Y0173125D01*
X0311860Y0173724D02*
X0318608Y0173724D01*
X0322467Y0173724D02*
X0328608Y0173724D01*
X0327163Y0173125D02*
X0323912Y0173125D01*
X0324945Y0172527D02*
X0326129Y0172527D01*
X0325807Y0155170D02*
X0325268Y0155170D01*
X0324669Y0154571D02*
X0326405Y0154571D01*
X0327829Y0153973D02*
X0323245Y0153973D01*
X0317829Y0153973D02*
X0311753Y0153973D01*
X0320631Y0143200D02*
X0321231Y0143200D01*
X0321231Y0142601D02*
X0320631Y0142601D01*
X0320631Y0142003D02*
X0321231Y0142003D01*
X0321231Y0141404D02*
X0320631Y0141404D01*
X0320631Y0140806D02*
X0321231Y0140806D01*
X0321231Y0140207D02*
X0320631Y0140207D01*
X0320631Y0139609D02*
X0321231Y0139609D01*
X0321231Y0139010D02*
X0320631Y0139010D01*
X0320631Y0138412D02*
X0321231Y0138412D01*
X0321231Y0137813D02*
X0320631Y0137813D01*
X0301968Y0101902D02*
X0252614Y0101902D01*
X0252855Y0101304D02*
X0301699Y0101304D01*
X0301533Y0100705D02*
X0252855Y0100705D01*
X0278783Y0092326D02*
X0298872Y0092326D01*
X0298624Y0091728D02*
X0279921Y0091728D01*
X0280519Y0091129D02*
X0298456Y0091129D01*
X0298456Y0090531D02*
X0281118Y0090531D01*
X0281716Y0089932D02*
X0298456Y0089932D01*
X0298456Y0089334D02*
X0282315Y0089334D01*
X0282565Y0088735D02*
X0298456Y0088735D01*
X0298588Y0088137D02*
X0282813Y0088137D01*
X0283061Y0087538D02*
X0298836Y0087538D01*
X0299083Y0086940D02*
X0283309Y0086940D01*
X0283557Y0086341D02*
X0299331Y0086341D01*
X0299618Y0085743D02*
X0283735Y0085743D01*
X0283735Y0085144D02*
X0300217Y0085144D01*
X0300131Y0084546D02*
X0283735Y0084546D01*
X0283735Y0083947D02*
X0299544Y0083947D01*
X0299296Y0083348D02*
X0283735Y0083348D01*
X0283735Y0082750D02*
X0299048Y0082750D01*
X0298800Y0082151D02*
X0283710Y0082151D01*
X0283462Y0081553D02*
X0298552Y0081553D01*
X0298456Y0080954D02*
X0283214Y0080954D01*
X0282967Y0080356D02*
X0298456Y0080356D01*
X0298456Y0079757D02*
X0282719Y0079757D01*
X0282471Y0079159D02*
X0298456Y0079159D01*
X0298456Y0078560D02*
X0282087Y0078560D01*
X0281488Y0077962D02*
X0298660Y0077962D01*
X0298908Y0077363D02*
X0280890Y0077363D01*
X0280291Y0076765D02*
X0299156Y0076765D01*
X0299404Y0076166D02*
X0279678Y0076166D01*
X0278233Y0075568D02*
X0299793Y0075568D01*
X0300392Y0074969D02*
X0276788Y0074969D01*
X0299399Y0063598D02*
X0251912Y0063598D01*
X0252160Y0062999D02*
X0299151Y0062999D01*
X0298903Y0062401D02*
X0252408Y0062401D01*
X0252656Y0061802D02*
X0298655Y0061802D01*
X0298456Y0061204D02*
X0252855Y0061204D01*
X0252855Y0060605D02*
X0298456Y0060605D01*
X0298456Y0060007D02*
X0252855Y0060007D01*
X0252855Y0059408D02*
X0298456Y0059408D01*
X0298456Y0058810D02*
X0252855Y0058810D01*
X0252754Y0058211D02*
X0298557Y0058211D01*
X0298805Y0057613D02*
X0252506Y0057613D01*
X0252258Y0057014D02*
X0299053Y0057014D01*
X0299301Y0056415D02*
X0252010Y0056415D01*
X0251763Y0055817D02*
X0299548Y0055817D01*
X0300142Y0055218D02*
X0251169Y0055218D01*
X0251106Y0054620D02*
X0300205Y0054620D01*
X0299607Y0054021D02*
X0251704Y0054021D01*
X0251984Y0053423D02*
X0299327Y0053423D01*
X0299079Y0052824D02*
X0252232Y0052824D01*
X0252480Y0052226D02*
X0298831Y0052226D01*
X0298583Y0051627D02*
X0252728Y0051627D01*
X0252855Y0051029D02*
X0298456Y0051029D01*
X0298456Y0050430D02*
X0252855Y0050430D01*
X0252855Y0049832D02*
X0298456Y0049832D01*
X0298456Y0049233D02*
X0252855Y0049233D01*
X0252855Y0048635D02*
X0298456Y0048635D01*
X0298629Y0048036D02*
X0252682Y0048036D01*
X0252434Y0047438D02*
X0298877Y0047438D01*
X0299125Y0046839D02*
X0252186Y0046839D01*
X0251938Y0046241D02*
X0299373Y0046241D01*
X0299719Y0045642D02*
X0251592Y0045642D01*
X0250994Y0045044D02*
X0300317Y0045044D01*
X0300031Y0044445D02*
X0251280Y0044445D01*
X0251809Y0043847D02*
X0299502Y0043847D01*
X0299254Y0043248D02*
X0252057Y0043248D01*
X0252305Y0042650D02*
X0299006Y0042650D01*
X0298758Y0042051D02*
X0252553Y0042051D01*
X0252801Y0041453D02*
X0298510Y0041453D01*
X0298456Y0040854D02*
X0252855Y0040854D01*
X0252855Y0040256D02*
X0298456Y0040256D01*
X0298456Y0039657D02*
X0252855Y0039657D01*
X0252855Y0039059D02*
X0298456Y0039059D01*
X0298456Y0038460D02*
X0252855Y0038460D01*
X0252609Y0037862D02*
X0271380Y0037862D01*
X0272585Y0038361D02*
X0269167Y0036945D01*
X0266551Y0034329D01*
X0265135Y0030911D01*
X0265135Y0027211D01*
X0266551Y0023793D01*
X0269167Y0021177D01*
X0272585Y0019761D01*
X0276285Y0019761D01*
X0279703Y0021177D01*
X0282319Y0023793D01*
X0283735Y0027211D01*
X0283735Y0030911D01*
X0282319Y0034329D01*
X0279703Y0036945D01*
X0276285Y0038361D01*
X0272585Y0038361D01*
X0269935Y0037263D02*
X0252362Y0037263D01*
X0252114Y0036665D02*
X0268886Y0036665D01*
X0268288Y0036066D02*
X0251866Y0036066D01*
X0251418Y0035468D02*
X0267689Y0035468D01*
X0267091Y0034869D02*
X0250857Y0034869D01*
X0251455Y0034271D02*
X0266527Y0034271D01*
X0266279Y0033672D02*
X0251881Y0033672D01*
X0252129Y0033074D02*
X0266031Y0033074D01*
X0265783Y0032475D02*
X0252377Y0032475D01*
X0252625Y0031877D02*
X0265535Y0031877D01*
X0265287Y0031278D02*
X0252855Y0031278D01*
X0252855Y0030680D02*
X0265135Y0030680D01*
X0265135Y0030081D02*
X0252855Y0030081D01*
X0252855Y0029482D02*
X0265135Y0029482D01*
X0265135Y0028884D02*
X0252855Y0028884D01*
X0252785Y0028285D02*
X0265135Y0028285D01*
X0265135Y0027687D02*
X0252537Y0027687D01*
X0252289Y0027088D02*
X0265186Y0027088D01*
X0265434Y0026490D02*
X0252041Y0026490D01*
X0251793Y0025891D02*
X0265682Y0025891D01*
X0265930Y0025293D02*
X0251243Y0025293D01*
X0251031Y0024694D02*
X0266177Y0024694D01*
X0266425Y0024096D02*
X0251630Y0024096D01*
X0251954Y0023497D02*
X0266846Y0023497D01*
X0267445Y0022899D02*
X0252202Y0022899D01*
X0252449Y0022300D02*
X0268044Y0022300D01*
X0268642Y0021702D02*
X0252697Y0021702D01*
X0252855Y0021103D02*
X0269345Y0021103D01*
X0270789Y0020505D02*
X0252855Y0020505D01*
X0252855Y0019906D02*
X0272234Y0019906D01*
X0276636Y0019906D02*
X0298456Y0019906D01*
X0298456Y0019308D02*
X0252855Y0019308D01*
X0252855Y0018709D02*
X0298456Y0018709D01*
X0298598Y0018111D02*
X0252713Y0018111D01*
X0252465Y0017512D02*
X0298846Y0017512D01*
X0299094Y0016914D02*
X0252217Y0016914D01*
X0251969Y0016315D02*
X0299342Y0016315D01*
X0299644Y0015717D02*
X0251667Y0015717D01*
X0251068Y0015118D02*
X0300243Y0015118D01*
X0300105Y0014520D02*
X0251206Y0014520D01*
X0251778Y0013921D02*
X0299533Y0013921D01*
X0299285Y0013323D02*
X0252026Y0013323D01*
X0252274Y0012724D02*
X0299037Y0012724D01*
X0298789Y0012126D02*
X0252522Y0012126D01*
X0252770Y0011527D02*
X0298541Y0011527D01*
X0298456Y0010929D02*
X0252855Y0010929D01*
X0252855Y0010330D02*
X0298456Y0010330D01*
X0298456Y0009732D02*
X0252855Y0009732D01*
X0252855Y0009133D02*
X0298456Y0009133D01*
X0298456Y0008535D02*
X0252855Y0008535D01*
X0252640Y0007936D02*
X0298671Y0007936D01*
X0298919Y0007338D02*
X0252392Y0007338D01*
X0252144Y0006739D02*
X0299167Y0006739D01*
X0299414Y0006141D02*
X0251897Y0006141D01*
X0239414Y0006141D02*
X0022477Y0006141D01*
X0023076Y0006739D02*
X0239167Y0006739D01*
X0238919Y0007338D02*
X0023674Y0007338D01*
X0005694Y0024096D02*
X0210956Y0024096D01*
X0210956Y0024694D02*
X0005694Y0024694D01*
X0005694Y0025293D02*
X0210956Y0025293D01*
X0210956Y0025891D02*
X0005694Y0025891D01*
X0005694Y0026490D02*
X0210956Y0026490D01*
X0210956Y0027088D02*
X0005694Y0027088D01*
X0005694Y0027687D02*
X0210956Y0027687D01*
X0210956Y0028285D02*
X0005694Y0028285D01*
X0005694Y0028884D02*
X0210956Y0028884D01*
X0211325Y0029482D02*
X0005694Y0029482D01*
X0005694Y0030081D02*
X0211924Y0030081D01*
X0212522Y0030680D02*
X0005694Y0030680D01*
X0005694Y0031278D02*
X0212163Y0031278D01*
X0211565Y0031877D02*
X0005694Y0031877D01*
X0005694Y0032475D02*
X0210966Y0032475D01*
X0210956Y0033074D02*
X0005694Y0033074D01*
X0005694Y0033672D02*
X0210956Y0033672D01*
X0210956Y0034271D02*
X0005694Y0034271D01*
X0005694Y0034869D02*
X0210956Y0034869D01*
X0210956Y0035468D02*
X0005694Y0035468D01*
X0005694Y0036066D02*
X0210956Y0036066D01*
X0210956Y0036665D02*
X0005694Y0036665D01*
X0005694Y0037263D02*
X0210956Y0037263D01*
X0210956Y0037862D02*
X0005694Y0037862D01*
X0005694Y0038460D02*
X0210956Y0038460D01*
X0210956Y0039059D02*
X0005694Y0039059D01*
X0005694Y0039657D02*
X0211500Y0039657D01*
X0212098Y0040256D02*
X0005694Y0040256D01*
X0005694Y0040854D02*
X0212587Y0040854D01*
X0211989Y0041453D02*
X0005694Y0041453D01*
X0005694Y0042051D02*
X0211390Y0042051D01*
X0210956Y0042650D02*
X0005694Y0042650D01*
X0005694Y0043248D02*
X0210956Y0043248D01*
X0210956Y0043847D02*
X0005694Y0043847D01*
X0005694Y0044445D02*
X0210956Y0044445D01*
X0210956Y0045044D02*
X0005694Y0045044D01*
X0005694Y0045642D02*
X0210956Y0045642D01*
X0210956Y0046241D02*
X0005694Y0046241D01*
X0005694Y0046839D02*
X0210956Y0046839D01*
X0210956Y0047438D02*
X0005694Y0047438D01*
X0005694Y0048036D02*
X0210956Y0048036D01*
X0210956Y0048635D02*
X0005694Y0048635D01*
X0005694Y0049233D02*
X0211076Y0049233D01*
X0211674Y0049832D02*
X0005694Y0049832D01*
X0005694Y0050430D02*
X0212273Y0050430D01*
X0212098Y0051029D02*
X0005694Y0051029D01*
X0005694Y0051627D02*
X0211499Y0051627D01*
X0210956Y0052226D02*
X0005694Y0052226D01*
X0005694Y0052824D02*
X0210956Y0052824D01*
X0210956Y0053423D02*
X0005694Y0053423D01*
X0005694Y0054021D02*
X0210956Y0054021D01*
X0210956Y0054620D02*
X0005694Y0054620D01*
X0005694Y0055218D02*
X0210956Y0055218D01*
X0210956Y0055817D02*
X0005694Y0055817D01*
X0005694Y0056415D02*
X0210956Y0056415D01*
X0210956Y0057014D02*
X0005694Y0057014D01*
X0005694Y0057613D02*
X0210956Y0057613D01*
X0210956Y0058211D02*
X0005694Y0058211D01*
X0005694Y0058810D02*
X0210967Y0058810D01*
X0211566Y0059408D02*
X0005694Y0059408D01*
X0005694Y0060007D02*
X0212164Y0060007D01*
X0212763Y0060605D02*
X0005694Y0060605D01*
X0005694Y0061204D02*
X0213361Y0061204D01*
X0213960Y0061802D02*
X0005694Y0061802D01*
X0005694Y0062401D02*
X0214558Y0062401D01*
X0214370Y0062999D02*
X0005694Y0062999D01*
X0005694Y0063598D02*
X0213956Y0063598D01*
X0213956Y0064196D02*
X0005694Y0064196D01*
X0005694Y0064795D02*
X0213956Y0064795D01*
X0213956Y0065992D02*
X0005694Y0065992D01*
X0005694Y0066590D02*
X0213956Y0066590D01*
X0213956Y0067189D02*
X0005694Y0067189D01*
X0005694Y0067787D02*
X0214187Y0067787D01*
X0214786Y0068386D02*
X0005694Y0068386D01*
X0005694Y0068984D02*
X0215384Y0068984D01*
X0215983Y0069583D02*
X0005694Y0069583D01*
X0005694Y0070181D02*
X0216581Y0070181D01*
X0218656Y0065393D02*
X0005694Y0065393D01*
X0005694Y0192876D02*
X0022258Y0192876D01*
X0022401Y0193475D02*
X0005694Y0193475D01*
X0005694Y0194073D02*
X0022640Y0194073D01*
X0022996Y0194672D02*
X0005694Y0194672D01*
X0005694Y0195270D02*
X0023510Y0195270D01*
X0024268Y0195869D02*
X0005694Y0195869D01*
X0005694Y0196467D02*
X0026075Y0196467D01*
X0019065Y0235969D02*
X0241554Y0235969D01*
X0242442Y0237166D02*
X0021613Y0237166D01*
X0022211Y0237764D02*
X0242024Y0237764D01*
X0241735Y0238363D02*
X0022810Y0238363D01*
X0023408Y0238961D02*
X0241550Y0238961D01*
X0241456Y0239560D02*
X0024007Y0239560D01*
X0020510Y0236567D02*
X0242967Y0236567D01*
X0268269Y0222203D02*
X0268869Y0222203D01*
X0268869Y0221605D02*
X0268269Y0221605D01*
X0268269Y0221006D02*
X0268869Y0221006D01*
X0268869Y0220408D02*
X0268269Y0220408D01*
X0268269Y0219809D02*
X0268869Y0219809D01*
X0268869Y0219211D02*
X0268269Y0219211D01*
X0273285Y0216817D02*
X0293568Y0216817D01*
X0292124Y0216218D02*
X0273127Y0216218D01*
X0272885Y0215620D02*
X0291205Y0215620D01*
X0290606Y0215021D02*
X0272539Y0215021D01*
X0272776Y0214422D02*
X0290008Y0214422D01*
X0289493Y0213824D02*
X0273498Y0213824D01*
X0274097Y0213225D02*
X0289245Y0213225D01*
X0288997Y0212627D02*
X0274695Y0212627D01*
X0275228Y0212028D02*
X0288749Y0212028D01*
X0288501Y0211430D02*
X0275476Y0211430D01*
X0275724Y0210831D02*
X0288456Y0210831D01*
X0288456Y0210233D02*
X0275972Y0210233D01*
X0276220Y0209634D02*
X0288456Y0209634D01*
X0288456Y0209036D02*
X0276369Y0209036D01*
X0276369Y0208437D02*
X0288463Y0208437D01*
X0288711Y0207839D02*
X0276369Y0207839D01*
X0276369Y0207240D02*
X0288959Y0207240D01*
X0289207Y0206642D02*
X0276369Y0206642D01*
X0276316Y0206043D02*
X0289455Y0206043D01*
X0289916Y0205445D02*
X0276068Y0205445D01*
X0275820Y0204846D02*
X0290432Y0204846D01*
X0289833Y0204248D02*
X0275572Y0204248D01*
X0275324Y0203649D02*
X0289420Y0203649D01*
X0289172Y0203051D02*
X0274928Y0203051D01*
X0274870Y0202452D02*
X0288925Y0202452D01*
X0288677Y0201854D02*
X0275300Y0201854D01*
X0275548Y0201255D02*
X0288456Y0201255D01*
X0288456Y0200657D02*
X0275796Y0200657D01*
X0276044Y0200058D02*
X0288456Y0200058D01*
X0288456Y0199460D02*
X0276292Y0199460D01*
X0276369Y0198861D02*
X0288456Y0198861D01*
X0288535Y0198263D02*
X0276369Y0198263D01*
X0276369Y0197664D02*
X0288783Y0197664D01*
X0289031Y0197066D02*
X0276369Y0197066D01*
X0276369Y0196467D02*
X0289279Y0196467D01*
X0289527Y0195869D02*
X0276244Y0195869D01*
X0275996Y0195270D02*
X0290091Y0195270D01*
X0290257Y0194672D02*
X0275748Y0194672D01*
X0275500Y0194073D02*
X0289658Y0194073D01*
X0289348Y0193475D02*
X0275252Y0193475D01*
X0274753Y0192876D02*
X0289100Y0192876D01*
X0288852Y0192278D02*
X0274155Y0192278D01*
X0273556Y0191679D02*
X0288604Y0191679D01*
X0288456Y0191081D02*
X0272916Y0191081D01*
X0272497Y0190482D02*
X0288456Y0190482D01*
X0288456Y0189884D02*
X0272855Y0189884D01*
X0273108Y0189285D02*
X0288456Y0189285D01*
X0288456Y0188686D02*
X0273276Y0188686D01*
X0273369Y0188088D02*
X0288608Y0188088D01*
X0288856Y0187489D02*
X0268869Y0187489D01*
X0268869Y0186891D02*
X0268269Y0186891D01*
X0268269Y0187489D02*
X0252455Y0187489D01*
X0268269Y0186292D02*
X0268869Y0186292D01*
X0268869Y0185694D02*
X0268269Y0185694D01*
X0268269Y0185095D02*
X0268869Y0185095D01*
X0268869Y0184497D02*
X0268269Y0184497D01*
X0268269Y0183898D02*
X0268869Y0183898D01*
X0268869Y0183300D02*
X0268269Y0183300D01*
X0270462Y0183300D02*
X0292746Y0183300D01*
X0291463Y0183898D02*
X0271472Y0183898D01*
X0272132Y0184497D02*
X0290864Y0184497D01*
X0290266Y0185095D02*
X0272593Y0185095D01*
X0272922Y0185694D02*
X0289667Y0185694D01*
X0289352Y0186292D02*
X0273151Y0186292D01*
X0273297Y0186891D02*
X0289104Y0186891D01*
X0299187Y0216218D02*
X0299382Y0216218D01*
X0352923Y0235969D02*
X0361089Y0235969D01*
X0361089Y0236567D02*
X0354368Y0236567D01*
X0355471Y0237166D02*
X0361089Y0237166D01*
X0361089Y0237764D02*
X0356070Y0237764D01*
X0356668Y0238363D02*
X0361089Y0238363D01*
X0361089Y0238961D02*
X0357267Y0238961D01*
X0357865Y0239560D02*
X0361089Y0239560D01*
X0361089Y0240158D02*
X0358186Y0240158D01*
X0358434Y0240757D02*
X0361089Y0240757D01*
X0361089Y0241355D02*
X0358682Y0241355D01*
X0358929Y0241954D02*
X0361089Y0241954D01*
X0361089Y0242553D02*
X0359177Y0242553D01*
X0359425Y0243151D02*
X0361089Y0243151D01*
X0361089Y0243750D02*
X0359483Y0243750D01*
X0359483Y0244348D02*
X0361089Y0244348D01*
X0361089Y0244947D02*
X0359483Y0244947D01*
X0359483Y0245545D02*
X0361089Y0245545D01*
X0361089Y0246144D02*
X0359483Y0246144D01*
X0359483Y0246742D02*
X0361089Y0246742D01*
X0361089Y0247341D02*
X0359422Y0247341D01*
X0359174Y0247939D02*
X0361089Y0247939D01*
X0360943Y0248538D02*
X0358926Y0248538D01*
X0358679Y0249136D02*
X0360344Y0249136D01*
X0359746Y0249735D02*
X0358431Y0249735D01*
X0358183Y0250333D02*
X0359147Y0250333D01*
X0358549Y0250932D02*
X0357858Y0250932D01*
X0357950Y0251530D02*
X0357259Y0251530D01*
X0357352Y0252129D02*
X0356661Y0252129D01*
X0214915Y0193475D02*
X0209895Y0193475D01*
X0210493Y0192876D02*
X0214329Y0192876D01*
X0214329Y0192278D02*
X0211092Y0192278D01*
X0211690Y0191679D02*
X0214329Y0191679D01*
X0214329Y0191081D02*
X0211921Y0191081D01*
X0211921Y0190482D02*
X0214329Y0190482D01*
X0208121Y0191081D02*
X0207521Y0191081D01*
X0207521Y0191679D02*
X0208121Y0191679D01*
X0208121Y0192278D02*
X0207521Y0192278D01*
X0207521Y0192876D02*
X0208121Y0192876D01*
X0208121Y0193475D02*
X0207521Y0193475D01*
X0205747Y0193475D02*
X0199501Y0193475D01*
X0200099Y0192876D02*
X0205149Y0192876D01*
X0204550Y0192278D02*
X0200698Y0192278D01*
X0201296Y0191679D02*
X0203952Y0191679D01*
X0203721Y0191081D02*
X0201527Y0191081D01*
X0201527Y0190482D02*
X0203721Y0190482D01*
X0203721Y0189285D02*
X0201527Y0189285D01*
X0201527Y0188686D02*
X0203721Y0188686D01*
X0203721Y0188088D02*
X0201527Y0188088D01*
X0200965Y0187489D02*
X0204283Y0187489D01*
X0204882Y0186891D02*
X0200366Y0186891D01*
X0200926Y0186292D02*
X0204322Y0186292D01*
X0203724Y0185694D02*
X0201524Y0185694D01*
X0202123Y0185095D02*
X0203125Y0185095D01*
X0197727Y0191081D02*
X0197127Y0191081D01*
X0197127Y0191679D02*
X0197727Y0191679D01*
X0197727Y0192278D02*
X0197127Y0192278D01*
X0197127Y0192876D02*
X0197727Y0192876D01*
X0197727Y0193475D02*
X0197127Y0193475D01*
X0202040Y0174322D02*
X0203208Y0174322D01*
X0203806Y0173724D02*
X0201442Y0173724D01*
X0200843Y0173125D02*
X0204405Y0173125D01*
X0251529Y0064196D02*
X0299782Y0064196D01*
X0298702Y0037862D02*
X0277491Y0037862D01*
X0278935Y0037263D02*
X0298949Y0037263D01*
X0299197Y0036665D02*
X0279984Y0036665D01*
X0280582Y0036066D02*
X0299445Y0036066D01*
X0299893Y0035468D02*
X0281181Y0035468D01*
X0281779Y0034869D02*
X0300454Y0034869D01*
X0299856Y0034271D02*
X0282343Y0034271D01*
X0282591Y0033672D02*
X0299430Y0033672D01*
X0299182Y0033074D02*
X0282839Y0033074D01*
X0283087Y0032475D02*
X0298934Y0032475D01*
X0298686Y0031877D02*
X0283335Y0031877D01*
X0283583Y0031278D02*
X0298456Y0031278D01*
X0298456Y0030680D02*
X0283735Y0030680D01*
X0283735Y0030081D02*
X0298456Y0030081D01*
X0298456Y0029482D02*
X0283735Y0029482D01*
X0283735Y0028884D02*
X0298456Y0028884D01*
X0298526Y0028285D02*
X0283735Y0028285D01*
X0283735Y0027687D02*
X0298774Y0027687D01*
X0299022Y0027088D02*
X0283684Y0027088D01*
X0283436Y0026490D02*
X0299270Y0026490D01*
X0299518Y0025891D02*
X0283188Y0025891D01*
X0282940Y0025293D02*
X0300068Y0025293D01*
X0300280Y0024694D02*
X0282693Y0024694D01*
X0282445Y0024096D02*
X0299681Y0024096D01*
X0299357Y0023497D02*
X0282024Y0023497D01*
X0281425Y0022899D02*
X0299110Y0022899D01*
X0298862Y0022300D02*
X0280827Y0022300D01*
X0280228Y0021702D02*
X0298614Y0021702D01*
X0298456Y0021103D02*
X0279526Y0021103D01*
X0278081Y0020505D02*
X0298456Y0020505D01*
X0311068Y0015118D02*
X0339859Y0015118D01*
X0339859Y0014520D02*
X0311206Y0014520D01*
X0311778Y0013921D02*
X0339859Y0013921D01*
X0339859Y0013323D02*
X0312026Y0013323D01*
X0312274Y0012724D02*
X0339859Y0012724D01*
X0339859Y0012126D02*
X0312522Y0012126D01*
X0312770Y0011527D02*
X0339859Y0011527D01*
X0340055Y0010929D02*
X0312855Y0010929D01*
X0312855Y0010330D02*
X0340303Y0010330D01*
X0340551Y0009732D02*
X0312855Y0009732D01*
X0312855Y0009133D02*
X0340799Y0009133D01*
X0341047Y0008535D02*
X0312855Y0008535D01*
X0312640Y0007936D02*
X0341295Y0007936D01*
X0341810Y0007338D02*
X0312392Y0007338D01*
X0312144Y0006739D02*
X0342409Y0006739D01*
X0343007Y0006141D02*
X0311897Y0006141D01*
X0311667Y0015717D02*
X0340030Y0015717D01*
X0340278Y0016315D02*
X0311969Y0016315D01*
X0312217Y0016914D02*
X0340526Y0016914D01*
X0340774Y0017512D02*
X0312465Y0017512D01*
X0353708Y0022300D02*
X0361089Y0022300D01*
X0361089Y0021702D02*
X0355153Y0021702D01*
X0355796Y0021103D02*
X0361089Y0021103D01*
X0361089Y0020505D02*
X0356395Y0020505D01*
X0356993Y0019906D02*
X0361089Y0019906D01*
X0361089Y0019308D02*
X0357592Y0019308D01*
X0358073Y0018709D02*
X0361089Y0018709D01*
X0361089Y0018111D02*
X0358320Y0018111D01*
X0358568Y0017512D02*
X0361089Y0017512D01*
X0361089Y0016914D02*
X0358816Y0016914D01*
X0359064Y0016315D02*
X0361089Y0016315D01*
X0361089Y0015717D02*
X0359312Y0015717D01*
X0359483Y0015118D02*
X0361089Y0015118D01*
X0361089Y0014520D02*
X0359483Y0014520D01*
X0359483Y0013921D02*
X0361089Y0013921D01*
X0361089Y0013323D02*
X0359483Y0013323D01*
X0359483Y0012724D02*
X0361089Y0012724D01*
X0361089Y0012126D02*
X0359483Y0012126D01*
X0359483Y0011527D02*
X0361089Y0011527D01*
X0361089Y0010929D02*
X0359288Y0010929D01*
X0359040Y0010330D02*
X0361089Y0010330D01*
X0361089Y0009732D02*
X0358792Y0009732D01*
X0358544Y0009133D02*
X0361089Y0009133D01*
X0361089Y0008535D02*
X0358296Y0008535D01*
X0358048Y0007936D02*
X0360790Y0007936D01*
X0360192Y0007338D02*
X0357532Y0007338D01*
X0356934Y0006739D02*
X0359593Y0006739D01*
X0358995Y0006141D02*
X0356335Y0006141D01*
D20*
X0336285Y0066502D02*
X0336226Y0066561D01*
X0329435Y0066561D01*
X0315341Y0099888D02*
X0305656Y0099888D01*
X0315341Y0099888D02*
X0315419Y0099967D01*
X0222329Y0119574D02*
X0214709Y0119574D01*
X0214632Y0119652D01*
X0214473Y0159574D02*
X0214238Y0159809D01*
X0214473Y0159574D02*
X0222329Y0159574D01*
X0262270Y0187762D02*
X0268530Y0187762D01*
X0268569Y0187722D01*
X0268136Y0217289D02*
X0259514Y0217289D01*
X0268136Y0217289D02*
X0268569Y0217722D01*
X0274907Y0217722D02*
X0275262Y0218077D01*
X0252821Y0239730D02*
X0245813Y0239730D01*
X0245656Y0239888D01*
X0237624Y0239888D01*
X0237467Y0239730D01*
X0222329Y0199574D02*
X0215027Y0199574D01*
X0215026Y0199573D01*
X0096256Y0192181D02*
X0090311Y0192181D01*
X0090222Y0192093D01*
X0026502Y0192181D02*
X0026413Y0192093D01*
X0021719Y0192093D01*
X0209120Y0064927D02*
X0218398Y0064927D01*
X0218956Y0065484D01*
D21*
X0289041Y0127526D03*
X0266207Y0144848D03*
X0289829Y0149179D03*
X0239433Y0144850D03*
M02*
