%
M48
M72
T01C0.01378
T02C0.03200
T03C0.03800
T04C0.03937
T05C0.04000
T06C0.11024
%
T01
X239433Y144850
X266207Y144848
X289829Y149179
X289041Y127526
T02
X208057Y129750
X196797Y129750
X196797Y139750
X208057Y139750
X207821Y179750
X197427Y179750
X197427Y189750
X207821Y189750
T03
X245656Y189888
X245656Y199888
X245656Y209888
X245656Y219888
X245656Y229888
X245656Y239888
X295656Y229888
X305656Y229888
X305656Y219888
X305656Y209888
X295656Y209888
X295656Y199888
X305656Y199888
X305656Y189888
X295656Y189888
X305656Y179888
X305656Y169888
X305656Y159888
X305656Y149888
X305656Y139888
X305656Y129888
X305656Y119888
X305656Y109888
X305656Y99888
X305656Y89888
X305656Y79888
X305656Y69888
X305656Y59888
X305656Y49888
X305656Y39888
X305656Y29888
X305656Y19888
X305656Y9888
X245656Y9888
X245656Y19888
X245656Y29888
X245656Y39888
X245656Y49888
X245656Y59888
X245656Y69888
X245656Y79888
X245656Y89888
X245656Y99888
X245656Y109888
X245656Y119888
X245656Y129888
X245656Y139888
X245656Y149888
X245656Y159888
X245656Y169888
X245656Y179888
X305656Y239888
T04
X320537Y163687
X330537Y163687
X330931Y136325
X320931Y136325
X329435Y86561
X329435Y76561
X329435Y66561
X329435Y56561
X329435Y46561
X329435Y36561
X329435Y26561
X274435Y29061
X274435Y84061
T05
X222329Y109574
X222329Y119574
X222329Y129574
X222329Y139574
X222329Y149574
X222329Y159574
X222329Y169574
X222329Y179574
X222329Y189574
X222329Y199574
X268569Y197722
X268569Y187722
X268569Y207722
X268569Y217722
X152829Y199474
X152829Y189474
X152829Y179474
X152829Y169474
X152829Y159474
X152829Y149474
X152829Y139474
X152829Y129474
X152829Y119474
X152829Y109474
X106256Y142181
X96256Y142181
X96256Y152181
X106256Y152181
X106256Y162181
X96256Y162181
X96256Y172181
X106256Y172181
X106256Y182181
X96256Y182181
X96256Y192181
X106256Y192181
X36502Y192181
X26502Y192181
X26502Y182181
X36502Y182181
X36502Y172181
X26502Y172181
X26502Y162181
X36502Y162181
X36502Y152181
X26502Y152181
X26502Y142181
X36502Y142181
X218956Y65484
X218956Y55484
X218956Y45799
X218956Y35799
X218956Y25799
X218956Y15799
T06
X15813Y13352
X52821Y97604
X122900Y97998
X15813Y245242
X349671Y245242
X349671Y13352
M30
